<?xml version="1.0" encoding="UTF-8"?>
<svg id="_レイヤー_2" data-name="レイヤー 2" xmlns="http://www.w3.org/2000/svg" xmlns:xlink="http://www.w3.org/1999/xlink" viewBox="0 0 172.59 55">
  <defs>
    <style>
      .cls-1 {
        fill: url(#_新規グラデーションスウォッチ_1);
      }

      .cls-2 {
        fill: #fff;
      }
    </style>
    <linearGradient id="_新規グラデーションスウォッチ_1" data-name="新規グラデーションスウォッチ 1" x1="0" y1="27.5" x2="172.59" y2="27.5" gradientUnits="userSpaceOnUse">
      <stop offset="0" stop-color="#d6b038"/>
      <stop offset=".06" stop-color="#d6ab39"/>
      <stop offset=".13" stop-color="#d59d3a"/>
      <stop offset=".2" stop-color="#d3863d"/>
      <stop offset=".28" stop-color="#d16540"/>
      <stop offset=".36" stop-color="#ce3c45"/>
      <stop offset=".4" stop-color="#cc2747"/>
      <stop offset=".45" stop-color="#ca284b"/>
      <stop offset=".51" stop-color="#c52b57"/>
      <stop offset=".56" stop-color="#bb306b"/>
      <stop offset=".62" stop-color="#af3787"/>
      <stop offset=".66" stop-color="#a33ea0"/>
      <stop offset=".71" stop-color="#9c3ea0"/>
      <stop offset=".8" stop-color="#893e9f"/>
      <stop offset=".9" stop-color="#693f9f"/>
      <stop offset="1" stop-color="#3f3f9e"/>
    </linearGradient>
  </defs>
  <g id="_文字" data-name="文字">
    <g>
      <rect class="cls-1" y="0" width="172.59" height="55"/>
      <g>
        <path class="cls-2" d="M26.99,10.49c-2.82,1.18-5.93,4.52-6.91,8.71-1.24,5.31,3.93,7.56,4.35,6.82.5-.87-.93-1.16-1.22-3.91-.38-3.56,1.28-7.54,3.36-9.28.39-.32.37.13.37.96,0,1.49-.08,14.89-.08,17.69,0,3.78-.16,4.98-.44,6.16-.28,1.2-.74,2-.4,2.32.39.35,2.04-.48,3-1.82,1.15-1.6,1.55-3.52,1.62-5.61.09-2.52.08-6.51.09-8.79,0-2.09.04-8.21-.04-11.89-.02-.9-2.52-1.85-3.7-1.35"/>
        <path class="cls-2" d="M127.27,28.2c-.09,1.97-.53,3.5-1.07,4.59-1.05,2.1-3.22,2.75-4.14-.27-.5-1.65-.53-4.39-.16-6.69.37-2.34,1.39-4.11,3.09-3.95,1.68.16,2.46,2.32,2.28,6.31h0ZM99.01,40.41c-.02,3.27-.54,6.13-1.64,6.97-1.56,1.18-3.67.29-3.23-2.09.39-2.11,2.21-4.27,4.88-6.9,0,0,0,.6,0,2.02h0ZM98.58,28.18c-.1,1.79-.56,3.59-1.07,4.61-1.05,2.1-3.23,2.76-4.14-.27-.62-2.07-.47-4.74-.16-6.42.4-2.19,1.36-4.21,3.09-4.21s2.51,1.85,2.28,6.29h0ZM82.21,28.15c-.1,1.9-.47,3.48-1.07,4.64-1.07,2.09-3.2,2.75-4.14-.27-.68-2.17-.45-5.14-.16-6.74.42-2.37,1.46-4.06,3.09-3.9,1.68.16,2.49,2.32,2.28,6.27h0ZM157.24,30.37c-.41,0-.6.42-.75,1.13-.54,2.47-1.1,3.03-1.83,3.03-.81,0-1.54-1.22-1.73-3.67-.15-1.93-.12-5.47.06-9,.04-.72-.16-1.44-2.11-2.15-.84-.3-2.05-.75-2.66.71-1.71,4.13-2.38,7.41-2.54,8.74,0,.07-.09.08-.11-.08-.1-1.07-.32-3-.35-7.08,0-.79-.17-1.47-1.05-2.02-.57-.36-2.3-.99-2.92-.24-.54.62-1.16,2.28-1.81,4.25-.53,1.6-.89,2.69-.89,2.69,0,0,0-4.32.01-5.97,0-.62-.42-.83-.55-.86-.58-.17-1.71-.45-2.19-.45-.59,0-.74.33-.74.82,0,.06-.09,5.69-.09,9.63,0,.17,0,.36,0,.56-.33,1.81-1.4,4.27-2.56,4.27s-1.71-1.03-1.71-5.72c0-2.74.08-3.93.12-5.91.02-1.14.07-2.02.07-2.22,0-.61-1.06-.92-1.55-1.03-.49-.11-.92-.16-1.26-.14-.47.03-.81.34-.81.76,0,.23,0,.66,0,.66-.61-.96-1.59-1.62-2.24-1.82-1.76-.52-3.59-.06-4.97,1.88-1.1,1.54-1.76,3.28-2.02,5.78-.19,1.83-.13,3.68.21,5.25-.41,1.77-1.17,2.5-2,2.5-1.21,0-2.08-1.97-1.98-5.38.07-2.24.52-3.82,1.01-6.1.21-.97.04-1.48-.39-1.97-.39-.45-1.22-.68-2.42-.39-.85.2-2.07.42-3.19.58,0,0,.07-.27.12-.74.29-2.48-2.41-2.28-3.27-1.49-.51.47-.86,1.03-1,2.04-.21,1.59,1.09,2.35,1.09,2.35-.43,1.95-1.47,4.5-2.55,6.35-.58.99-1.02,1.72-1.59,2.5,0-.29,0-.58,0-.87-.01-4.11.04-7.34.07-8.5.02-1.14.07-1.99.07-2.19,0-.45-.27-.61-.81-.83-.48-.19-1.05-.32-1.63-.36-.74-.06-1.19.34-1.18.8,0,.09,0,.63,0,.63-.61-.96-1.59-1.62-2.24-1.82-1.76-.52-3.59-.06-4.97,1.88-1.1,1.54-1.82,3.7-2.02,5.76-.19,1.93-.15,3.56.1,4.94-.28,1.38-1.08,2.83-1.99,2.83-1.16,0-1.82-1.03-1.82-5.72,0-2.74.08-3.93.12-5.91.02-1.14.07-2.02.07-2.22,0-.61-1.06-.92-1.55-1.03-.51-.12-.96-.16-1.3-.14-.45.03-.76.44-.76.74v.69c-.61-.96-1.59-1.62-2.24-1.82-1.76-.52-3.58-.05-4.97,1.88-.91,1.26-1.64,2.65-2.02,5.73-.11.89-.16,1.73-.15,2.51-.36,2.22-1.96,4.77-3.27,4.77-.77,0-1.5-1.49-1.5-4.65,0-4.22.26-10.22.31-10.8,0,0,1.65-.03,1.97-.03.82,0,1.57.01,2.67-.05.55-.03,1.08-2.01.51-2.25-.26-.11-2.08-.21-2.8-.22-.61-.01-2.3-.14-2.3-.14,0,0,.15-3.99.19-4.41.03-.35-.42-.53-.68-.64-.63-.27-1.2-.4-1.87-.53-.93-.19-1.35,0-1.43.78-.12,1.19-.19,4.67-.19,4.67-.68,0-3.01-.13-3.69-.13-.63,0-1.32,2.72-.44,2.75,1.01.04,2.76.07,3.92.11,0,0-.05,6.1-.05,7.99,0,.2,0,.39,0,.58-.64,3.33-2.89,5.14-2.89,5.14.48-2.21-.5-3.86-2.29-5.27-.66-.52-1.95-1.5-3.4-2.57,0,0,.84-.83,1.58-2.49.53-1.18.55-2.53-.74-2.83-2.14-.49-3.9,1.08-4.43,2.76-.41,1.3-.19,2.26.61,3.26.06.07.12.15.19.22-.48.93-1.15,2.18-1.71,3.16-1.56,2.7-2.74,4.83-3.63,4.83-.71,0-.7-2.17-.7-4.19,0-1.75.13-4.38.23-7.1.03-.9-.42-1.41-1.17-1.88-.46-.28-1.44-.84-2-.84-.85,0-3.3.12-5.61,6.8-.29.84-.86,2.38-.86,2.38l.05-8.04c0-.19-.1-.37-.33-.5-.39-.21-1.43-.64-2.36-.64-.44,0-.66.21-.66.61l-.08,12.58c0,.96.02,2.07.12,2.56.09.49.25.89.44,1.12.19.24.41.42.77.49.33.07,2.17.3,2.26-.4.11-.84.12-1.75,1.08-5.14,1.5-5.28,3.45-7.85,4.37-8.76.16-.16.34-.17.34.09-.04,1.16-.18,4.05-.27,6.5-.25,6.57.95,7.79,2.65,7.79,1.31,0,3.15-1.3,5.12-4.59,1.23-2.05,2.43-4.06,3.29-5.5.6.55,1.27,1.15,1.94,1.79,1.56,1.48,2.07,2.89,1.73,4.22-.26,1.02-1.24,2.07-2.98,1.05-.51-.3-.72-.53-1.23-.86-.27-.18-.69-.23-.94-.05-.65.49-1.03,1.12-1.24,1.89-.21.75.55,1.15,1.33,1.5.67.3,2.12.57,3.04.6,3.6.12,6.48-1.74,8.48-6.53.36,4.14,1.89,6.48,4.54,6.48,1.77,0,3.55-2.29,4.33-4.55.22.92.55,1.72.98,2.4,2.05,3.24,6.01,2.54,8.01-.21.62-.85.71-1.16.71-1.16.29,2.6,2.38,3.51,3.58,3.51,1.34,0,2.73-.63,3.7-2.82.11.24.24.46.37.68,2.05,3.24,6.01,2.54,8.01-.21.09-.13.18-.25.25-.35l.06,1.71s-1.14,1.04-1.84,1.68c-3.08,2.82-5.41,4.96-5.59,7.45-.22,3.18,2.36,4.36,4.31,4.51,2.07.16,3.84-.98,4.93-2.58.96-1.41,1.59-4.44,1.54-7.43-.02-1.2-.05-2.72-.07-4.36,1.08-1.25,2.3-2.84,3.42-4.69,1.22-2.02,2.53-4.74,3.2-6.85,0,0,1.14,0,2.35-.07.39-.03.5.05.43.34-.09.34-1.53,5.92-.21,9.64.9,2.54,2.94,3.36,4.15,3.36,1.41,0,2.77-1.07,3.49-2.65.09.18.18.35.28.51,2.05,3.24,6,2.54,8.01-.21.45-.62.71-1.16.71-1.16.43,2.69,2.52,3.52,3.72,3.52s2.43-.51,3.39-2.79c.04,1,.1,1.82.2,2.08.06.16.42.36.67.45,1.14.42,2.31.22,2.74.14.3-.06.53-.3.56-.92.08-1.62.03-4.35.52-6.38.83-3.4,1.6-4.72,1.96-5.37.2-.37.44-.43.44-.04.02.78.06,3.09.38,6.18.24,2.27.55,3.62.79,4.04.69,1.22,1.54,1.27,2.23,1.27.44,0,1.36-.12,1.28-.9-.04-.38.03-2.71.84-6.06.53-2.19,1.42-4.17,1.74-4.89.12-.27.17-.06.17-.02-.07,1.51-.22,6.44.4,9.13.83,3.65,3.24,4.06,4.08,4.06,1.79,0,3.26-1.36,3.75-4.95.12-.86-.06-1.53-.58-1.53h0Z"/>
      </g>
    </g>
  </g>
</svg>