<?xml version="1.0" encoding="UTF-8"?>
<svg id="_レイヤー_2" data-name="レイヤー 2" xmlns="http://www.w3.org/2000/svg" viewBox="0 0 392.16 48.4">
  <defs>
    <style>
      .cls-1 {
        fill: none;
        stroke: #e50053;
        stroke-miterlimit: 10;
      }

      .cls-2 {
        fill: #fadce9;
      }

      .cls-3 {
        fill: #e50053;
      }
    </style>
  </defs>
  <g id="_文字" data-name="文字">
    <g>
      <g>
        <path class="cls-2" d="M368.08,47.9c-114.63,0-229.25,0-343.88,0-31.6,0-31.6-47.4,0-47.4h343.88c31.44-.23,31.44,47.62,0,47.4Z"/>
        <path class="cls-1" d="M368.08,47.9c-114.63,0-229.25,0-343.88,0-31.6,0-31.6-47.4,0-47.4h343.88c31.44-.23,31.44,47.62,0,47.4Z"/>
      </g>
      <g>
        <path class="cls-3" d="M48.56,27.61l-12.43,7.88-.2-.25,10.18-9.49,3.55-7.63-9.93,1.56v-4.39l10.31,1.99,1-2.12,4.29,1.99-6.33,10,8.96,4.52-3.21,3.6-6.17-7.65Z"/>
        <path class="cls-3" d="M61.32,30.67l5.64-7.37.31.1-2.02,9.01-3.93-1.73ZM67.11,32.79v-.36l4.08-.51-.46-10.56-8.16.94v-4.26l8.06.61-.23-5.13h4.39l-.15,5.43,8.17.64v.38l-8.24.94-.43,14.9-7.02-3.04ZM79.72,31.95l-2.78-8.62.31-.2,6.25,6.79-3.78,2.04ZM82.83,13.12c-.99.17-1.8.48-2.45.92-.65.44-.97,1.01-.97,1.71,0,.34.1.63.31.87s.48.36.82.36c.27,0,.51-.12.71-.36s.31-.51.31-.82c0-.24-.07-.47-.2-.7-.14-.23-.37-.43-.71-.6l1.79-.97c.44.39.77.8.97,1.22.2.43.31.83.31,1.22,0,.75-.28,1.39-.84,1.93-.56.54-1.25.8-2.07.8-.94,0-1.67-.26-2.21-.77-.54-.51-.8-1.17-.8-1.99s.37-1.57,1.1-2.16c.73-.59,1.85-.88,3.37-.88.08,0,.17,0,.27.01.09,0,.19.01.29.01l.03.18Z"/>
        <path class="cls-3" d="M88.6,35.31l-2.25-4.26,21.02-6.58.13.33-18.91,10.51ZM94,23.65l-4.8-7.86.13-.28,8.52,4.72-3.85,3.42Z"/>
        <path class="cls-3" d="M122.25,35.95l1.61-13.68-5.23.69.49,6.07-2.93.31-1.02-5.92-4.49.59-.54-3.9,4.49.13-1.02-5.94,4.29-.54.54,6.58,5.64.15.84-6.99,4.59.92-1.96,6.17,5.36.13v.36l-5.77.77-4.57,14.21-.31-.1Z"/>
        <path class="cls-3" d="M137.05,26.97l-1.43-4.92,21.61,2.32v.28l-20.18,2.32Z"/>
        <path class="cls-3" d="M163.81,36.05l-.36-11.97-2.93,6.46-.33-.1,1.12-9.7,2.12,2.42-.1-3.5-2.63.66v-3.83l2.55.46-.1-3.85h3.98l-.1,4.49,1.84.33v.36l-1.86.46-.03,1.61,2.07,3.6-1.22,3.78-.87-6.17-.33,14.49h-2.81ZM167.16,31.87l6.48-1.89.2.31-4.9,5.03-1.79-3.44ZM168.69,27.05l.13-.26,4.46.64-2.14,3.06-2.45-3.44ZM177.46,28.81l-.43,7.48-6-1.99v-.23l3.21-1.28-.08-7.25-5.03.84v-3.57l5,.31-.03-1.4-3.7.59v-3.06l3.7.31-.03-1.12-4.72.77v-3.57l3.6.31-2.27-2.55.18-.23,5.51.77-2.73,2.07,2.78.23,1.28-3.09,4.77,1.2-5.18,1.96,5.59.46v.26l-7.86,1.28h3.06l-.1,1.61,3.85.33v.31l-3.93.61-.13,2.19,5.84.36v.26l-5.95,1-.18,3.19,5.21,3.16-1.94,3.9-3.32-6.38ZM179.35,28.81l-.36-.15.71-3.67,3.01,1.48-3.37,2.35Z"/>
        <path class="cls-3" d="M206.88,33.6c-2.16.27-4.41.49-6.74.66s-4.61.26-6.84.26c-2.6,0-4.46-.25-5.56-.75s-1.66-1.22-1.66-2.16c0-.36.07-.75.22-1.17s.35-.88.62-1.35c.46-.83,1.02-1.71,1.67-2.63.66-.92,1.36-1.78,2.11-2.58l.18.23c-.19,1.14-.34,2.2-.46,3.19-.12.99-.19,1.84-.2,2.55v.2c0,.78.1,1.34.29,1.68s.61.51,1.24.51c.37,0,.85-.05,1.43-.15.71-.14,1.59-.31,2.63-.52,1.04-.21,2.16-.46,3.37-.75s2.42-.61,3.65-.96c1.23-.35,2.39-.71,3.5-1.08l.56,4.82ZM189.53,17.27v-.25l15.31-.36-.59,4.77-14.72-4.16ZM202.24,25.18v-3.32l3.04,1.63-3.04,1.68ZM205.33,23.45v-3.01l2.76,1.48-2.76,1.53Z"/>
        <path class="cls-3" d="M228.26,35.8l-.05-2.12-4.39,1.17-.05,1.2h-2.76l-.64-9.9-2.45,1.3-.2-2.6-3.57,1.1h3.14l-.43,10.1h-2.88l-.33-7.35-2.88,5.56-.2-.05.49-6.51,2.6.64-.1-2.22-3.06.94-.28-3.62,2.4.31,2.07-3.73-2.68,1.45-1.38-4.82.23-.18,1.53,1,2.02-4.34,4.08,1.1-5.77,3.47,2.4,1.53,1.48-2.68,3.62,1.76-6.91,5.51,4.41.54-.23-3.06.18-.1,2.7,4.54-.05-.97h3.98l-.05,1.12,7.65-2.22-.82,12.12h-2.81ZM217.88,33.68l-.2-5.49.2-.03,2.68,4.24-2.68,1.28ZM224.51,21.41v-.33l3.34-.66.38-3.24-8.62-1.63v-.36l12.83-1.35-2.19,10.26-5.74-2.68ZM219.87,24.01l2.3-7.71,4.29,1.33-6.33,6.58-.25-.2ZM228.09,27.23l-3.88-.69-.23,5.13,4.24,1.2-.13-5.64Z"/>
        <path class="cls-3" d="M247.81,16.69l-11.97,8.04-.2-.31,9.44-11.33,6.07,1.33-2.81,1.89,10.36,2.65-1.53,5.05-9.36-7.32ZM238.19,35.9l2.81-14.11,4.08,1.12-6.53,13.14-.36-.15ZM250.59,36.05l-.87-14.21h4.08l-.36,14.21h-2.86Z"/>
        <path class="cls-3" d="M265.23,34.98l-3.21-19.44,4.44-.18-.94,19.6-.28.03ZM282.23,33.53c-.82-.66-1.68-1.31-2.6-1.94-.34,1.48-.79,2.56-1.35,3.24-.56.68-1.23,1.02-1.99,1.02-.31,0-.64-.05-1-.15-.99-.29-1.97-.77-2.95-1.43-.98-.66-1.87-1.46-2.67-2.4-.95-1.16-1.43-2.17-1.43-3.04,0-.7.29-1.24.88-1.62.59-.38,1.42-.57,2.51-.57h.36c1.46.05,3.03.25,4.7.59.02-.43.03-.88.03-1.37v-3.14c0-.55,0-1.11-.03-1.67l-6.86,1.22-.31-4.03,7.14.56c-.02-.9-.04-1.77-.05-2.62-.02-.84-.04-1.6-.08-2.28l4.11.1v1.15c0,.58,0,1.2-.01,1.88,0,.67-.02,1.37-.04,2.08l3.7.31v.25l-3.75.66c-.05,1.38-.11,2.75-.18,4.12-.07,1.37-.15,2.6-.25,3.69.68.22,1.35.47,2.02.74.66.27,1.32.58,1.96.92l-1.86,3.73ZM276.59,29.73c-1.39-.82-2.51-1.3-3.34-1.45-.2-.03-.39-.06-.56-.09-.17-.03-.32-.04-.46-.04-.36,0-.54.14-.54.41,0,.39.41,1.34,1.22,2.86.19.32.45.67.78,1.03.33.37.67.69,1.01.96.25.2.47.31.64.31.29,0,.54-.29.74-.87s.37-1.62.51-3.11Z"/>
        <path class="cls-3" d="M301.08,34.78l.13-3.24-13.7,2.19v-4.26l13.73,1.35.38-10.74-14.44-1.4v-.41l18.86-1.99-1.94,18.5h-3.01Z"/>
        <path class="cls-3" d="M322.67,25.18l-4.57,11.02-.36-.05,1.68-10.56-8.88,1.12-.38-4.18,9.67.48.71-4.57-7.58.77-.15-.33,13.83-5.26,1.58,4.03-6.71.69,3.6.89-1.63,3.95,8.47.41v.38l-9.29,1.2Z"/>
        <path class="cls-3" d="M340.63,36.05l-.2-.26,9.24-12.96-14.26,1.63v-4.39l14.72,2.09,1.25-1.76,4.29,1.99-15.03,13.65ZM338.74,18.37v-4.06l13.93,1.43v.38l-13.93,2.25Z"/>
      </g>
    </g>
  </g>
</svg>