<?xml version="1.0" encoding="UTF-8"?>
<svg id="_レイヤー_2" data-name="レイヤー 2" xmlns="http://www.w3.org/2000/svg" viewBox="0 0 172.59 55">
  <defs>
    <style>
      .cls-1 {
        fill: #fff;
      }

      .cls-2 {
        fill: #0065af;
      }
    </style>
  </defs>
  <g id="_文字" data-name="文字">
    <g>
      <rect class="cls-2" width="172.59" height="55"/>
      <g>
        <path class="cls-1" d="M31.42,18.67c-1.56,0-2.02.69-2.02,2.22v2.54h4.17l-.42,4.1h-3.75v12.45h-5.01v-12.45h-3.37v-4.1h3.37v-2.47c0-4.14,1.67-6.32,6.32-6.32.98,0,1.95.06,2.92.17v3.86h-2.22Z"/>
        <path class="cls-1" d="M33.93,31.18c0-4.62,2.19-8.11,6.78-8.11,2.5,0,4.03,1.29,4.76,2.89v-2.53h4.8v16.55h-4.8v-2.5c-.7,1.6-2.26,2.85-4.76,2.85-4.59,0-6.78-3.48-6.78-8.11v-1.04ZM38.93,32.29c0,2.47.9,4.1,3.23,4.1,2.05,0,3.09-1.49,3.09-3.86v-1.66c0-2.36-1.04-3.86-3.09-3.86-2.33,0-3.23,1.63-3.23,4.1v1.18Z"/>
        <path class="cls-1" d="M60.7,23.08c1.95,0,3.79.42,4.8,1.11l-1.11,3.55c-1.04-.5-2.18-.76-3.34-.77-2.71,0-3.89,1.56-3.89,4.24v.97c0,2.68,1.18,4.24,3.89,4.24,1.16,0,2.29-.27,3.34-.77l1.11,3.55c-1.01.7-2.85,1.11-4.8,1.11-5.88,0-8.55-3.16-8.55-8.24v-.77c0-5.08,2.68-8.24,8.55-8.24Z"/>
        <path class="cls-1" d="M66.15,32.33v-1.46c0-4.69,2.68-7.78,8.14-7.78,5.15,0,7.4,3.13,7.4,7.72v2.64h-10.54c.11,2.26,1.11,3.27,3.89,3.27,1.88,0,3.86-.38,5.32-1.01l.92,3.43c-1.32.7-4.03,1.22-6.43,1.22-6.34,0-8.7-3.16-8.7-8.03ZM71.16,30.18h6.05v-.42c0-1.81-.73-3.24-2.92-3.24-2.26,0-3.13,1.43-3.13,3.65h0Z"/>
        <path class="cls-1" d="M100.25,32.22c0,4.62-2.22,8.11-6.81,8.11-2.5,0-4.24-1.25-4.94-2.85v2.5h-4.73V15.12l5.01-.45v11.06c.73-1.46,2.33-2.64,4.66-2.64,4.59,0,6.81,3.48,6.81,8.11v1.04ZM95.24,31.08c0-2.33-.9-4.07-3.3-4.07-2.05,0-3.16,1.46-3.16,3.82v1.74c0,2.36,1.11,3.82,3.16,3.82,2.4,0,3.3-1.74,3.3-4.07v-1.25Z"/>
        <path class="cls-1" d="M101.92,32.12v-.83c0-4.76,2.71-8.21,8.24-8.21s8.24,3.44,8.24,8.21v.83c0,4.76-2.71,8.21-8.24,8.21s-8.24-3.44-8.24-8.21ZM113.4,30.94c0-2.19-.9-3.93-3.24-3.93s-3.23,1.74-3.23,3.93v1.53c0,2.19.9,3.93,3.23,3.93s3.24-1.74,3.24-3.93v-1.53Z"/>
        <path class="cls-1" d="M120.07,32.12v-.83c0-4.76,2.71-8.21,8.24-8.21s8.24,3.44,8.24,8.21v.83c0,4.76-2.71,8.21-8.24,8.21s-8.24-3.44-8.24-8.21ZM131.54,30.94c0-2.19-.9-3.93-3.23-3.93s-3.23,1.74-3.23,3.93v1.53c0,2.19.9,3.93,3.23,3.93s3.23-1.74,3.23-3.93v-1.53Z"/>
        <path class="cls-1" d="M143.43,31.32l4.94-7.89h5.32l-5.18,8.17,5.39,8.38h-5.32l-5.15-8.11v8.11h-5.01V15.12l5.01-.45v16.65Z"/>
      </g>
    </g>
  </g>
</svg>