<?xml version="1.0" encoding="UTF-8"?>
<svg id="_レイヤー_2" data-name="レイヤー 2" xmlns="http://www.w3.org/2000/svg" viewBox="0 0 92.5 29.48">
  <defs>
    <style>
      .cls-1 {
        fill: #fff;
      }

      .cls-2 {
        fill: #2e3192;
      }
    </style>
  </defs>
  <g id="_文字" data-name="文字">
    <g>
      <rect class="cls-2" y="0" width="92.5" height="29.48"/>
      <g>
        <path class="cls-1" d="M20.28,20.87l-2.08-8.1h2.11l.9,3.99c.07.41.13.8.19,1.19.06.39.12.78.19,1.19h.07c.09-.41.17-.8.25-1.19.08-.39.16-.78.26-1.18l.98-3.99h1.88l1.01,3.99c.1.41.18.8.26,1.19.08.39.16.78.26,1.19h.06c.08-.41.15-.8.21-1.19.06-.39.13-.78.21-1.19l.85-3.99h1.98l-2,8.1h-2.5l-.85-3.53c-.09-.39-.17-.77-.24-1.15s-.15-.79-.24-1.22h-.07c-.07.43-.13.84-.2,1.23-.07.39-.14.77-.23,1.14l-.83,3.53h-2.43Z"/>
        <path class="cls-1" d="M34.96,21.07c-.75,0-1.43-.17-2.04-.51-.61-.34-1.09-.82-1.45-1.46-.36-.64-.54-1.4-.54-2.29,0-.66.1-1.24.31-1.77.21-.52.49-.97.85-1.34.36-.37.77-.66,1.22-.85s.91-.3,1.4-.3c.74,0,1.37.17,1.87.5.5.33.88.79,1.14,1.38s.38,1.25.38,2c0,.19,0,.38-.03.56-.02.18-.04.32-.07.43h-4.99c.06.43.19.8.39,1.1.2.3.46.52.78.67.32.15.68.22,1.08.22.33,0,.64-.05.93-.14.29-.09.58-.23.88-.41l.72,1.3c-.4.27-.84.49-1.33.65-.49.16-.99.25-1.49.25ZM32.95,15.99h3.31c0-.54-.12-.97-.37-1.3s-.63-.48-1.17-.48c-.28,0-.54.07-.8.2-.25.13-.46.33-.64.59-.17.27-.29.6-.35.99Z"/>
        <path class="cls-1" d="M43.9,21.07c-.36,0-.72-.09-1.1-.27-.38-.18-.73-.44-1.06-.78h-.07l-.17.85h-1.66v-11.55h2.13v2.91l-.07,1.3c.33-.29.69-.52,1.08-.7.39-.18.78-.27,1.18-.27.67,0,1.24.17,1.71.51.48.34.84.82,1.1,1.43.25.61.38,1.33.38,2.16,0,.93-.17,1.72-.49,2.38-.33.66-.76,1.16-1.28,1.51-.53.34-1.08.51-1.67.51ZM43.44,19.32c.32,0,.61-.09.87-.28s.47-.48.62-.86c.15-.39.23-.87.23-1.46,0-.51-.06-.95-.17-1.31-.12-.36-.29-.63-.52-.82-.23-.18-.54-.27-.91-.27-.27,0-.53.07-.79.2-.26.14-.52.34-.8.62v3.57c.25.23.5.39.76.48.26.09.5.13.72.13Z"/>
        <path class="cls-1" d="M51.47,21.07c-.54,0-1.09-.11-1.64-.32s-1.04-.48-1.44-.81l.97-1.35c.36.27.71.48,1.06.64.35.16.72.24,1.11.24.41,0,.7-.08.89-.24.19-.16.28-.36.28-.62,0-.2-.08-.37-.25-.51-.16-.14-.38-.27-.64-.38-.26-.11-.53-.22-.81-.33-.34-.14-.67-.3-1.01-.49-.33-.19-.61-.44-.83-.75-.22-.3-.33-.68-.33-1.14,0-.48.12-.91.38-1.28.25-.37.6-.66,1.05-.88.45-.21.98-.32,1.6-.32s1.11.1,1.57.3.85.43,1.18.69l-.96,1.29c-.29-.21-.58-.38-.86-.51-.28-.13-.58-.19-.88-.19-.38,0-.65.07-.82.22s-.26.33-.26.56c0,.19.07.35.22.48.14.13.34.24.59.34s.52.2.8.3c.27.1.54.21.8.34.26.13.51.29.73.47.22.18.4.41.53.67.13.27.2.59.2.96,0,.47-.12.9-.37,1.3-.25.39-.61.7-1.08.93-.48.23-1.07.34-1.77.34Z"/>
        <path class="cls-1" d="M57.39,11.45c-.38,0-.67-.1-.9-.31-.22-.21-.33-.49-.33-.85s.11-.63.33-.84c.22-.21.52-.32.9-.32s.65.11.88.32c.23.21.35.49.35.84s-.12.64-.35.85c-.23.21-.53.31-.88.31ZM56.32,20.87v-8.1h2.13v8.1h-2.13Z"/>
        <path class="cls-1" d="M63.68,21.07c-.64,0-1.15-.13-1.55-.38s-.68-.61-.85-1.06c-.17-.45-.26-.98-.26-1.58v-3.6h-1.14v-1.58l1.26-.1.25-2.19h1.75v2.19h2.01v1.68h-2.01v3.59c0,.46.1.81.29,1.03s.47.33.83.33c.13,0,.28-.02.42-.06.14-.04.27-.08.38-.12l.36,1.55c-.22.07-.48.14-.76.2-.28.07-.61.1-.96.1Z"/>
        <path class="cls-1" d="M70.34,21.07c-.75,0-1.43-.17-2.04-.51-.61-.34-1.09-.82-1.45-1.46-.36-.64-.54-1.4-.54-2.29,0-.66.1-1.24.31-1.77.21-.52.49-.97.85-1.34.36-.37.77-.66,1.22-.85s.91-.3,1.4-.3c.74,0,1.37.17,1.87.5.5.33.88.79,1.14,1.38s.38,1.25.38,2c0,.19,0,.38-.03.56-.02.18-.04.32-.07.43h-4.99c.06.43.19.8.39,1.1.2.3.46.52.78.67.32.15.68.22,1.08.22.33,0,.64-.05.93-.14.29-.09.58-.23.88-.41l.72,1.3c-.4.27-.84.49-1.33.65-.49.16-.99.25-1.49.25ZM68.33,15.99h3.31c0-.54-.12-.97-.37-1.3s-.63-.48-1.17-.48c-.28,0-.54.07-.8.2-.25.13-.46.33-.64.59-.17.27-.29.6-.35.99Z"/>
      </g>
    </g>
  </g>
</svg>