<?xml version="1.0" encoding="UTF-8"?>
<svg id="_レイヤー_2" data-name="レイヤー 2" xmlns="http://www.w3.org/2000/svg" viewBox="0 0 503.9 104.93">
  <defs>
    <style>
      .cls-1 {
        fill: #a54393;
      }

      .cls-2 {
        fill: #009fe8;
      }

      .cls-3 {
        fill: #946134;
      }

      .cls-4 {
        fill: #910782;
      }

      .cls-5 {
        fill: #009844;
      }

      .cls-6 {
        fill: #ef8200;
      }

      .cls-7 {
        fill: #e73828;
      }

      .cls-8 {
        fill: #231815;
      }

      .cls-9 {
        fill: #44af35;
      }

      .cls-10 {
        fill: #b28146;
      }

      .cls-11 {
        fill: #036eb7;
      }

      .cls-12 {
        fill: #00a85f;
      }

      .cls-13 {
        fill: #c79f62;
      }

      .cls-14 {
        fill: #e50012;
      }

      .cls-15 {
        fill: #5084c4;
      }

      .cls-16 {
        fill: #00913a;
      }

      .cls-17 {
        fill: #0080cb;
      }

      .cls-18 {
        fill: #804f21;
      }
    </style>
  </defs>
  <g id="_文字" data-name="文字">
    <g>
      <g>
        <path d="M10.94,16.38L10.16,0h3.82l-.02.63c.76-.22,1.47-.38,2.13-.48.67-.1,1.28-.15,1.84-.15,1.12,0,2.06.17,2.82.49.76.33,1.34.76,1.73,1.28s.59,1.1.59,1.71-.13,1.23-.4,1.89-.74,1.29-1.42,1.89c-.68.6-1.62,1.12-2.83,1.55-1.21.43-2.76.73-4.65.88l-.15,6.68h-2.69ZM13.78,9.28c1.15-.22,2.09-.57,2.82-1.03.73-.46,1.31-.98,1.71-1.55.41-.57.69-1.14.85-1.7.16-.56.24-1.04.24-1.45,0-.57-.26-1.07-.79-1.48-.52-.41-1.41-.62-2.66-.62-.29,0-.61,0-.94.03-.34.02-.69.07-1.07.14l-.17,7.67Z"/>
        <path d="M25.45,16.38l-.76-11.7h3.7l-.06,2.08c.32-.42.71-.81,1.18-1.17.46-.36.96-.64,1.5-.86s1.08-.33,1.63-.33v3.09c-.28-.15-.59-.27-.93-.35-.34-.08-.7-.12-1.06-.12-.43,0-.86.05-1.28.16s-.77.26-1.05.45l-.27,8.74h-2.58Z"/>
        <path d="M45.82,10.54c0,.92-.19,1.76-.57,2.51s-.88,1.39-1.49,1.92c-.62.53-1.28.94-2,1.23-.71.29-1.41.43-2.08.43s-1.37-.14-2.08-.43c-.71-.29-1.38-.7-2.01-1.23-.62-.53-1.13-1.17-1.51-1.92-.39-.75-.58-1.59-.58-2.51s.19-1.76.58-2.52c.38-.76.89-1.4,1.51-1.94.62-.54,1.29-.95,2.01-1.24s1.41-.43,2.08-.43,1.36.14,2.08.43c.71.29,1.38.7,2,1.24.62.54,1.11,1.19,1.49,1.94.38.76.57,1.6.57,2.52ZM40.32,15.12c.74,0,1.31-.27,1.7-.81.39-.54.59-1.52.59-2.93,0-1.26-.19-2.29-.58-3.09-.39-.8-.85-1.38-1.4-1.75-.55-.37-1.07-.56-1.58-.56s-.91.11-1.26.34c-.35.22-.62.61-.8,1.14-.18.54-.27,1.28-.27,2.24,0,.85.12,1.62.35,2.29s.53,1.24.89,1.71c.36.47.75.82,1.17,1.06.41.24.81.36,1.19.36Z"/>
        <path d="M60.75,14.7c-.6.56-1.17,1.03-1.71,1.4-.54.37-1.02.56-1.44.56-.34,0-.62-.15-.85-.44s-.4-.8-.49-1.51c-.52.56-1.18,1.03-2,1.4-.81.37-1.74.56-2.77.56-1.33,0-2.32-.42-2.97-1.25s-.98-1.99-.98-3.48c0-3.85,2.74-6.28,8.23-7.29l-.21-4.64h3.68l-.29,12.75v.57c0,.5.04.87.14,1.08.09.22.3.33.64.33.11,0,.25-.01.41-.04.16-.03.34-.06.54-.1l.08.13ZM55.82,5.63c-1.82.77-3.13,1.67-3.93,2.71s-1.2,2.18-1.2,3.42c0,.95.16,1.65.48,2.08.32.43.79.65,1.41.65s1.21-.08,1.77-.24c.57-.16,1.17-.4,1.82-.72l-.36-7.9Z"/>
        <path d="M74.53,14.7c-.6.56-1.17,1.03-1.7,1.4-.53.37-1,.56-1.41.56-.35,0-.64-.17-.87-.51s-.38-.93-.45-1.77c-.28.43-.66.82-1.13,1.17-.48.34-.99.61-1.53.81-.55.2-1.06.29-1.55.29-.85,0-1.52-.15-2-.46s-.82-.76-1.03-1.35-.35-1.34-.42-2.24l-.55-7.9h3.59l-.34,7.73v.25c0,.62.13,1.06.39,1.34s.72.42,1.4.42c.39,0,.88-.1,1.45-.31.57-.21,1.12-.56,1.64-1.05l-.57-8.38h3.57l-.29,8.06v.57c0,.5.04.87.14,1.08.09.22.3.33.64.33.11,0,.25-.01.41-.04.16-.03.34-.06.54-.1l.08.13Z"/>
        <path d="M86.79,16.65c-2.16,0-3.96-.1-5.4-.29-1.44-.2-2.58-.52-3.42-.97-.84-.45-1.44-1.04-1.81-1.76-.36-.73-.55-1.62-.55-2.67,0-1.36.22-2.53.65-3.51.43-.98,1.03-1.73,1.77-2.26.75-.52,1.59-.79,2.53-.79,1.27,0,2.43.14,3.45.41s1.89.61,2.57,1l-1.34,2.79c-.85-.85-1.62-1.52-2.29-1.99-.67-.47-1.36-.7-2.06-.7-.41,0-.78.17-1.11.49-.34.33-.6.87-.79,1.63s-.28,1.79-.28,3.09c0,.94.27,1.72.82,2.35.55.63,1.42,1.17,2.61,1.63,1.2.46,2.77.89,4.71,1.31l-.08.23Z"/>
        <path d="M99.01,16.65c-2.16,0-3.96-.1-5.4-.29-1.44-.2-2.58-.52-3.42-.97-.84-.45-1.44-1.04-1.81-1.76-.36-.73-.55-1.62-.55-2.67,0-1.36.25-2.53.76-3.51.5-.98,1.17-1.73,1.98-2.26.82-.52,1.68-.79,2.59-.79.73,0,1.46.11,2.21.34s1.44.59,2.08,1.09c.64.5,1.17,1.17,1.58,1.98.41.82.64,1.82.69,3.01l-8.93,1.01c.13.77.48,1.42,1.06,1.96s1.46,1.01,2.64,1.42c1.18.41,2.71.8,4.6,1.18l-.08.25ZM96.22,9.11c-.07-.55-.23-1.06-.48-1.55-.25-.49-.57-.88-.97-1.19-.39-.3-.83-.45-1.3-.45-.56,0-1.04.13-1.45.4-.41.27-.72.77-.94,1.52-.22.75-.34,1.84-.34,3.29v.2c0,.06,0,.13.02.2l5.46-2.42Z"/>
        <path d="M114.26,14.7c-.6.56-1.17,1.03-1.71,1.4-.54.37-1.02.56-1.44.56-.34,0-.62-.15-.85-.44s-.4-.8-.49-1.51c-.52.56-1.18,1.03-2,1.4-.81.37-1.74.56-2.77.56-1.33,0-2.32-.42-2.97-1.25s-.98-1.99-.98-3.48c0-3.85,2.74-6.28,8.23-7.29l-.21-4.64h3.68l-.29,12.75v.57c0,.5.04.87.14,1.08.09.22.3.33.64.33.11,0,.25-.01.41-.04.16-.03.34-.06.54-.1l.08.13ZM109.32,5.63c-1.82.77-3.13,1.67-3.93,2.71s-1.2,2.18-1.2,3.42c0,.95.16,1.65.48,2.08.32.43.79.65,1.41.65s1.21-.08,1.77-.24c.57-.16,1.17-.4,1.82-.72l-.36-7.9Z"/>
        <path d="M122.87,0h3.67l-.25,6.41c.38-.35.81-.68,1.3-.98s1-.55,1.54-.74,1.07-.28,1.59-.28c1.33,0,2.32.41,2.97,1.23.65.82.98,1.98.98,3.48,0,1.69-.46,3.1-1.39,4.22-.92,1.12-2.22,1.95-3.87,2.5-1.66.55-3.6.82-5.83.82l-.71-16.65ZM125.91,15.67c1.44-.48,2.57-1.04,3.38-1.7s1.39-1.39,1.72-2.18c.34-.8.5-1.63.5-2.5,0-.95-.16-1.64-.48-2.06-.32-.42-.79-.63-1.41-.63s-1.14.05-1.67.15-1.1.27-1.71.52l-.34,8.4Z"/>
        <path d="M138.26,19.68l2.98-4.85-5.19-9.51,3.65-.9,2.69,8.53,5.15-8.44h.29l-6.05,16.69-3.53-1.51Z"/>
      </g>
      <g>
        <circle class="cls-8" cx="140.91" cy="56.27" r="3.87"/>
        <g>
          <g>
            <polygon class="cls-8" points="106.14 83.77 1.79 83.77 5.38 79.43 111.07 79.43 106.14 83.77"/>
            <polygon class="cls-8" points="181.27 83.77 121.62 83.77 126.3 79.43 189.16 79.43 181.27 83.77"/>
            <polygon class="cls-8" points="330.73 83.77 196.83 83.77 202.34 79.43 333.81 79.43 330.73 83.77"/>
            <polygon class="cls-8" points="501.67 83.77 343.68 83.77 346.72 79.43 502.03 79.43 501.67 83.77"/>
            <path class="cls-8" d="M27.11,77.26H7.17l25.58-30.67h13.97l-19.61,30.67ZM13.08,74.5h12.52l16.08-25.14h-7.63l-20.97,25.14Z"/>
            <path class="cls-8" d="M93.21,104.76h-12.32l51.92-46.99-24.75-19.47h18.98l14.63,11.61,13.08-11.61h11.58l-19.54,17.79-.93-.99c-.85-.9-1.99-1.4-3.21-1.4-2.44,0-4.42,1.98-4.42,4.42,0,1.32.59,2.28,1.09,2.86l.88,1.02-46.98,42.76ZM88.06,102h4.08l44.3-40.32c-.48-.82-.79-1.72-.91-2.65l-47.47,42.96ZM116.04,41.06l19.61,15.43c.49-2.11,1.91-3.87,3.81-4.81l-13.39-10.62h-10.04ZM144.43,51.16c.87.22,1.69.61,2.42,1.14l12.35-11.24h-3.39l-11.38,10.09Z"/>
            <path class="cls-8" d="M101.39,104.76h-11.37l48.69-44.31.93.88c.83.78,1.9,1.22,3.02,1.22,2.44,0,4.43-1.98,4.43-4.42,0-.95-.32-1.87-.92-2.66l-.77-1.01,17.75-16.16h12.22l-22.72,20.18,19.44,15.23h-18.93l-9.43-7.37-42.33,38.43ZM97.16,102h3.16l40.64-36.89c-.78-.19-1.53-.52-2.21-.96l-41.59,37.85ZM154.1,70.94h9.97l-14.4-11.28c-.47,2.13-1.88,3.91-3.77,4.87l8.2,6.41ZM149.04,54.87c.4.77.65,1.59.75,2.44l18.29-16.24h-3.87l-15.17,13.8Z"/>
            <path class="cls-8" d="M142.66,64.7c-3.62,0-6.57-2.95-6.57-6.57s2.95-6.57,6.57-6.57,6.57,2.95,6.57,6.57-2.95,6.57-6.57,6.57ZM142.66,55.56c-1.41,0-2.56,1.15-2.56,2.56s1.15,2.56,2.56,2.56,2.56-1.15,2.56-2.56-1.15-2.56-2.56-2.56Z"/>
            <path class="cls-8" d="M250.94,74.67h-25.99l3.14-35.89h26.05l-3.21,35.89ZM227.97,71.91h20.44l2.72-30.36h-20.5l-2.66,30.36ZM245.48,71.05h-6.17l1.28-14.13h6.16l-1.27,14.13ZM242.34,68.28h.62l.78-8.6h-.62l-.78,8.6ZM237.18,71.05h-6.16l1.28-14.13h6.17l-1.28,14.13ZM234.04,68.28h.62l.78-8.6h-.62l-.78,8.6ZM246.87,56.06h-6.23l1.21-13.64h6.22l-1.21,13.64ZM243.66,53.29h.68l.72-8.12h-.68l-.72,8.12ZM238.51,56.06h-6.17l1.21-13.64h6.17l-1.21,13.64ZM235.36,53.29h.62l.72-8.12h-.62l-.72,8.12Z"/>
            <path class="cls-8" d="M280.26,77.33h-29.98l1.75-19.93h29.98l-1.75,19.93ZM253.3,74.57h24.43l1.27-14.4h-24.43l-1.27,14.4ZM270.89,73.71h-10.63l1.16-12.68h10.63l-1.16,12.68ZM263.28,70.94h5.09l.65-7.15h-5.09l-.65,7.15Z"/>
            <path class="cls-8" d="M302.63,77.28h-22.07l1.68-18.65h-2.44l5.09-13.92h-3.25l.54-6.43h23.54l-.54,6.43h-7.56l-2.65,7.49h9.94l-2.27,25.08ZM283.58,74.52h16.52l1.77-19.55h-10.83l4.61-13.02h6.97l.08-.9h-17.99l-.08.9h4.2l-5.09,13.92h1.51l-1.68,18.65ZM295.67,73.62h-6.71l1.67-17.75h6.71l-1.67,17.75ZM292,70.86h1.16l1.15-12.22h-1.16l-1.15,12.22Z"/>
            <path class="cls-8" d="M391.18,55.07h-27.19l.76-9.3-.18.12-13.65,9.18h-17.53l8.64-5.8h-5.62l.97-10.99h20.93l.24-2.42h13.9l-.24,2.42h20.66l-.97,10.99h-.23l-.49,5.8ZM366.99,52.3h21.65l.07-.87h-13.68l.77-9.53h6.62l-.42,4.59h7.38l.48-5.46h-20.69l.24-2.42h-8.35l-.24,2.42h-20.9l-.48,5.46h7.41l.39-4.59h20.6l-.12,1.45h.61l-.64.43-.69,8.51ZM342.46,52.3h7.62l9.19-6.18h-7.62l-.56.38h.01l-4.53,3.07v-.03s-4.12,2.77-4.12,2.77ZM378.03,48.68h.99l.37-4.01h-1.04l-.32,4.01Z"/>
            <path class="cls-8" d="M419.54,44.72h-28l.53-6.4h28l-.53,6.4ZM394.55,41.96h22.45l.07-.87h-22.45l-.07.87Z"/>
            <path class="cls-8" d="M401.29,77.26h-12.72l3.85-31.54h26.68l-1.76,19.92h-14.6l-1.46,11.62ZM391.69,74.5h7.16l1.46-11.62h14.5l1.27-14.39h-21.22l-3.18,26.02ZM408.19,62h-7.79l1.55-12.65h7.41l-1.16,12.65ZM403.52,59.24h2.15l.66-7.12h-1.93l-.87,7.12Z"/>
            <path class="cls-8" d="M460.43,77.2h-9.87l-2.54-4.8,1.42-19.08,2.78-4.67h9.95l-3.29,5.52-1.31,17.64,2.85,5.39ZM452.23,74.43h3.61l-1.08-2.04,1.42-19.08,1.13-1.9h-3.52l-1.64,2.76-1.31,17.64,1.39,2.62Z"/>
            <path class="cls-8" d="M491.63,77.51l-4.77-3.27-.78,2.31h-26.45l.91-12.2h-2.89l6.45-15.04h9.18l-.16.37h20.53l-.37,5.21h-12.99l-.17,1.03h12.93l-4.28,12.7,3.33,2.27-.47,6.63ZM478.06,68.26l-1.21,7.41,2.27-6.69-1.06-.72ZM480.42,73.78h3.68l1.32-3.89,3.8,2.61.02-.23-3.75-2.55,3.72-11.04h-3.7l-3.02,9-6.37-4.39,1.79-10.85h-3.52l-3.53,21.35h3.51l1.67-10.24,6.38,4.34-2,5.9ZM462.61,73.78h3.27l1.29-17.19,1.93-4.53h-3.17l-4.08,9.52h1.67l-.91,12.2ZM469.88,57.26l-.75,9.97,2.04-12.35h-.28l-1.02,2.38ZM479.11,61.99l1.92,1.32.74-2.19h-2.51l-.14.87Z"/>
            <path class="cls-8" d="M499.7,77.2h-9.95l3.29-5.52,1.32-17.64-2.85-5.39h9.87l2.54,4.8-1.42,19.08-2.78,4.67ZM494.6,74.43h3.52l1.64-2.76,1.31-17.64-1.39-2.62h-3.61l1.08,2.04-1.42,19.08-1.13,1.9Z"/>
            <path class="cls-8" d="M190.86,77.44h-11.48l.54-6.04h-11.11l.53-6.39h11.14l.04-.44h-11.12l1.94-21.32h.84l-.97-4.84h20.47l.92,4.62,2.14-4.62h10.78l-2.24,4.84h1.52l-1.87,21.32h-10.95l-.04.44h11.23l-.53,6.39h-11.25l-.54,6.04ZM182.4,74.68h5.93l.54-6.04h11.24l.07-.86h-11.26l.56-5.97h10.94l1.39-15.79h-2.83l2.24-4.84h-4.69l-2.24,4.84h-3.89l-.97-4.84h-4.92l.97,4.84h-4.99l-.97-4.84h-4.92l.97,4.84h-1.69l-1.44,15.79h11.13l-.56,5.97h-11.11l-.07.86h11.13l-.54,6.04ZM195,60.94h-7.15l.6-7.07h7.14l-.59,7.07ZM190.86,58.18h1.6l.13-1.54h-1.6l-.13,1.54ZM185.29,60.94h-7.32l.6-7.07h7.32l-.6,7.07ZM180.98,58.18h1.78l.13-1.54h-1.78l-.13,1.54ZM195.65,53.64h-7.15l.61-6.77h7.15l-.61,6.77ZM191.53,50.87h1.6l.11-1.24h-1.6l-.11,1.24ZM185.95,53.64h-7.27l.61-6.77h7.26l-.61,6.77ZM181.71,50.87h1.72l.11-1.24h-1.72l-.11,1.24Z"/>
            <path class="cls-8" d="M164.29,104.93h-12.38l59.4-34.24,1.45,2.35-48.47,31.89ZM162.24,102.17h1.22l8.66-5.7-9.89,5.7Z"/>
            <polygon class="cls-8" points="170.76 104.93 161.27 104.93 211.34 71.74 212.92 74 170.76 104.93"/>
            <path class="cls-8" d="M56.17,63.41h-16.9l8.1-18.63H8.09l1.11-6.48h57.19l-10.22,25.11ZM48.89,60.64h5.42l7.97-19.58H11.53l-.16.95h40.21l-5.83,13.42c.77-.14,1.59,0,2.29.42l.33-.28.51.93.82.67-.33.28c.42,1.08.23,2.31-.48,3.2ZM43.48,60.64h.33l-.25-.2-.09.2Z"/>
            <path class="cls-8" d="M111.96,48.3h-47.75l1.46-10.02h47.75l-1.46,10.02ZM72.6,45.54h32.32l-.08-.15-.82-.67.33-.28c-.46-1.17-.2-2.5.66-3.4h-32.32l.08.15.82.67-.33.28c.46,1.17.2,2.5-.66,3.4ZM67.4,45.54h.45l-.08-.15-.31-.25-.06.4ZM109.84,41.19l.32.26.06-.41h-.46l.08.15Z"/>
            <path class="cls-8" d="M154.49,104.93h-14.38l69.49-39.3-2.67-11.71h-4.72l.53-6.39h2.71l-2.12-9.13h13.48l2.11,9.13h9.05l-.53,6.39h-7.04l1.15,5.1,5.67-3.14-.7,8.39-3.36,1.85,2.64,11.31h-13.48l-1.1-4.71-56.72,32.2ZM150.61,102.17h3.15l59.31-33.67,1.44,6.17h2.64l-.2-.37-.82-.67.33-.28c-.5-1.28-.15-2.75.91-3.64,1.05-.88,2.56-.97,3.73-.26l-1.11-4.75,3.9-2.14.15-1.76-4.37,2.42-2.72-12.07h7.95l.07-.86h-8.24l-2.11-9.13h-7.8l2.12,9.13h-3.64l-.07.86h3.92l3.62,15.86-62.14,35.15ZM221.55,74.68h.76l-.16-.69c-.16.25-.36.48-.6.69Z"/>
            <path class="cls-8" d="M273.46,59.44h-13.75l1.66-3.32-10.61-1.59.46-4.76h-.7l.87-1.75.06-.59.22.03,4.58-9.17h27.49l-6.27,12.85,5.22.54-.75,7.11-7.76-.89-.73,1.53ZM264.18,56.68h7.54l.84-1.74,6.94.8.17-1.59-6.4-.67,3.63-7.45c-1.03.68-2.38.7-3.45.05l-.33.28-.51-.93-.82-.67.33-.28c-.46-1.18-.2-2.54.69-3.43h-14.83l-2.97,5.94h7.07l2.54-5.08h6.75l-5.1,10.45-12.33-1.79-.16,1.6,11.78,1.76-1.36,2.72ZM264.02,49.26l.63.09,2.28-4.66h-.62l-2.28,4.57ZM278.09,42.19c.12.31.19.64.22.96l1.02-2.09h-1.83l.1.18.82.67-.33.28Z"/>
            <path class="cls-8" d="M330.84,104.42h-16.18l29.44-42.34h-8.69l.43-6.39h12.73l1.87-2.66h16.2l-1.87,2.66h20.72l-1.26,15.08h6.83l-.53,6.39h-21.45l1.26-15.08h-10.05l-29.44,42.34ZM319.95,101.66h9.45l29.45-42.34h14.49l-1.26,15.08h15.91l.07-.86h-6.83l.9-10.83c-.17.28-.39.53-.65.75h0c-1.06.88-2.56.97-3.74.26l-.33.28-.51-.93-.82-.67.33-.28c-.5-1.28-.15-2.75.91-3.64.01,0,.02-.02.03-.03h-17.91l1.87-2.66h-9.44l-1.87,2.66h-11.58l-.06.86h11.02l-29.44,42.34ZM381.9,58.87l.52.42.07-.83h-.81l.23.41Z"/>
            <path class="cls-8" d="M332.9,77.2h-13.04l1.59-18.57h-3.1l-2.63,18.57h-13.05l2.63-18.57h-2.78l.53-6.43h3.13l1.07-7.5h-3.02l.54-6.43h33.8l-.54,6.43h-2.32l-.63,7.5h3.48l-.54,6.43h-3.54l-1.59,18.57ZM322.88,74.44h2.79l-.07-.13-.82-.67.33-.28c-.5-1.28-.15-2.75.91-3.64h0c1.06-.89,2.56-.97,3.74-.26l.33-.28.51.93.13.11,1.23-14.35h3.54l.08-.9h-3.48l1.09-13.02h2.32l.08-.9h-28.25l-.08.9h3.21l-1.86,13.02h-2.98l-.07.9h2.96l-2.63,18.57h7.47l2.63-18.57h8.51l-1.59,18.57ZM324.6,54.97h-8.54l1.86-13.02h7.77l-1.09,13.02ZM319.24,52.21h2.82l.62-7.5h-2.37l-1.07,7.5Z"/>
            <path class="cls-8" d="M443.25,77.26h-12.96l2.17-22.84h-1.47l-3.34,22.84h-12.98l5.42-37.66,29.27-1.87-.53,6.42-16.56,1.03-.4,2.83h16.64l-.53,6.4h-2.56l-2.16,22.84ZM433.32,74.5h2.92l-.1-.19-.82-.67.33-.28c-.5-1.28-.15-2.75.91-3.64,1.06-.89,2.57-.98,3.74-.26l.33-.28.53.94,1.75-18.47h2.53l.07-.87h-16.83l1.17-8.21,16.42-1.03.07-.85-23.84,1.53-4.65,32.28h7.4l3.34-22.84h6.9l-2.17,22.84Z"/>
            <path class="cls-8" d="M110.63,77.33h-53.07l1.47-10.24h53.07l-1.47,10.24ZM65.57,74.57h38.27l-.14-.26-.82-.67.33-.28c-.47-1.22-.18-2.62.77-3.51h-38.27l.15.26.82.67-.33.28c.47,1.22.18,2.62-.77,3.51ZM60.75,74.57h.24l-.19-.3-.04.3ZM108.69,70.12l.17.13.06-.4h-.37l.15.26Z"/>
            <path class="cls-8" d="M145.52,63.78l-8.99-7.54,9.59-2.32-.6,9.86ZM142.5,57.64l.59.5.04-.65-.63.15Z"/>
            <polygon class="cls-8" points="4.72 82.39 105.62 82.39 107.41 80.81 6.03 80.81 4.72 82.39"/>
            <polygon class="cls-8" points="125.14 82.39 180.91 82.39 183.78 80.81 126.84 80.81 125.14 82.39"/>
            <polygon class="cls-8" points="331.14 80.81 202.82 80.81 200.82 82.39 330.02 82.39 331.14 80.81"/>
            <polygon class="cls-8" points="347.44 80.81 346.33 82.39 500.4 82.39 500.53 80.81 347.44 80.81"/>
            <polygon class="cls-8" points="10.13 75.88 33.4 47.97 44.2 47.97 26.35 75.88 10.13 75.88"/>
            <path class="cls-8" d="M136.85,58.12c0-3.2,2.6-5.81,5.81-5.81,1.66,0,3.15.71,4.21,1.83l15.9-14.47h-7.49l-13.56,12.03-15.16-12.03h-14.51l22.9,18.02-50.48,45.68h8.2l45.6-41.5c-.87-1.02-1.42-2.32-1.42-3.76Z"/>
            <path class="cls-8" d="M171.72,39.68h-8.05l-16.42,14.94c.74.98,1.2,2.18,1.2,3.5,0,3.2-2.6,5.81-5.81,5.81-1.54,0-2.93-.61-3.97-1.59l-45.1,41.04h7.27l42.8-38.85,9.97,7.8h14.45l-17.59-13.78,21.24-18.86Z"/>
            <path class="cls-8" d="M137.47,58.12c0,2.86,2.33,5.19,5.19,5.19,2.86,0,5.19-2.33,5.19-5.19s-2.33-5.19-5.19-5.19-5.19,2.33-5.19,5.19ZM146.6,58.12c0,2.18-1.77,3.94-3.94,3.94-2.18,0-3.94-1.77-3.94-3.94,0-2.18,1.77-3.94,3.94-3.94s3.94,1.77,3.94,3.94Z"/>
            <path class="cls-8" d="M226.46,73.29l2.9-33.13h2.72s4.53,0,4.53,0h1.45s5.8,0,5.8,0h6.89s1.87,0,1.87,0l-2.96,33.13h-7.25s-1.45,0-1.45,0h-7.25s-4.59,0-4.59,0h-2.66ZM232.52,69.67h3.39l1.03-11.37h-3.39l-1.03,11.37ZM233.85,54.67h3.39l.97-10.88h-3.39l-.97,10.88ZM245.24,58.3h-3.39s-1.03,11.37-1.03,11.37h3.39l1.03-11.37ZM246.57,43.79h-3.45l-.97,10.88h3.45l.97-10.88Z"/>
            <path class="cls-8" d="M251.79,75.95l1.51-17.17h2.24s7.44,0,7.44,0h17.53l-1.51,17.17h-27.2ZM261.77,72.32h7.86l.91-9.91h-7.86l-.91,9.91Z"/>
            <path class="cls-8" d="M283.14,43.33l.31-3.66h20.77s-.31,3.66-.31,3.66h-7.27l-3.63,10.25h10.38l-2.02,22.32h-19.3l1.68-18.65h-1.98l5.09-13.92h-3.73ZM290.48,72.24h3.94l1.41-14.99h-3.94l-1.41,14.99Z"/>
            <polygon class="cls-8" points="337.92 47.88 338.65 39.66 348.8 39.66 359.57 39.66 359.81 37.24 370.93 37.24 370.69 39.66 381.21 39.66 391.18 39.66 391.37 39.66 390.64 47.88 380.48 47.88 380.91 43.29 377.08 43.29 376.53 50.06 390.22 50.06 389.91 53.69 377.1 53.69 366.94 53.69 365.49 53.69 366.34 43.29 348.5 43.29 348.2 46.79 351.22 44.74 363.8 44.74 350.5 53.69 337.92 53.69 346.57 47.88 337.92 47.88"/>
            <polygon class="cls-8" points="393.04 43.34 393.35 39.7 418.57 39.7 418.27 43.34 393.04 43.34"/>
            <path class="cls-8" d="M390.13,75.88l3.52-28.78h23.95l-1.52,17.16h-14.55l-1.46,11.62h-9.94ZM407.84,50.74h-4.67s-1.21,9.88-1.21,9.88h4.97l.91-9.88Z"/>
            <path class="cls-8" d="M451.4,75.82l-1.96-3.71,1.37-18.36,2.21-3.71h6.74l-2.21,3.71-1.37,18.36,1.96,3.71h-6.74Z"/>
            <path class="cls-8" d="M459.75,62.97l5.26-12.28h6.18l-2.67,6.24-1.37,18.24h-6.04l.91-12.2h-2.28ZM471.44,53.5l.17-2.45h1.58s6.32,0,6.32,0h12.67l-.17,2.45h-12.88l-.63,3.79h6.04s2.35,0,2.35,0h4.25l-4,11.87,3.54,2.41-.24,3.43-4.28-2.94-1.05,3.1h-6.6l2.28-6.73-3.72-2.53-1.51,9.26h-6.32l3.58-21.66h-1.37ZM477.61,62.64l4.14,2.86,1.93-5.75h-5.62l-.46,2.9Z"/>
            <path class="cls-8" d="M500.53,50.03l1.96,3.71-1.37,18.36-2.21,3.71h-6.74l2.21-3.71,1.37-18.36-1.97-3.71h6.74Z"/>
            <path class="cls-8" d="M201.14,44.63l2.24-4.84h-7.74l-2.24,4.84h-1.03s-.85,0-.85,0l-.97-4.84h-7.74l.97,4.84h-2.18s-.97-4.84-.97-4.84h-7.74s.97,4.84.97,4.84h-.36s-.91,0-.91,0l-1.69,18.56h.85s7.86,0,7.86,0h2.42l-.3,3.2h-11.12l-.3,3.63h11.12l-.54,6.04h8.71l.54-6.04h11.24l.3-3.63h-11.24l.3-3.2h2.24s7.86,0,7.86,0h.85l1.63-18.56h-.79s-1.39,0-1.39,0ZM184.02,59.56h-4.55s.36-4.3.36-4.3h4.55l-.36,4.3ZM184.69,52.25h-4.49l.36-4h4.49l-.36,4ZM193.73,59.56h-4.37l.36-4.3h4.37l-.36,4.3ZM194.39,52.25h-4.37l.36-4h4.37l-.36,4Z"/>
            <polygon class="cls-8" points="212 71.89 157.08 103.55 163.88 103.55 212 71.89"/>
            <polygon class="cls-8" points="212.1 72.89 165.85 103.55 170.31 103.55 212.1 72.89"/>
            <path class="cls-8" d="M10.36,39.68l-.64,3.71h39.74l-8.1,18.63h13.87l9.1-22.35H10.36ZM45.18,57.18c.69-.58,1.67-.54,2.35.01l-2.74,2.3c-.42-.76-.3-1.73.4-2.31ZM47.57,60.03c-.69.58-1.67.54-2.35-.01l2.74-2.3c.42.76.3,1.73-.4,2.31Z"/>
            <path class="cls-8" d="M66.87,39.66l-1.06,7.26h44.96l1.06-7.26h-44.96ZM69.07,41.87c.69-.58,1.67-.54,2.35.01l-2.74,2.3c-.42-.76-.3-1.73.4-2.31ZM71.47,44.72c-.69.58-1.67.54-2.35-.01l2.74-2.3c.42.76.3,1.73-.4,2.31ZM106.15,41.87c.69-.58,1.67-.54,2.35.01l-2.74,2.3c-.42-.76-.3-1.73.4-2.31ZM108.54,44.72c-.69.58-1.67.54-2.35-.01l2.74-2.3c.42.76.3,1.73-.4,2.31Z"/>
            <path class="cls-8" d="M226.47,48.92h-8.65l-2.11-9.13h-10.64s2.12,9.13,2.12,9.13h-3.17l-.3,3.63h4.32l3.14,13.78-65.81,37.23h8.77l58.01-32.93,1.27,5.44h10.64l-2.48-10.64,3.63-2,.42-5.08-5.02,2.78-1.93-8.58h7.5l.3-3.63ZM221.04,71.32c.42.76.3,1.73-.4,2.31-.69.58-1.67.54-2.35-.01l2.74-2.3ZM220.6,70.8l-2.74,2.3c-.42-.76-.3-1.73.4-2.31.69-.58,1.67-.54,2.35.01Z"/>
            <path class="cls-8" d="M281.53,39.68h-24.42l-4.35,8.71h10.16l2.54-5.08h3.69l-3.69,7.56-12.77-1.85-.42,4.35,11.19,1.68-1.51,3.02h10.64l.79-1.63,7.35.85.46-4.35-5.81-.6,6.17-12.64ZM273.9,41.92c.69-.58,1.67-.54,2.35.01l-2.74,2.3c-.42-.76-.3-1.73.4-2.31ZM273.95,44.75l2.74-2.3c.42.76.3,1.73-.4,2.31-.69.58-1.67.54-2.35-.01Z"/>
            <path class="cls-8" d="M382.73,72.15l1.26-15.08h-21.88s1.87-2.66,1.87-2.66h-12.82l-1.87,2.66h-12.15s-.24,3.63-.24,3.63h9.85s-29.44,42.34-29.44,42.34h12.82l29.45-42.34h12.27l-1.26,15.08h18.68l.3-3.63h-6.83ZM378.21,59.54c.69-.58,1.67-.54,2.35.01l-2.74,2.3c-.42-.76-.3-1.73.4-2.31ZM380.6,62.39c-.69.58-1.67.54-2.35-.01l2.74-2.3c.42.76.3,1.73-.4,2.31Z"/>
            <path class="cls-8" d="M334.44,43.33h2.32l.31-3.66h-31.03s-.31,3.66-.31,3.66h3.12l-1.47,10.26h-3.05l-.3,3.66h2.87l-2.63,18.57h10.26l2.63-18.57h5.8l-1.59,18.57h10.26s1.59-18.57,1.59-18.57h3.54s.31-3.66.31-3.66h-3.48l.86-10.26ZM323.33,53.59h-5.68l1.47-10.26h5.07l-.85,10.26ZM326.9,70.79c.69-.58,1.67-.54,2.35.01l-2.74,2.3c-.42-.76-.3-1.73.4-2.31ZM329.29,73.64c-.69.58-1.67.54-2.35-.01l2.74-2.3c.42.76.3,1.73-.4,2.31Z"/>
            <path class="cls-8" d="M447.55,42.86l.3-3.64-26.56,1.7-5.03,34.97h10.19s3.34-22.84,3.34-22.84h4.18l-2.17,22.84h10.19l2.16-22.84h2.55l.3-3.64h-16.73l.79-5.52,16.49-1.03ZM439.83,73.64c-.69.58-1.67.54-2.35-.01l2.74-2.3c.42.76.3,1.73-.4,2.31ZM437.44,70.79c.69-.58,1.67-.54,2.35.01l-2.74,2.3c-.42-.76-.3-1.73.4-2.31Z"/>
            <path class="cls-8" d="M60.23,68.47l-1.07,7.48h50.28l1.08-7.48h-50.28ZM62.15,70.79c.69-.58,1.67-.54,2.35.01l-2.74,2.3c-.42-.76-.3-1.73.4-2.31ZM64.54,73.64c-.69.58-1.67.54-2.35-.01l2.74-2.3c.42.76.3,1.73-.4,2.31ZM104.99,70.79c.69-.58,1.67-.54,2.35.01l-2.74,2.3c-.42-.76-.3-1.73.4-2.31ZM107.38,73.64c-.69.58-1.67.54-2.35-.01l2.74-2.3c.42.76.3,1.73-.4,2.31Z"/>
            <path class="cls-8" d="M139.51,56.94l5.11-1.23-.32,5.25-4.79-4.02Z"/>
          </g>
          <g>
            <g>
              <g>
                <polygon class="cls-8" points="104.35 81.98 0 81.98 3.58 77.64 109.29 77.64 104.35 81.98"/>
                <polygon class="cls-8" points="179.48 81.98 119.83 81.98 124.51 77.64 187.38 77.64 179.48 81.98"/>
                <polygon class="cls-8" points="328.94 81.98 195.04 81.98 200.55 77.64 332.02 77.64 328.94 81.98"/>
                <polygon class="cls-8" points="499.88 81.98 341.89 81.98 344.93 77.64 500.24 77.64 499.88 81.98"/>
              </g>
              <path class="cls-8" d="M25.32,75.47H5.38l25.58-30.67h13.97l-19.61,30.67ZM11.29,72.71h12.52l16.08-25.14h-7.63l-20.97,25.14Z"/>
              <g>
                <path class="cls-8" d="M91.42,102.97h-12.32l51.92-46.99-24.75-19.47h18.98l14.63,11.61,13.08-11.61h11.58l-19.54,17.79-.93-.99c-.85-.9-1.99-1.4-3.21-1.4-2.44,0-4.42,1.98-4.42,4.42,0,1.32.59,2.28,1.09,2.86l.87,1.02-46.98,42.76ZM86.27,100.21h4.08l44.3-40.32c-.48-.82-.79-1.72-.91-2.65l-47.47,42.96ZM114.25,39.27l19.61,15.43c.49-2.11,1.91-3.87,3.81-4.81l-13.39-10.62h-10.04ZM142.64,49.37c.87.22,1.69.61,2.42,1.14l12.35-11.24h-3.39l-11.38,10.09Z"/>
                <path class="cls-8" d="M99.6,102.97h-11.37l48.69-44.31.93.88c.83.78,1.9,1.21,3.02,1.21,2.44,0,4.42-1.98,4.42-4.42,0-.95-.32-1.87-.92-2.66l-.77-1.01,17.75-16.16h12.22l-22.72,20.18,19.44,15.23h-18.93l-9.43-7.37-42.33,38.43ZM95.37,100.21h3.16l40.64-36.89c-.78-.19-1.53-.52-2.21-.96l-41.59,37.85ZM152.31,69.15h9.97l-14.4-11.28c-.47,2.13-1.88,3.9-3.77,4.87l8.2,6.41ZM147.25,53.08c.4.77.65,1.59.75,2.44l18.29-16.24h-3.87l-15.17,13.8Z"/>
                <path class="cls-8" d="M140.87,62.91c-3.62,0-6.57-2.95-6.57-6.57s2.95-6.57,6.57-6.57,6.57,2.95,6.57,6.57-2.95,6.57-6.57,6.57ZM140.87,53.77c-1.41,0-2.56,1.15-2.56,2.56s1.15,2.56,2.56,2.56,2.56-1.15,2.56-2.56-1.15-2.56-2.56-2.56Z"/>
              </g>
              <path class="cls-8" d="M249.15,72.88h-25.99l3.14-35.89h26.05l-3.21,35.89ZM226.18,70.12h20.44l2.72-30.36h-20.5l-2.66,30.36ZM243.69,69.26h-6.17l1.28-14.13h6.16l-1.27,14.13ZM240.55,66.49h.62l.78-8.6h-.62l-.78,8.6ZM235.39,69.26h-6.16l1.28-14.13h6.16l-1.28,14.13ZM232.25,66.49h.62l.78-8.6h-.62l-.78,8.6ZM245.08,54.26h-6.22l1.21-13.64h6.22l-1.21,13.64ZM241.87,51.5h.68l.72-8.12h-.68l-.72,8.12ZM236.72,54.26h-6.17l1.21-13.64h6.17l-1.21,13.64ZM233.57,51.5h.62l.72-8.12h-.62l-.72,8.12Z"/>
              <path class="cls-8" d="M278.47,75.54h-29.98l1.75-19.93h29.98l-1.75,19.93ZM251.51,72.78h24.43l1.27-14.4h-24.43l-1.27,14.4ZM269.1,71.92h-10.63l1.16-12.68h10.63l-1.16,12.68ZM261.49,69.15h5.09l.65-7.15h-5.09l-.65,7.15Z"/>
              <path class="cls-8" d="M300.84,75.49h-22.07l1.68-18.65h-2.44l5.09-13.92h-3.25l.54-6.43h23.54l-.54,6.43h-7.56l-2.65,7.49h9.94l-2.27,25.08ZM281.79,72.73h16.52l1.77-19.55h-10.83l4.61-13.02h6.97l.08-.9h-17.99l-.08.9h4.2l-5.09,13.92h1.51l-1.68,18.65ZM293.88,71.83h-6.71l1.66-17.75h6.71l-1.66,17.75ZM290.21,69.07h1.16l1.15-12.23h-1.16l-1.15,12.23Z"/>
              <path class="cls-8" d="M389.39,53.28h-27.19l.76-9.3-.18.12-13.65,9.18h-17.53l8.64-5.8h-5.62l.97-10.99h20.93l.24-2.42h13.9l-.24,2.42h20.66l-.97,10.99h-.24l-.48,5.8ZM365.2,50.51h21.65l.07-.87h-13.68l.77-9.53h6.62l-.42,4.59h7.38l.48-5.46h-20.69l.24-2.42h-8.35l-.24,2.42h-20.9l-.48,5.46h7.41l.39-4.59h20.6l-.12,1.45h.61l-.64.43-.69,8.51ZM340.67,50.51h7.62l9.19-6.18h-7.62l-.56.38h.02l-4.53,3.07v-.03s-4.12,2.77-4.12,2.77ZM376.24,46.89h.99l.37-4.01h-1.04l-.32,4.01Z"/>
              <g>
                <path class="cls-8" d="M417.75,42.93h-28l.53-6.4h28l-.53,6.4ZM392.76,40.17h22.45l.07-.87h-22.45l-.07.87Z"/>
                <path class="cls-8" d="M399.51,75.47h-12.72l3.85-31.54h26.68l-1.76,19.92h-14.6l-1.46,11.62ZM389.9,72.71h7.16l1.46-11.62h14.51l1.27-14.39h-21.22l-3.18,26.02ZM406.4,60.21h-7.79l1.55-12.65h7.41l-1.16,12.65ZM401.73,57.45h2.15l.66-7.12h-1.93l-.87,7.12Z"/>
              </g>
              <g>
                <path class="cls-8" d="M458.64,75.41h-9.86l-2.54-4.8,1.42-19.08,2.78-4.67h9.95l-3.29,5.52-1.31,17.64,2.85,5.39ZM450.44,72.64h3.61l-1.08-2.04,1.42-19.08,1.13-1.9h-3.52l-1.64,2.76-1.31,17.64,1.39,2.62Z"/>
                <path class="cls-8" d="M489.84,75.71l-4.77-3.27-.78,2.31h-26.45l.91-12.2h-2.89l6.45-15.04h9.18l-.16.37h20.53l-.37,5.21h-12.99l-.17,1.03h12.93l-4.28,12.7,3.33,2.26-.47,6.63ZM476.27,66.47l-1.21,7.41,2.27-6.69-1.06-.72ZM478.63,71.99h3.68l1.32-3.89,3.8,2.61.02-.23-3.75-2.55,3.72-11.04h-3.7l-3.02,9-6.37-4.39,1.79-10.85h-3.52l-3.53,21.35h3.51l1.67-10.24,6.38,4.34-2,5.9ZM460.82,71.99h3.27l1.29-17.19,1.93-4.53h-3.17l-4.08,9.52h1.67l-.91,12.2ZM468.09,55.47l-.75,9.97,2.04-12.34h-.28l-1.02,2.38ZM477.32,60.2l1.92,1.32.74-2.19h-2.51l-.14.87Z"/>
                <path class="cls-8" d="M497.91,75.41h-9.95l3.29-5.52,1.32-17.64-2.85-5.39h9.86l2.54,4.8-1.42,19.08-2.78,4.67ZM492.81,72.64h3.52l1.64-2.76,1.31-17.64-1.39-2.62h-3.61l1.08,2.04-1.42,19.08-1.13,1.9Z"/>
              </g>
              <path class="cls-8" d="M189.07,75.65h-11.48l.54-6.04h-11.11l.53-6.39h11.14l.04-.44h-11.12l1.94-21.32h.84l-.96-4.84h20.47l.92,4.62,2.14-4.62h10.78l-2.24,4.84h1.52l-1.87,21.32h-10.95l-.04.44h11.23l-.53,6.39h-11.25l-.54,6.04ZM180.61,72.89h5.93l.54-6.04h11.24l.07-.86h-11.26l.56-5.97h10.94l1.39-15.8h-2.83l2.24-4.84h-4.69l-2.24,4.84h-3.89l-.97-4.84h-4.92l.97,4.84h-5l-.97-4.84h-4.92l.96,4.84h-1.69l-1.44,15.8h11.13l-.56,5.97h-11.11l-.07.86h11.13l-.54,6.04ZM193.21,59.15h-7.15l.6-7.07h7.14l-.59,7.07ZM189.07,56.39h1.6l.13-1.54h-1.6l-.13,1.54ZM183.5,59.15h-7.32l.6-7.07h7.32l-.6,7.07ZM179.19,56.39h1.78l.13-1.54h-1.78l-.13,1.54ZM193.86,51.85h-7.15l.61-6.77h7.15l-.61,6.77ZM189.74,49.08h1.6l.11-1.24h-1.6l-.11,1.24ZM184.16,51.85h-7.27l.61-6.77h7.26l-.61,6.77ZM179.92,49.08h1.72l.11-1.24h-1.72l-.11,1.24Z"/>
              <path class="cls-8" d="M162.5,103.14h-12.38l59.4-34.24,1.45,2.35-48.47,31.89ZM160.45,100.38h1.22l8.66-5.7-9.89,5.7Z"/>
              <polygon class="cls-8" points="168.97 103.14 159.48 103.14 209.55 69.95 211.13 72.21 168.97 103.14"/>
              <path class="cls-8" d="M54.38,61.62h-16.9l8.1-18.63H6.3l1.11-6.48h57.19l-10.22,25.11ZM47.1,58.85h5.42l7.97-19.58H9.74l-.16.95h40.21l-5.83,13.42c.77-.15,1.59,0,2.29.42l.33-.28.51.93.82.67-.33.28c.42,1.08.23,2.31-.48,3.2ZM41.69,58.85h.33l-.25-.2-.09.2Z"/>
              <path class="cls-8" d="M110.17,46.51h-47.75l1.46-10.02h47.75l-1.46,10.02ZM70.81,43.75h32.32l-.08-.15-.82-.67.33-.28c-.46-1.17-.2-2.5.66-3.4h-32.32l.08.15.82.67-.33.28c.46,1.17.2,2.5-.66,3.4ZM65.61,43.75h.45l-.08-.15-.31-.25-.06.4ZM108.05,39.4l.32.26.06-.41h-.46l.08.15Z"/>
              <path class="cls-8" d="M152.7,103.14h-14.38l69.49-39.3-2.67-11.71h-4.72l.53-6.39h2.71l-2.12-9.13h13.48l2.11,9.13h9.05l-.53,6.39h-7.04l1.15,5.1,5.67-3.14-.7,8.39-3.36,1.85,2.64,11.31h-13.48l-1.1-4.71-56.72,32.2ZM148.82,100.38h3.15l59.31-33.67,1.44,6.17h2.64l-.2-.37-.82-.67.33-.28c-.5-1.28-.15-2.75.91-3.64,1.05-.88,2.56-.97,3.73-.27l-1.11-4.75,3.9-2.14.15-1.76-4.37,2.42-2.72-12.07h7.95l.07-.86h-8.24l-2.11-9.13h-7.8l2.12,9.13h-3.64l-.07.86h3.92l3.62,15.86-62.14,35.15ZM219.76,72.89h.76l-.16-.69c-.16.25-.36.48-.6.69Z"/>
              <path class="cls-8" d="M271.67,57.65h-13.74l1.66-3.32-10.61-1.59.46-4.76h-.7l.87-1.75.06-.59.22.03,4.58-9.17h27.49l-6.27,12.85,5.23.54-.75,7.11-7.76-.89-.74,1.53ZM262.39,54.89h7.54l.84-1.74,6.94.8.17-1.59-6.4-.67,3.63-7.45c-1.03.68-2.38.7-3.45.05l-.33.28-.51-.93-.82-.67.33-.28c-.46-1.18-.19-2.54.69-3.43h-14.83l-2.97,5.94h7.07l2.54-5.08h6.75l-5.1,10.45-12.33-1.79-.16,1.6,11.78,1.76-1.36,2.72ZM262.23,47.47l.63.09,2.28-4.66h-.62l-2.28,4.57ZM276.3,40.4c.12.31.19.64.22.96l1.02-2.09h-1.83l.1.18.82.67-.33.28Z"/>
              <path class="cls-8" d="M329.05,102.63h-16.18l29.44-42.34h-8.69l.43-6.39h12.73l1.87-2.66h16.2l-1.87,2.66h20.72l-1.26,15.08h6.83l-.53,6.39h-21.45l1.26-15.08h-10.05l-29.44,42.34ZM318.16,99.87h9.45l29.45-42.34h14.49l-1.26,15.08h15.91l.07-.86h-6.83l.9-10.83c-.17.28-.39.53-.65.75-1.06.88-2.57.97-3.74.26l-.33.28-.51-.93-.82-.67.33-.28c-.5-1.28-.15-2.75.91-3.64.01,0,.02-.02.03-.03h-17.91l1.87-2.66h-9.44l-1.87,2.66h-11.58l-.06.86h11.02l-29.44,42.34ZM380.11,57.08l.51.42.07-.83h-.81l.23.41Z"/>
              <path class="cls-8" d="M331.11,75.41h-13.04l1.59-18.57h-3.1l-2.63,18.57h-13.05l2.63-18.57h-2.78l.53-6.43h3.13l1.07-7.5h-3.02l.54-6.43h33.8l-.54,6.43h-2.32l-.63,7.5h3.48l-.54,6.43h-3.54l-1.59,18.57ZM321.09,72.65h2.79l-.07-.13-.82-.67.33-.28c-.5-1.28-.15-2.75.91-3.64,1.06-.89,2.56-.97,3.74-.26l.33-.28.51.93.13.1,1.23-14.35h3.54l.08-.9h-3.48l1.09-13.02h2.32l.08-.9h-28.25l-.08.9h3.21l-1.86,13.02h-2.98l-.07.9h2.96l-2.63,18.57h7.47l2.63-18.57h8.51l-1.59,18.57ZM322.81,53.18h-8.54l1.86-13.02h7.77l-1.09,13.02ZM317.45,50.42h2.82l.62-7.5h-2.37l-1.07,7.5Z"/>
              <path class="cls-8" d="M441.46,75.47h-12.96l2.17-22.84h-1.47l-3.34,22.84h-12.98l5.42-37.66,29.27-1.87-.53,6.42-16.56,1.04-.4,2.83h16.64l-.53,6.4h-2.56l-2.16,22.84ZM431.53,72.71h2.92l-.1-.19-.82-.67.33-.28c-.5-1.28-.15-2.75.91-3.64,1.06-.88,2.56-.97,3.74-.26l.33-.28.53.94,1.75-18.47h2.53l.07-.87h-16.83l1.17-8.21,16.42-1.03.07-.85-23.84,1.52-4.65,32.28h7.4l3.34-22.84h6.9l-2.17,22.84Z"/>
              <path class="cls-8" d="M108.84,75.54h-53.07l1.47-10.24h53.07l-1.47,10.24ZM63.78,72.78h38.27l-.14-.26-.82-.67.33-.28c-.48-1.22-.18-2.61.77-3.51h-38.27l.14.26.82.67-.33.28c.47,1.22.18,2.61-.77,3.51ZM58.96,72.78h.24l-.19-.3-.04.3ZM106.9,68.33l.17.14.06-.4h-.37l.14.26Z"/>
              <path class="cls-8" d="M143.73,61.99l-8.99-7.54,9.58-2.32-.6,9.86ZM140.71,55.85l.59.5.04-.65-.63.15Z"/>
            </g>
            <g>
              <g>
                <polygon class="cls-7" points="2.93 80.6 103.83 80.6 105.62 79.02 4.24 79.02 2.93 80.6"/>
                <polygon class="cls-7" points="123.35 80.6 179.12 80.6 181.99 79.02 125.05 79.02 123.35 80.6"/>
                <polygon class="cls-7" points="329.34 79.02 201.03 79.02 199.03 80.6 328.23 80.6 329.34 79.02"/>
                <polygon class="cls-7" points="345.65 79.02 344.54 80.6 498.61 80.6 498.74 79.02 345.65 79.02"/>
              </g>
              <polygon class="cls-7" points="8.34 74.09 31.61 46.18 42.41 46.18 24.56 74.09 8.34 74.09"/>
              <g>
                <path class="cls-14" d="M135.06,56.33c0-3.2,2.6-5.81,5.81-5.81,1.66,0,3.15.71,4.21,1.83l15.9-14.47h-7.49l-13.56,12.03-15.16-12.03h-14.51l22.9,18.02-50.48,45.68h8.2l45.6-41.5c-.87-1.02-1.42-2.32-1.42-3.76Z"/>
                <path class="cls-14" d="M169.93,37.89h-8.05l-16.42,14.94c.74.98,1.2,2.18,1.2,3.5,0,3.2-2.6,5.81-5.81,5.81-1.54,0-2.93-.61-3.97-1.59l-45.1,41.04h7.27l42.8-38.85,9.97,7.8h14.45l-17.59-13.78,21.24-18.86Z"/>
                <path class="cls-14" d="M135.68,56.33c0,2.86,2.33,5.19,5.19,5.19,2.86,0,5.19-2.33,5.19-5.19s-2.33-5.19-5.19-5.19-5.19,2.33-5.19,5.19ZM144.81,56.33c0,2.18-1.77,3.94-3.94,3.94-2.18,0-3.94-1.77-3.94-3.94,0-2.18,1.77-3.94,3.94-3.94s3.94,1.77,3.94,3.94Z"/>
              </g>
              <path class="cls-11" d="M224.67,71.5l2.9-33.13h2.72s4.53,0,4.53,0h1.45s5.8,0,5.8,0h6.89s1.87,0,1.87,0l-2.96,33.13h-7.25s-1.45,0-1.45,0h-14.51ZM230.73,67.88h3.39l1.03-11.37h-3.39l-1.03,11.37ZM232.06,52.88h3.39l.97-10.88h-3.39l-.97,10.88ZM243.45,56.51h-3.39s-1.03,11.37-1.03,11.37h3.39l1.03-11.37ZM244.78,42h-3.45l-.97,10.88h3.45l.97-10.88Z"/>
              <path class="cls-15" d="M250,74.16l1.51-17.17h2.24s7.44,0,7.44,0h17.53l-1.51,17.17h-27.2ZM259.97,70.53h7.86l.91-9.91h-7.86l-.91,9.91Z"/>
              <path class="cls-4" d="M281.35,41.54l.31-3.66h20.77s-.31,3.66-.31,3.66h-7.27l-3.63,10.25h10.38l-2.02,22.32h-19.3l1.68-18.65h-1.98l5.09-13.92h-3.73ZM288.69,70.45h3.94l1.41-14.99h-3.94l-1.41,14.99Z"/>
              <polygon class="cls-2" points="336.13 46.09 336.86 37.87 347.01 37.87 357.78 37.87 358.02 35.45 369.14 35.45 368.9 37.87 379.42 37.87 389.39 37.87 389.57 37.87 388.85 46.09 378.69 46.09 379.12 41.5 375.29 41.5 374.74 48.27 388.43 48.27 388.12 51.9 375.31 51.9 365.15 51.9 363.7 51.9 364.55 41.5 346.71 41.5 346.41 45 349.43 42.95 362.01 42.95 348.71 51.9 336.13 51.9 344.78 46.09 336.13 46.09"/>
              <g>
                <polygon class="cls-12" points="391.25 41.55 391.56 37.91 416.78 37.91 416.48 41.55 391.25 41.55"/>
                <path class="cls-12" d="M388.34,74.09l3.52-28.78h23.95l-1.52,17.16h-14.55l-1.46,11.62h-9.94ZM406.05,48.95h-4.67s-1.21,9.88-1.21,9.88h4.97l.91-9.88Z"/>
              </g>
              <g>
                <path class="cls-13" d="M449.61,74.03l-1.96-3.71,1.37-18.36,2.21-3.71h6.74l-2.21,3.71-1.37,18.36,1.96,3.71h-6.74Z"/>
                <path class="cls-13" d="M457.96,61.17l5.26-12.28h6.18l-2.67,6.24-1.37,18.24h-6.04l.91-12.2h-2.28ZM469.65,51.71l.17-2.45h1.58s6.32,0,6.32,0h12.67l-.17,2.45h-12.88l-.63,3.79h6.04s2.35,0,2.35,0h4.25l-4,11.87,3.54,2.41-.24,3.43-4.28-2.94-1.05,3.1h-6.6l2.28-6.73-3.72-2.53-1.51,9.26h-6.32l3.58-21.66h-1.37ZM475.82,60.85l4.14,2.86,1.93-5.75h-5.62l-.46,2.9Z"/>
                <path class="cls-13" d="M498.74,48.24l1.96,3.71-1.37,18.36-2.21,3.71h-6.74l2.21-3.71,1.37-18.36-1.97-3.71h6.74Z"/>
              </g>
              <path class="cls-18" d="M199.35,42.83l2.24-4.84h-7.74l-2.24,4.84h-1.03s-.85,0-.85,0l-.97-4.84h-7.74l.97,4.84h-2.18s-.97-4.84-.97-4.84h-7.74s.97,4.84.97,4.84h-.36s-.91,0-.91,0l-1.69,18.56h.85s7.86,0,7.86,0h2.42l-.3,3.2h-11.12l-.3,3.63h11.12l-.54,6.04h8.71l.54-6.04h11.24l.3-3.63h-11.24l.3-3.2h2.24s7.86,0,7.86,0h.85l1.63-18.56h-.79s-1.39,0-1.39,0ZM182.23,57.77h-4.55s.36-4.3.36-4.3h4.55l-.36,4.3ZM182.9,50.46h-4.49l.36-4h4.49l-.36,4ZM191.94,57.77h-4.37l.36-4.3h4.37l-.36,4.3ZM192.6,50.46h-4.37l.36-4h4.37l-.36,4Z"/>
              <polygon class="cls-10" points="210.21 70.1 155.29 101.76 162.09 101.76 210.21 70.1"/>
              <polygon class="cls-13" points="210.31 71.1 164.06 101.76 168.52 101.76 210.31 71.1"/>
              <path class="cls-6" d="M8.57,37.89l-.64,3.71h39.74l-8.1,18.63h13.87l9.1-22.35H8.57ZM43.39,55.39c.69-.58,1.67-.54,2.35.01l-2.74,2.3c-.42-.76-.3-1.73.4-2.31ZM45.78,58.24c-.69.58-1.67.54-2.35-.01l2.74-2.3c.42.76.3,1.73-.4,2.31Z"/>
              <path class="cls-9" d="M65.08,37.87l-1.06,7.26h44.96l1.06-7.26h-44.96ZM67.28,40.08c.69-.58,1.67-.54,2.35.01l-2.74,2.3c-.42-.76-.3-1.73.4-2.31ZM69.67,42.93c-.69.58-1.67.54-2.35-.01l2.74-2.3c.42.76.3,1.73-.4,2.31ZM104.36,40.08c.69-.58,1.67-.54,2.35.01l-2.74,2.3c-.42-.76-.3-1.73.4-2.31ZM106.75,42.93c-.69.58-1.67.54-2.35-.01l2.74-2.3c.42.76.3,1.73-.4,2.31Z"/>
              <path class="cls-3" d="M224.68,47.13h-8.65l-2.11-9.13h-10.64s2.12,9.13,2.12,9.13h-3.17l-.3,3.63h4.32l3.14,13.78-65.81,37.23h8.77l58.01-32.93,1.27,5.44h10.64l-2.48-10.64,3.63-2,.42-5.08-5.02,2.78-1.93-8.58h7.5l.3-3.63ZM219.25,69.53c.42.76.3,1.73-.4,2.31-.69.58-1.67.54-2.35-.01l2.74-2.3ZM218.81,69.01l-2.74,2.3c-.42-.76-.3-1.73.4-2.31.69-.58,1.67-.54,2.35.01Z"/>
              <path class="cls-15" d="M279.74,37.89h-24.42l-4.35,8.71h10.16l2.54-5.08h3.69l-3.69,7.56-12.77-1.85-.42,4.35,11.19,1.68-1.51,3.02h10.64l.79-1.63,7.35.85.46-4.35-5.81-.6,6.17-12.64ZM272.11,40.13c.69-.58,1.67-.54,2.35.01l-2.74,2.3c-.42-.76-.3-1.73.4-2.31ZM272.16,42.96l2.74-2.3c.42.76.3,1.73-.4,2.31-.69.58-1.67.54-2.35-.01Z"/>
              <path class="cls-17" d="M380.94,70.36l1.26-15.08h-21.88s1.87-2.66,1.87-2.66h-12.82l-1.87,2.66h-12.15s-.24,3.63-.24,3.63h9.85s-29.44,42.34-29.44,42.34h12.82l29.45-42.34h12.27l-1.26,15.08h18.68l.3-3.63h-6.83ZM376.42,57.75c.69-.58,1.67-.54,2.35.01l-2.74,2.3c-.42-.76-.3-1.73.4-2.31ZM378.81,60.6c-.69.58-1.67.54-2.35-.01l2.74-2.3c.42.76.3,1.73-.4,2.31Z"/>
              <path class="cls-1" d="M332.65,41.54h2.32l.31-3.66h-31.03s-.31,3.66-.31,3.66h3.12l-1.47,10.26h-3.05l-.3,3.66h2.87l-2.63,18.57h10.26l2.63-18.57h5.8l-1.59,18.57h10.26s1.59-18.57,1.59-18.57h3.54s.31-3.66.31-3.66h-3.48l.86-10.26ZM321.54,51.8h-5.68l1.47-10.26h5.07l-.85,10.26ZM325.11,69c.69-.58,1.67-.54,2.35.01l-2.74,2.3c-.42-.76-.3-1.73.4-2.31ZM327.5,71.85c-.69.58-1.67.54-2.35-.01l2.74-2.3c.42.76.3,1.73-.4,2.31Z"/>
              <path class="cls-5" d="M445.76,41.07l.3-3.64-26.56,1.7-5.03,34.97h10.19s3.34-22.84,3.34-22.84h4.18l-2.17,22.84h10.19l2.16-22.84h2.55l.3-3.64h-16.73l.79-5.52,16.49-1.03ZM438.04,71.85c-.69.58-1.67.54-2.35-.01l2.74-2.3c.42.76.3,1.73-.4,2.31ZM435.65,69c.69-.58,1.67-.54,2.35.01l-2.74,2.3c-.42-.76-.3-1.73.4-2.31Z"/>
              <path class="cls-16" d="M58.44,66.68l-1.07,7.48h50.28l1.08-7.48h-50.28ZM60.36,69c.69-.58,1.67-.54,2.35.01l-2.74,2.3c-.42-.76-.3-1.73.4-2.31ZM62.75,71.85c-.69.58-1.67.54-2.35-.01l2.74-2.3c.42.76.3,1.73-.4,2.31ZM103.2,69c.69-.58,1.67-.54,2.35.01l-2.74,2.3c-.42-.76-.3-1.73.4-2.31ZM105.59,71.85c-.69.58-1.67.54-2.35-.01l2.74-2.3c.42.76.3,1.73-.4,2.31Z"/>
              <path class="cls-14" d="M137.72,55.15l5.11-1.23-.32,5.25-4.79-4.02Z"/>
            </g>
          </g>
        </g>
      </g>
    </g>
  </g>
</svg>