<?xml version="1.0" encoding="UTF-8"?>
<svg id="_レイヤー_2" data-name="レイヤー 2" xmlns="http://www.w3.org/2000/svg" viewBox="0 0 302.34 65.83">
  <defs>
    <style>
      .cls-1 {
        fill: #a54393;
      }

      .cls-2 {
        fill: #009fe8;
      }

      .cls-3 {
        fill: #946134;
      }

      .cls-4 {
        fill: #910782;
      }

      .cls-5 {
        fill: #009844;
      }

      .cls-6 {
        fill: #ef8200;
      }

      .cls-7 {
        fill: #e73828;
      }

      .cls-8 {
        fill: #231815;
      }

      .cls-9 {
        fill: #44af35;
      }

      .cls-10 {
        fill: #b28146;
      }

      .cls-11 {
        fill: #036eb7;
      }

      .cls-12 {
        fill: #00a85f;
      }

      .cls-13 {
        fill: #c79f62;
      }

      .cls-14 {
        fill: #e50012;
      }

      .cls-15 {
        fill: #5084c4;
      }

      .cls-16 {
        fill: #00913a;
      }

      .cls-17 {
        fill: #0080cb;
      }

      .cls-18 {
        fill: #804f21;
      }
    </style>
  </defs>
  <g id="_文字" data-name="文字">
    <g>
      <g>
        <path d="M110.74,9.83l-.47-9.83h2.29v.38c.44-.13.87-.23,1.27-.29.4-.06.77-.09,1.1-.09.67,0,1.24.1,1.7.3.46.2.8.45,1.04.77s.35.66.35,1.03-.08.74-.24,1.13c-.16.4-.44.77-.85,1.13s-.97.67-1.7.93c-.73.26-1.66.44-2.79.53l-.09,4.01h-1.61ZM112.45,5.57c.69-.13,1.25-.34,1.69-.62.44-.28.78-.59,1.03-.93.24-.34.41-.68.51-1.02s.14-.63.14-.87c0-.34-.16-.64-.47-.89-.32-.25-.85-.37-1.59-.37-.18,0-.37,0-.57.02-.2.01-.42.04-.64.08l-.1,4.6Z"/>
        <path d="M119.45,9.83l-.45-7.02h2.22l-.04,1.25c.19-.25.43-.48.71-.7.28-.21.58-.39.9-.52.32-.13.65-.2.98-.2v1.85c-.17-.09-.35-.16-.56-.21s-.42-.07-.64-.07c-.26,0-.52.03-.77.09s-.46.15-.63.27l-.16,5.24h-1.55Z"/>
        <path d="M131.67,6.33c0,.55-.11,1.06-.34,1.51-.23.45-.53.83-.89,1.15-.37.32-.77.56-1.2.74-.43.17-.84.26-1.25.26s-.82-.09-1.25-.26c-.43-.17-.83-.42-1.2-.74s-.68-.7-.91-1.15-.35-.95-.35-1.51.12-1.06.35-1.51.53-.84.91-1.17.78-.57,1.2-.74c.43-.17.84-.26,1.25-.26s.82.09,1.25.26c.43.17.83.42,1.2.74.37.32.67.71.89,1.17.23.45.34.96.34,1.51ZM128.37,9.07c.44,0,.79-.16,1.02-.49.23-.32.35-.91.35-1.76,0-.76-.12-1.37-.35-1.85-.23-.48-.51-.83-.84-1.05-.33-.22-.64-.33-.94-.33s-.55.07-.76.2-.37.36-.48.69-.16.77-.16,1.34c0,.51.07.97.21,1.37s.32.75.54,1.03c.22.28.45.49.7.64.25.14.48.21.71.21Z"/>
        <path d="M140.63,8.82c-.36.34-.7.62-1.03.84-.32.22-.61.33-.86.33-.2,0-.37-.09-.51-.26-.14-.18-.24-.48-.3-.91-.31.34-.71.62-1.2.84-.49.22-1.04.33-1.66.33-.8,0-1.39-.25-1.78-.75-.39-.5-.59-1.19-.59-2.09,0-2.31,1.65-3.77,4.94-4.37l-.13-2.78h2.21l-.18,7.65v.34c0,.3.03.52.08.65.05.13.18.2.38.2.07,0,.15,0,.25-.02.1-.02.2-.04.32-.06l.05.08ZM137.67,3.38c-1.09.46-1.88,1-2.36,1.63-.48.62-.72,1.31-.72,2.05,0,.57.1.99.29,1.25s.47.39.84.39.72-.05,1.07-.15c.34-.1.7-.24,1.09-.43l-.21-4.74Z"/>
        <path d="M148.9,8.82c-.36.34-.7.62-1.02.84-.32.22-.6.33-.84.33-.21,0-.38-.1-.52-.31-.14-.21-.23-.56-.27-1.06-.17.26-.39.49-.68.7-.29.21-.59.37-.92.48-.33.12-.64.18-.93.18-.51,0-.91-.09-1.2-.28s-.49-.46-.62-.81-.21-.8-.25-1.34l-.33-4.74h2.16l-.2,4.64v.15c0,.37.08.64.23.81s.43.25.84.25c.24,0,.52-.06.87-.19s.67-.34.98-.63l-.34-5.03h2.14l-.18,4.84v.34c0,.3.03.52.08.65.05.13.18.2.38.2.07,0,.15,0,.25-.02s.2-.04.32-.06l.05.08Z"/>
        <path d="M156.25,9.99c-1.29,0-2.37-.06-3.24-.18s-1.55-.31-2.05-.58c-.5-.27-.87-.62-1.08-1.06-.22-.44-.33-.97-.33-1.6,0-.81.13-1.52.39-2.1.26-.59.62-1.04,1.07-1.35.45-.31.96-.47,1.52-.47.76,0,1.46.08,2.07.25.62.16,1.13.36,1.54.6l-.81,1.68c-.51-.51-.97-.91-1.37-1.19-.4-.28-.81-.42-1.23-.42-.24,0-.47.1-.67.3-.2.2-.36.52-.47.98-.11.45-.17,1.07-.17,1.85,0,.56.16,1.03.49,1.41.33.38.85.7,1.57.98.72.27,1.66.54,2.83.79l-.05.14Z"/>
        <path d="M163.59,9.99c-1.29,0-2.37-.06-3.24-.18s-1.55-.31-2.05-.58c-.5-.27-.87-.62-1.08-1.06-.22-.44-.33-.97-.33-1.6,0-.81.15-1.52.45-2.1.3-.59.7-1.04,1.19-1.35s1.01-.47,1.56-.47c.44,0,.88.07,1.32.2.45.13.86.35,1.25.66.39.3.7.7.94,1.19.24.49.38,1.09.42,1.81l-5.35.6c.08.46.29.85.64,1.18s.88.61,1.58.85c.71.24,1.63.48,2.76.71l-.05.15ZM161.91,5.47c-.04-.33-.14-.64-.29-.93-.15-.29-.34-.53-.58-.71s-.5-.27-.78-.27c-.34,0-.63.08-.87.24-.24.16-.43.46-.57.91-.13.45-.2,1.11-.2,1.97v.12s0,.08.01.12l3.28-1.45Z"/>
        <path d="M172.73,8.82c-.36.34-.7.62-1.03.84-.32.22-.61.33-.86.33-.2,0-.37-.09-.51-.26-.14-.18-.24-.48-.3-.91-.31.34-.71.62-1.2.84-.49.22-1.04.33-1.66.33-.8,0-1.39-.25-1.78-.75-.39-.5-.59-1.19-.59-2.09,0-2.31,1.65-3.77,4.94-4.37l-.13-2.78h2.21l-.18,7.65v.34c0,.3.03.52.08.65.05.13.18.2.38.2.07,0,.15,0,.25-.02.1-.02.2-.04.32-.06l.05.08ZM169.77,3.38c-1.09.46-1.88,1-2.36,1.63-.48.62-.72,1.31-.72,2.05,0,.57.1.99.29,1.25s.47.39.84.39.72-.05,1.07-.15c.34-.1.7-.24,1.09-.43l-.21-4.74Z"/>
        <path d="M177.9,0h2.21l-.15,3.84c.23-.21.49-.41.78-.59s.6-.33.93-.44c.32-.11.64-.17.95-.17.8,0,1.39.25,1.78.74.39.49.59,1.19.59,2.09,0,1.02-.28,1.86-.83,2.53-.55.67-1.33,1.17-2.33,1.5-1,.33-2.16.49-3.5.49l-.43-9.99ZM179.73,9.4c.87-.29,1.54-.63,2.03-1.02.49-.39.83-.83,1.03-1.31.2-.48.3-.98.3-1.5,0-.57-.1-.98-.29-1.23s-.47-.38-.84-.38-.69.03-1,.09c-.31.06-.66.16-1.03.31l-.2,5.04Z"/>
        <path d="M187.14,11.81l1.79-2.91-3.11-5.71,2.19-.54,1.61,5.12,3.09-5.07h.18l-3.63,10.02-2.12-.91Z"/>
      </g>
      <g>
        <circle class="cls-8" cx="84.55" cy="36.63" r="2.32"/>
        <g>
          <g>
            <polygon class="cls-8" points="63.68 53.13 1.07 53.13 3.23 50.53 66.65 50.53 63.68 53.13"/>
            <polygon class="cls-8" points="108.76 53.13 72.97 53.13 75.78 50.53 113.5 50.53 108.76 53.13"/>
            <polygon class="cls-8" points="198.44 53.13 118.1 53.13 121.4 50.53 200.28 50.53 198.44 53.13"/>
            <polygon class="cls-8" points="301 53.13 206.21 53.13 208.03 50.53 301.22 50.53 301 53.13"/>
            <path class="cls-8" d="M16.27,49.23H4.3l15.35-18.4h8.38l-11.77,18.4ZM7.84,47.57h7.51l9.65-15.09h-4.58l-12.58,15.09Z"/>
            <path class="cls-8" d="M55.92,65.73h-7.39l31.15-28.2-14.85-11.68h11.39l8.78,6.97,7.85-6.97h6.95l-11.73,10.67-.56-.59c-.51-.54-1.19-.84-1.92-.84-1.46,0-2.65,1.19-2.65,2.65,0,.79.35,1.37.65,1.72l.52.61-28.19,25.66ZM52.83,64.07h2.45l26.58-24.19c-.29-.49-.47-1.03-.55-1.59l-28.48,25.78ZM69.62,27.51l11.77,9.26c.29-1.27,1.15-2.32,2.29-2.89l-8.03-6.37h-6.02ZM86.65,33.57c.52.13,1.01.36,1.45.68l7.41-6.74h-2.03l-6.83,6.06Z"/>
            <path class="cls-8" d="M60.83,65.73h-6.82l29.21-26.58.56.53c.5.47,1.14.73,1.81.73,1.46,0,2.65-1.19,2.65-2.65,0-.57-.19-1.12-.55-1.6l-.46-.6,10.65-9.69h7.33l-13.63,12.11,11.67,9.14h-11.36l-5.66-4.42-25.4,23.06ZM58.29,64.07h1.9l24.38-22.14c-.47-.12-.92-.31-1.33-.58l-24.96,22.71ZM92.46,45.44h5.98l-8.64-6.77c-.28,1.28-1.13,2.34-2.26,2.92l4.92,3.85ZM89.42,35.79c.24.46.39.95.45,1.46l10.97-9.75h-2.33l-9.1,8.28Z"/>
            <path class="cls-8" d="M85.59,41.69c-2.17,0-3.94-1.77-3.94-3.94s1.77-3.94,3.94-3.94,3.94,1.77,3.94,3.94-1.77,3.94-3.94,3.94ZM85.59,36.21c-.85,0-1.54.69-1.54,1.54s.69,1.54,1.54,1.54,1.54-.69,1.54-1.54-.69-1.54-1.54-1.54Z"/>
            <path class="cls-8" d="M150.56,47.68h-15.59l1.89-21.53h15.63l-1.93,21.53ZM136.78,46.02h12.27l1.63-18.22h-12.3l-1.6,18.22ZM147.29,45.5h-3.7l.77-8.48h3.7l-.76,8.48ZM145.4,43.84h.37l.47-5.16h-.37l-.47,5.16ZM142.3,45.5h-3.7l.77-8.48h3.7l-.77,8.48ZM140.42,43.84h.37l.47-5.16h-.37l-.47,5.16ZM148.12,36.5h-3.74l.73-8.19h3.74l-.73,8.19ZM146.2,34.85h.41l.43-4.87h-.41l-.43,4.87ZM143.11,36.5h-3.7l.73-8.19h3.7l-.73,8.19ZM141.22,34.85h.37l.43-4.87h-.37l-.43,4.87Z"/>
            <path class="cls-8" d="M168.16,49.27h-17.99l1.05-11.96h17.99l-1.05,11.96ZM151.98,47.61h14.66l.76-8.64h-14.66l-.76,8.64ZM162.53,47.1h-6.38l.7-7.61h6.38l-.7,7.61ZM157.97,45.44h3.05l.39-4.29h-3.05l-.39,4.29Z"/>
            <path class="cls-8" d="M181.58,49.24h-13.24l1.01-11.19h-1.47l3.05-8.35h-1.95l.32-3.86h14.12l-.32,3.86h-4.54l-1.59,4.49h5.96l-1.36,15.05ZM170.15,47.58h9.91l1.06-11.73h-6.5l2.77-7.81h4.18l.04-.54h-10.79l-.04.54h2.52l-3.05,8.35h.91l-1.01,11.19ZM177.4,47.04h-4.03l1-10.65h4.03l-1,10.65ZM175.2,45.39h.7l.69-7.33h-.7l-.69,7.33Z"/>
            <path class="cls-8" d="M234.71,35.91h-16.32l.46-5.58-8.3,5.58h-10.52l5.19-3.48h-3.37l.58-6.59h12.56l.14-1.45h8.34l-.14,1.45h12.4l-.58,6.59h-.14l-.29,3.48ZM220.19,34.25h12.99l.04-.52h-8.21l.46-5.72h3.97l-.25,2.76h4.43l.29-3.27h-12.42l.14-1.45h-5.01l-.14,1.45h-12.54l-.29,3.27h4.44l.24-2.76h12.36l-.07.87h.37l-.39.26-.42,5.11ZM205.48,34.25h4.57l5.52-3.71h-4.57l-.34.23h0l-2.72,1.84v-.02s-2.47,1.66-2.47,1.66ZM226.82,32.08h.6l.22-2.4h-.62l-.19,2.4Z"/>
            <path class="cls-8" d="M251.72,29.71h-16.8l.32-3.84h16.8l-.32,3.84ZM236.73,28.05h13.47l.04-.52h-13.47l-.04.52Z"/>
            <path class="cls-8" d="M240.78,49.23h-7.63l2.31-18.93h16.01l-1.06,11.95h-8.76l-.87,6.97ZM235.02,47.57h4.3l.87-6.97h8.7l.76-8.64h-12.73l-1.91,15.61ZM244.91,40.07h-4.68l.93-7.59h4.44l-.7,7.59ZM242.11,38.42h1.29l.39-4.27h-1.16l-.52,4.27Z"/>
            <path class="cls-8" d="M276.26,49.19h-5.92l-1.52-2.88.85-11.45,1.67-2.8h5.97l-1.97,3.31-.79,10.58,1.71,3.23ZM271.34,47.53h2.17l-.65-1.22.85-11.45.68-1.14h-2.11l-.99,1.65-.79,10.58.83,1.58Z"/>
            <path class="cls-8" d="M294.97,49.37l-2.86-1.96-.47,1.39h-15.87l.55-7.32h-1.73l3.87-9.03h5.51l-.09.22h12.32l-.22,3.13h-7.8l-.1.62h7.75l-2.57,7.62,2,1.36-.29,3.98ZM286.84,43.83l-.73,4.45,1.36-4.02-.64-.43ZM288.25,47.14h2.21l.79-2.33,2.28,1.56v-.14s-2.24-1.53-2.24-1.53l2.23-6.63h-2.22l-1.81,5.4-3.82-2.64,1.07-6.51h-2.11l-2.12,12.81h2.11l1-6.14,3.83,2.6-1.2,3.54ZM277.56,47.14h1.96l.83-10.44,1.11-2.59h-1.9l-2.45,5.71h1.01l-.55,7.32ZM281.93,37.23l-.45,5.99,1.22-7.41h-.17l-.61,1.43ZM287.47,40.07l1.15.79.44-1.31h-1.51l-.08.52Z"/>
            <path class="cls-8" d="M299.82,49.19h-5.97l1.97-3.31.79-10.58-1.71-3.23h5.92l1.52,2.88-.85,11.45-1.67,2.8ZM296.76,47.53h2.11l.99-1.65.79-10.58-.83-1.58h-2.17l.65,1.22-.85,11.45-.68,1.14Z"/>
            <path class="cls-8" d="M114.51,49.34h-6.89l.33-3.63h-6.67l.32-3.83h6.68l.02-.26h-6.67l1.17-12.79h.51l-.58-2.9h12.28l.55,2.77,1.28-2.77h6.47l-1.34,2.9h.92l-1.12,12.79h-6.57l-.03.26h6.74l-.32,3.83h-6.75l-.33,3.63ZM109.44,47.68h3.56l.33-3.63h6.74l.04-.52h-6.76l.34-3.58h6.56l.83-9.48h-1.7l1.34-2.9h-2.82l-1.34,2.9h-2.33l-.58-2.9h-2.95l.58,2.9h-3l-.58-2.9h-2.95l.58,2.9h-1.01l-.86,9.48h6.68l-.34,3.58h-6.67l-.04.52h6.68l-.33,3.63ZM117,39.44h-4.29l.36-4.24h4.29l-.36,4.24ZM114.51,37.78h.96l.08-.92h-.96l-.08.92ZM111.17,39.44h-4.39l.36-4.24h4.39l-.36,4.24ZM108.58,37.78h1.07l.08-.92h-1.07l-.08.92ZM117.39,35.05h-4.29l.37-4.06h4.29l-.37,4.06ZM114.92,33.4h.96l.07-.74h-.96l-.07.74ZM111.57,35.05h-4.36l.37-4.06h4.36l-.37,4.06ZM109.03,33.4h1.03l.07-.74h-1.03l-.07.74Z"/>
            <path class="cls-8" d="M98.57,65.83h-7.43l35.64-20.54.87,1.41-29.08,19.13ZM97.34,64.18h.73l5.2-3.42-5.93,3.42Z"/>
            <polygon class="cls-8" points="102.46 65.83 96.76 65.83 126.8 45.91 127.75 47.27 102.46 65.83"/>
            <path class="cls-8" d="M33.7,40.92h-10.14l4.86-11.18H4.85l.66-3.89h34.32l-6.13,15.07ZM29.33,39.26h3.25l4.78-11.75H6.91l-.1.57h24.13l-3.5,8.05c.46-.09.96,0,1.38.25l.2-.17.31.56.49.4-.2.17c.25.65.14,1.39-.29,1.92ZM26.08,39.26h.2l-.15-.12-.05.12Z"/>
            <path class="cls-8" d="M67.17,31.85h-28.65l.88-6.01h28.65l-.88,6.01ZM43.56,30.2h19.39l-.05-.09-.49-.4.2-.17c-.27-.7-.12-1.5.39-2.04h-19.39l.05.09.49.4-.2.17c.27.7.12,1.5-.39,2.04ZM40.44,30.2h.27l-.05-.09-.18-.15-.04.24ZM65.9,27.59l.19.16.04-.25h-.28l.05.09Z"/>
            <path class="cls-8" d="M92.69,65.83h-8.63l41.69-23.58-1.6-7.02h-2.83l.32-3.83h1.62l-1.27-5.48h8.09l1.27,5.48h5.43l-.32,3.83h-4.23l.69,3.06,3.4-1.88-.42,5.04-2.02,1.11,1.58,6.79h-8.09l-.66-2.83-34.04,19.32ZM90.37,64.17h1.89l35.58-20.2.86,3.7h1.59l-.12-.22-.5-.4.2-.17c-.3-.77-.09-1.65.54-2.18.63-.53,1.54-.58,2.24-.16l-.66-2.85,2.34-1.29.09-1.06-2.62,1.45-1.63-7.24h4.77l.04-.52h-4.95l-1.27-5.48h-4.68l1.27,5.48h-2.18l-.04.52h2.35l2.17,9.52-37.28,21.09ZM132.93,47.68h.46l-.1-.41c-.1.15-.22.29-.36.41Z"/>
            <path class="cls-8" d="M164.07,38.54h-8.25l1-1.99-6.37-.95.28-2.86h-.42l.52-1.05.03-.35.13.02,2.75-5.5h16.49l-3.76,7.71,3.13.33-.45,4.27-4.65-.54-.44.92ZM158.51,36.88h4.52l.5-1.04,4.16.48.1-.95-3.84-.4,2.18-4.47c-.62.41-1.43.42-2.07.03l-.2.17-.31-.56-.49-.4.2-.17c-.28-.71-.12-1.52.41-2.06h-8.9l-1.78,3.57h4.24l1.52-3.05h4.05l-3.06,6.27-7.4-1.08-.09.96,7.07,1.06-.82,1.63ZM158.41,32.43l.38.06,1.37-2.8h-.37l-1.37,2.74ZM166.85,28.19c.07.19.12.38.13.58l.61-1.25h-1.09l.06.11.49.4-.2.17Z"/>
            <path class="cls-8" d="M198.51,65.52h-9.71l17.67-25.41h-5.21l.26-3.83h7.64l1.12-1.6h9.72l-1.12,1.6h12.43l-.75,9.05h4.1l-.32,3.83h-12.87l.75-9.05h-6.03l-17.67,25.41ZM191.97,63.87h5.67l17.67-25.41h8.7l-.75,9.05h9.54l.04-.52h-4.1l.54-6.5c-.1.17-.23.32-.39.45-.63.53-1.54.58-2.24.16l-.2.17-.31-.55-.5-.4.2-.17c-.3-.77-.09-1.65.54-2.18,0,0,.01-.01.02-.02h-10.75l1.12-1.6h-5.66l-1.12,1.6h-6.95l-.04.52h6.61l-17.67,25.41ZM229.14,38.19l.31.25.04-.5h-.49l.14.25Z"/>
            <path class="cls-8" d="M199.74,49.19h-7.82l.95-11.14h-1.86l-1.58,11.14h-7.83l1.58-11.14h-1.67l.32-3.86h1.88l.64-4.5h-1.81l.32-3.86h20.28l-.32,3.86h-1.39l-.38,4.5h2.09l-.32,3.86h-2.13l-.95,11.14ZM193.73,47.54h1.67l-.04-.08-.49-.4.2-.17c-.3-.77-.09-1.65.54-2.18.63-.53,1.54-.58,2.24-.16l.2-.17.39.62.74-8.61h2.12l.04-.54h-2.09l.65-7.81h1.39l.04-.54h-16.95l-.04.54h1.92l-1.12,7.81h-1.79l-.04.54h1.78l-1.58,11.14h4.48l1.58-11.14h5.1l-.95,11.14ZM194.76,35.86h-5.13l1.12-7.81h4.66l-.65,7.81ZM191.54,34.2h1.69l.38-4.5h-1.42l-.64,4.5Z"/>
            <path class="cls-8" d="M265.95,49.23h-7.78l1.3-13.7h-.88l-2,13.7h-7.79l3.25-22.59,17.56-1.12-.32,3.85-9.94.62-.24,1.7h9.98l-.32,3.84h-1.54l-1.3,13.7ZM259.99,47.57h1.75l-.06-.11-.49-.4.2-.17c-.3-.77-.09-1.65.54-2.18.63-.53,1.54-.58,2.24-.16l.2-.17.32.56,1.05-11.08h1.52l.04-.52h-10.1l.7-4.92,9.85-.62.04-.51-14.3.91-2.79,19.37h4.44l2-13.7h4.14l-1.3,13.7Z"/>
            <path class="cls-8" d="M66.38,49.27h-31.84l.88-6.15h31.84l-.88,6.15ZM39.34,47.61h22.96l-.09-.16-.49-.4.2-.17c-.29-.73-.11-1.57.46-2.11h-22.96l.09.16.49.4-.2.17c.29.73.11,1.57-.46,2.11ZM36.45,47.61h.14l-.12-.18-.03.18ZM65.21,44.94l.1.08.03-.24h-.22l.09.16Z"/>
            <path class="cls-8" d="M87.31,41.14l-5.39-4.52,5.75-1.39-.36,5.91ZM85.5,37.46l.36.3.02-.39-.38.09Z"/>
            <polygon class="cls-8" points="2.83 52.31 63.37 52.31 64.45 51.36 3.61 51.36 2.83 52.31"/>
            <polygon class="cls-8" points="75.08 52.31 108.55 52.31 110.27 51.36 76.1 51.36 75.08 52.31"/>
            <polygon class="cls-8" points="198.68 51.36 121.69 51.36 120.49 52.31 198.01 52.31 198.68 51.36"/>
            <polygon class="cls-8" points="208.46 51.36 207.8 52.31 300.24 52.31 300.32 51.36 208.46 51.36"/>
            <polygon class="cls-8" points="6.07 48.4 20.04 31.66 26.52 31.66 15.81 48.4 6.07 48.4"/>
            <path class="cls-8" d="M82.11,37.75c0-1.92,1.56-3.48,3.48-3.48,1,0,1.89.43,2.53,1.1l9.54-8.68h-4.49l-8.13,7.22-9.1-7.22h-8.7l13.74,10.81-30.29,27.41h4.92l27.36-24.9c-.52-.61-.85-1.39-.85-2.26Z"/>
            <path class="cls-8" d="M103.03,26.68h-4.83l-9.85,8.97c.45.59.72,1.31.72,2.1,0,1.92-1.56,3.48-3.48,3.48-.92,0-1.76-.37-2.38-.96l-27.06,24.63h4.36l25.68-23.31,5.98,4.68h8.67l-10.56-8.27,12.74-11.32Z"/>
            <path class="cls-8" d="M82.48,37.75c0,1.72,1.4,3.11,3.11,3.11,1.72,0,3.11-1.4,3.11-3.11s-1.4-3.11-3.11-3.11-3.11,1.4-3.11,3.11ZM87.96,37.75c0,1.31-1.06,2.37-2.37,2.37s-2.37-1.06-2.37-2.37c0-1.31,1.06-2.37,2.37-2.37s2.37,1.06,2.37,2.37Z"/>
            <path class="cls-8" d="M135.88,46.85l1.74-19.88h1.63s2.72,0,2.72,0h.87s3.48,0,3.48,0h4.14s1.12,0,1.12,0l-1.78,19.88h-4.35s-.87,0-.87,0h-4.35s-2.76,0-2.76,0h-1.6ZM139.51,44.67h2.03l.62-6.82h-2.03l-.62,6.82ZM140.31,35.68h2.04l.58-6.53h-2.04l-.58,6.53ZM147.14,37.85h-2.03s-.62,6.82-.62,6.82h2.04l.62-6.82ZM147.94,29.15h-2.07l-.58,6.53h2.07l.58-6.53Z"/>
            <path class="cls-8" d="M151.07,48.44l.91-10.3h1.34s4.46,0,4.46,0h10.52l-.91,10.3h-16.32ZM157.06,46.27h4.72l.54-5.95h-4.72l-.54,5.95Z"/>
            <path class="cls-8" d="M169.88,28.87l.18-2.2h12.46s-.18,2.2-.18,2.2h-4.36l-2.18,6.15h6.23l-1.21,13.39h-11.58l1.01-11.19h-1.19l3.05-8.35h-2.24ZM174.29,46.21h2.36l.84-8.99h-2.36l-.84,8.99Z"/>
            <polygon class="cls-8" points="202.75 31.6 203.19 26.67 209.28 26.67 215.74 26.67 215.88 25.22 222.56 25.22 222.41 26.67 228.72 26.67 234.71 26.67 234.82 26.67 234.38 31.6 228.29 31.6 228.54 28.84 226.25 28.84 225.92 32.91 234.13 32.91 233.95 35.08 226.26 35.08 220.16 35.08 219.29 35.08 219.8 28.84 209.1 28.84 208.92 30.95 210.73 29.71 218.28 29.71 210.3 35.08 202.75 35.08 207.94 31.6 202.75 31.6"/>
            <polygon class="cls-8" points="235.83 28.88 236.01 26.69 251.14 26.69 250.96 28.88 235.83 28.88"/>
            <path class="cls-8" d="M234.08,48.4l2.11-17.27h5.97s2.73,0,2.73,0h5.68l-.91,10.29h-1.49s-4.18,0-4.18,0h-3.06l-.87,6.97h-5.97ZM244.7,33.32h-2.8s-.73,5.93-.73,5.93h2.98l.55-5.93Z"/>
            <path class="cls-8" d="M270.84,48.36l-1.18-2.23.82-11.02,1.33-2.23h4.04l-1.33,2.23-.82,11.02,1.18,2.23h-4.04Z"/>
            <path class="cls-8" d="M275.85,40.65l3.16-7.37h3.71l-1.6,3.75-.82,10.94h-3.62s.55-7.32.55-7.32h-1.37ZM282.86,34.97l.1-1.47h.95s3.79,0,3.79,0h7.6l-.1,1.47h-7.73l-.38,2.28h3.62s1.41,0,1.41,0h2.55l-2.4,7.12,2.13,1.44-.15,2.06-2.57-1.76-.63,1.86h-3.96s1.37-4.04,1.37-4.04l-2.23-1.52-.91,5.56h-3.79s2.15-13,2.15-13h-.82ZM286.57,40.45l2.48,1.71,1.16-3.45h-3.37l-.27,1.74Z"/>
            <path class="cls-8" d="M300.32,32.89l1.18,2.23-.82,11.02-1.33,2.23h-4.04l1.33-2.23.82-11.02-1.18-2.23h4.04Z"/>
            <path class="cls-8" d="M120.68,29.65l1.34-2.9h-4.64l-1.34,2.9h-.62s-.51,0-.51,0l-.58-2.9h-4.64l.58,2.9h-1.31s-.58-2.9-.58-2.9h-4.64s.58,2.9.58,2.9h-.22s-.54,0-.54,0l-1.02,11.14h.51s4.71,0,4.71,0h1.45l-.18,1.92h-6.67l-.18,2.18h6.67l-.33,3.63h5.22l.33-3.63h6.75s.18-2.18.18-2.18h-6.75l.18-1.92h1.34s4.72,0,4.72,0h.51l.98-11.14h-.47s-.83,0-.83,0ZM110.41,38.61h-2.73s.22-2.58.22-2.58h2.73l-.22,2.58ZM110.81,34.22h-2.7l.22-2.4h2.69l-.22,2.4ZM116.24,38.61h-2.62l.22-2.58h2.62l-.22,2.58ZM116.63,34.22h-2.62l.22-2.4h2.62l-.22,2.4Z"/>
            <polygon class="cls-8" points="127.2 46.01 94.24 65 98.33 65 127.2 46.01"/>
            <polygon class="cls-8" points="127.26 46.61 99.51 65 102.18 65 127.26 46.61"/>
            <path class="cls-8" d="M6.22,26.68l-.38,2.23h23.84l-4.86,11.18h8.32l5.46-13.41H6.22ZM27.11,37.18c.42-.35,1-.32,1.41,0l-1.65,1.38c-.25-.46-.18-1.04.24-1.39ZM28.54,38.89c-.42.35-1,.32-1.41,0l1.65-1.38c.25.46.18,1.04-.24,1.39Z"/>
            <path class="cls-8" d="M40.12,26.67l-.64,4.36h26.97l.64-4.36h-26.97ZM41.44,27.99c.42-.35,1-.32,1.41,0l-1.65,1.38c-.25-.46-.18-1.04.24-1.39ZM42.88,29.7c-.42.35-1,.32-1.41,0l1.65-1.38c.25.46.18,1.04-.24,1.39ZM63.69,27.99c.42-.35,1-.32,1.41,0l-1.65,1.38c-.25-.46-.18-1.04.24-1.39ZM65.12,29.7c-.42.35-1,.32-1.41,0l1.65-1.38c.25.46.18,1.04-.24,1.39Z"/>
            <path class="cls-8" d="M135.88,32.22h-5.19l-1.27-5.48h-6.38s1.27,5.48,1.27,5.48h-1.9l-.18,2.18h2.59l1.89,8.27-39.49,22.34h5.26s34.81-19.76,34.81-19.76l.76,3.26h6.38l-1.49-6.38,2.18-1.2.25-3.05-3.01,1.67-1.16-5.15h4.5l.18-2.18ZM132.62,45.67c.25.46.18,1.04-.24,1.39-.42.35-1,.32-1.41,0l1.65-1.38ZM132.36,45.35l-1.65,1.38c-.25-.46-.18-1.04.24-1.39.42-.35,1-.32,1.41,0Z"/>
            <path class="cls-8" d="M168.92,26.68h-14.65l-2.61,5.22h6.09l1.52-3.05h2.21l-2.21,4.53-7.66-1.11-.25,2.61,6.72,1.01-.91,1.81h6.38l.47-.98,4.41.51.28-2.61-3.49-.36,3.7-7.58ZM164.34,28.02c.42-.35,1-.32,1.41,0l-1.65,1.38c-.25-.46-.18-1.04.24-1.39ZM164.37,29.72l1.65-1.38c.25.46.18,1.04-.24,1.39-.42.35-1,.32-1.41,0Z"/>
            <path class="cls-8" d="M229.64,46.16l.75-9.05h-13.13s1.12-1.6,1.12-1.6h-7.69l-1.12,1.6h-7.29s-.15,2.18-.15,2.18h5.91s-17.67,25.41-17.67,25.41h7.69l17.67-25.41h7.36l-.75,9.05h11.21l.18-2.18h-4.1ZM226.92,38.6c.42-.35,1-.32,1.41,0l-1.65,1.38c-.25-.46-.18-1.04.24-1.39ZM228.36,40.3c-.42.35-1,.32-1.41,0l1.65-1.38c.25.46.18,1.04-.24,1.39Z"/>
            <path class="cls-8" d="M200.67,28.87h1.39l.18-2.2h-18.62s-.18,2.2-.18,2.2h1.87l-.88,6.16h-1.83l-.18,2.2h1.72l-1.58,11.14h6.16l1.58-11.14h3.48l-.95,11.14h6.16l.95-11.14h2.13s.18-2.2.18-2.2h-2.09l.51-6.16ZM193.99,35.03h-3.41l.88-6.16h3.04l-.51,6.16ZM196.14,45.35c.42-.35,1-.32,1.41,0l-1.65,1.38c-.25-.46-.18-1.04.24-1.39ZM197.57,47.05c-.42.35-1,.32-1.41,0l1.65-1.38c.25.46.18,1.04-.24,1.39Z"/>
            <path class="cls-8" d="M268.53,28.59l.18-2.18-15.93,1.02-3.02,20.98h6.11s2-13.7,2-13.7h2.51l-1.3,13.7h6.11l1.3-13.7h1.53l.18-2.18h-10.04l.47-3.31,9.9-.62ZM263.9,47.05c-.42.35-1,.32-1.41,0l1.65-1.38c.25.46.18,1.04-.24,1.39ZM262.46,45.35c.42-.35,1-.32,1.41,0l-1.65,1.38c-.25-.46-.18-1.04.24-1.39Z"/>
            <path class="cls-8" d="M36.14,43.96l-.64,4.49h30.17l.65-4.49h-30.17ZM37.29,45.35c.42-.35,1-.32,1.41,0l-1.65,1.38c-.25-.46-.18-1.04.24-1.39ZM38.72,47.05c-.42.35-1,.32-1.41,0l1.65-1.38c.25.46.18,1.04-.24,1.39ZM63,45.35c.42-.35,1-.32,1.41,0l-1.65,1.38c-.25-.46-.18-1.04.24-1.39ZM64.43,47.05c-.42.35-1,.32-1.41,0l1.65-1.38c.25.46.18,1.04-.24,1.39Z"/>
            <path class="cls-8" d="M83.71,37.04l3.07-.74-.19,3.15-2.87-2.41Z"/>
          </g>
          <g>
            <g>
              <g>
                <polygon class="cls-8" points="62.61 52.06 0 52.06 2.15 49.46 65.57 49.46 62.61 52.06"/>
                <polygon class="cls-8" points="107.69 52.06 71.9 52.06 74.7 49.46 112.42 49.46 107.69 52.06"/>
                <polygon class="cls-8" points="197.37 52.06 117.02 52.06 120.33 49.46 199.21 49.46 197.37 52.06"/>
                <polygon class="cls-8" points="299.92 52.06 205.13 52.06 206.95 49.46 300.15 49.46 299.92 52.06"/>
              </g>
              <path class="cls-8" d="M15.19,48.16H3.23l15.35-18.4h8.38l-11.77,18.4ZM6.77,46.5h7.51l9.65-15.09h-4.58l-12.58,15.09Z"/>
              <g>
                <path class="cls-8" d="M54.85,64.66h-7.39l31.15-28.2-14.85-11.68h11.39l8.78,6.97,7.85-6.97h6.95l-11.73,10.67-.56-.59c-.51-.54-1.19-.84-1.92-.84-1.46,0-2.65,1.19-2.65,2.65,0,.79.35,1.37.65,1.72l.52.61-28.19,25.66ZM51.76,63h2.45l26.58-24.19c-.29-.49-.47-1.03-.55-1.59l-28.48,25.78ZM68.55,26.44l11.77,9.26c.29-1.27,1.15-2.32,2.29-2.89l-8.03-6.37h-6.02ZM85.58,32.49c.52.13,1.01.36,1.45.68l7.41-6.74h-2.03l-6.83,6.06Z"/>
                <path class="cls-8" d="M59.76,64.66h-6.82l29.21-26.58.56.53c.5.47,1.14.73,1.81.73,1.46,0,2.65-1.19,2.65-2.65,0-.57-.19-1.12-.55-1.6l-.46-.6,10.65-9.69h7.33l-13.63,12.11,11.67,9.14h-11.36l-5.66-4.42-25.4,23.06ZM57.22,63h1.9l24.38-22.14c-.47-.12-.92-.31-1.33-.58l-24.96,22.71ZM91.39,44.36h5.98l-8.64-6.77c-.28,1.28-1.13,2.34-2.26,2.92l4.92,3.85ZM88.35,34.72c.24.46.39.95.45,1.46l10.97-9.75h-2.33l-9.1,8.28Z"/>
                <path class="cls-8" d="M84.52,40.62c-2.17,0-3.94-1.77-3.94-3.94s1.77-3.94,3.94-3.94,3.94,1.77,3.94,3.94-1.77,3.94-3.94,3.94ZM84.52,35.14c-.85,0-1.54.69-1.54,1.54s.69,1.54,1.54,1.54,1.54-.69,1.54-1.54-.69-1.54-1.54-1.54Z"/>
              </g>
              <path class="cls-8" d="M149.49,46.6h-15.59l1.89-21.53h15.63l-1.93,21.53ZM135.71,44.94h12.27l1.63-18.22h-12.3l-1.6,18.22ZM146.21,44.43h-3.7l.77-8.48h3.7l-.76,8.48ZM144.33,42.77h.37l.47-5.16h-.37l-.47,5.16ZM141.23,44.43h-3.7l.77-8.48h3.7l-.77,8.48ZM139.35,42.77h.37l.47-5.16h-.37l-.47,5.16ZM147.05,35.43h-3.74l.73-8.19h3.74l-.73,8.19ZM145.12,33.77h.41l.43-4.87h-.41l-.43,4.87ZM142.03,35.43h-3.7l.73-8.19h3.7l-.73,8.19ZM140.14,33.77h.37l.43-4.87h-.37l-.43,4.87Z"/>
              <path class="cls-8" d="M167.08,48.2h-17.99l1.05-11.96h17.99l-1.05,11.96ZM150.91,46.54h14.66l.76-8.64h-14.66l-.76,8.64ZM161.46,46.02h-6.38l.7-7.61h6.38l-.7,7.61ZM156.89,44.36h3.05l.39-4.29h-3.05l-.39,4.29Z"/>
              <path class="cls-8" d="M180.51,48.17h-13.24l1.01-11.19h-1.47l3.05-8.35h-1.95l.32-3.86h14.12l-.32,3.86h-4.54l-1.59,4.49h5.96l-1.36,15.05ZM169.08,46.51h9.91l1.06-11.73h-6.5l2.77-7.81h4.18l.05-.54h-10.8l-.04.54h2.52l-3.05,8.35h.91l-1.01,11.19ZM176.33,45.97h-4.03l1-10.65h4.03l-1,10.65ZM174.12,44.31h.7l.69-7.33h-.7l-.69,7.33Z"/>
              <path class="cls-8" d="M233.64,34.84h-16.32l.46-5.58-8.3,5.58h-10.52l5.19-3.48h-3.37l.58-6.59h12.56l.14-1.45h8.34l-.14,1.45h12.39l-.58,6.59h-.14l-.29,3.48ZM219.12,33.18h12.99l.04-.52h-8.21l.46-5.72h3.97l-.25,2.76h4.43l.29-3.27h-12.42l.14-1.45h-5.01l-.14,1.45h-12.54l-.29,3.27h4.44l.24-2.76h12.36l-.07.87h.37l-.39.26-.42,5.11ZM204.4,33.18h4.57l5.52-3.71h-4.57l-.34.23h0l-2.72,1.84v-.02s-2.47,1.66-2.47,1.66ZM225.74,31h.6l.22-2.4h-.62l-.19,2.4Z"/>
              <g>
                <path class="cls-8" d="M250.65,28.63h-16.8l.32-3.84h16.8l-.32,3.84ZM235.65,26.97h13.47l.04-.52h-13.47l-.04.52Z"/>
                <path class="cls-8" d="M239.7,48.16h-7.63l2.31-18.93h16.01l-1.06,11.95h-8.76l-.87,6.97ZM233.94,46.5h4.3l.87-6.97h8.7l.76-8.64h-12.73l-1.91,15.61ZM243.84,39h-4.68l.93-7.59h4.44l-.7,7.59ZM241.04,37.34h1.29l.39-4.27h-1.16l-.52,4.27Z"/>
              </g>
              <g>
                <path class="cls-8" d="M275.18,48.12h-5.92l-1.52-2.88.85-11.45,1.67-2.8h5.97l-1.97,3.31-.79,10.58,1.71,3.23ZM270.26,46.46h2.17l-.65-1.22.85-11.45.68-1.14h-2.11l-.99,1.65-.79,10.58.83,1.58Z"/>
                <path class="cls-8" d="M293.9,48.3l-2.86-1.96-.47,1.39h-15.87l.55-7.32h-1.73l3.87-9.03h5.51l-.09.22h12.32l-.22,3.13h-7.8l-.1.62h7.75l-2.57,7.62,2,1.36-.29,3.98ZM285.76,42.76l-.73,4.45,1.36-4.02-.64-.43ZM287.17,46.07h2.21l.79-2.33,2.28,1.56v-.14s-2.24-1.53-2.24-1.53l2.23-6.63h-2.22l-1.81,5.4-3.82-2.63,1.07-6.51h-2.11l-2.12,12.81h2.11l1-6.14,3.83,2.6-1.2,3.54ZM276.49,46.07h1.96l.83-10.44,1.11-2.59h-1.9l-2.45,5.71h1.01l-.55,7.32ZM280.85,36.15l-.45,5.99,1.22-7.41h-.17l-.61,1.43ZM286.39,38.99l1.15.79.44-1.32h-1.51l-.08.52Z"/>
                <path class="cls-8" d="M298.74,48.12h-5.97l1.97-3.31.79-10.58-1.71-3.23h5.92l1.52,2.88-.85,11.45-1.67,2.8ZM295.69,46.46h2.11l.99-1.65.79-10.58-.83-1.58h-2.17l.65,1.22-.85,11.45-.68,1.14Z"/>
              </g>
              <path class="cls-8" d="M113.44,48.26h-6.89l.33-3.63h-6.67l.32-3.83h6.68l.02-.26h-6.67l1.17-12.79h.51l-.58-2.9h12.28l.55,2.77,1.28-2.77h6.47l-1.34,2.9h.91l-1.12,12.79h-6.57l-.03.26h6.74l-.32,3.83h-6.75l-.33,3.63ZM108.36,46.6h3.56l.33-3.63h6.74l.04-.52h-6.76l.34-3.58h6.56l.83-9.48h-1.7l1.34-2.9h-2.82l-1.34,2.9h-2.33l-.58-2.9h-2.95l.58,2.9h-3l-.58-2.9h-2.95l.58,2.9h-1.01l-.86,9.48h6.68l-.34,3.58h-6.67l-.04.52h6.68l-.33,3.63ZM115.92,38.36h-4.29l.36-4.24h4.29l-.36,4.24ZM113.44,36.7h.96l.08-.92h-.96l-.08.92ZM110.1,38.36h-4.39l.36-4.24h4.39l-.36,4.24ZM107.51,36.7h1.07l.08-.92h-1.07l-.08.92ZM116.32,33.98h-4.29l.37-4.06h4.29l-.37,4.06ZM113.84,32.32h.96l.07-.74h-.96l-.07.74ZM110.5,33.98h-4.36l.37-4.06h4.36l-.37,4.06ZM107.95,32.32h1.03l.07-.74h-1.03l-.07.74Z"/>
              <path class="cls-8" d="M97.5,64.76h-7.43l35.64-20.54.87,1.41-29.08,19.13ZM96.27,63.1h.73l5.2-3.42-5.93,3.42Z"/>
              <polygon class="cls-8" points="101.38 64.76 95.69 64.76 125.73 44.84 126.68 46.2 101.38 64.76"/>
              <path class="cls-8" d="M32.62,39.84h-10.14l4.86-11.18H3.78l.66-3.89h34.32l-6.13,15.07ZM28.26,38.19h3.25l4.78-11.75H5.84l-.1.57h24.13l-3.5,8.05c.46-.09.96,0,1.38.25l.2-.17.31.56.49.4-.2.17c.25.65.14,1.39-.29,1.92ZM25.01,38.19h.2l-.15-.12-.05.12Z"/>
              <path class="cls-8" d="M66.1,30.78h-28.65l.88-6.01h28.65l-.88,6.01ZM42.49,29.12h19.39l-.05-.09-.49-.4.2-.17c-.27-.7-.12-1.5.39-2.04h-19.39l.05.09.49.4-.2.17c.27.7.12,1.5-.39,2.04ZM39.37,29.12h.27l-.05-.09-.18-.15-.04.24ZM64.83,26.52l.19.16.04-.25h-.28l.05.09Z"/>
              <path class="cls-8" d="M91.62,64.76h-8.63l41.69-23.58-1.6-7.02h-2.83l.32-3.83h1.62l-1.27-5.48h8.09l1.27,5.48h5.43l-.32,3.83h-4.23l.69,3.06,3.4-1.88-.42,5.04-2.02,1.11,1.58,6.79h-8.09l-.66-2.83-34.04,19.32ZM89.29,63.1h1.89l35.58-20.2.86,3.7h1.59l-.12-.22-.5-.4.2-.17c-.3-.77-.09-1.65.54-2.18.63-.53,1.54-.58,2.24-.16l-.66-2.85,2.34-1.29.09-1.06-2.62,1.45-1.63-7.24h4.77l.04-.52h-4.95l-1.27-5.48h-4.68l1.27,5.48h-2.18l-.04.52h2.35l2.17,9.52-37.28,21.09ZM131.86,46.6h.46l-.1-.41c-.1.15-.22.29-.36.41Z"/>
              <path class="cls-8" d="M163,37.46h-8.25l1-1.99-6.37-.95.28-2.86h-.42l.52-1.05.04-.35.13.02,2.75-5.5h16.49l-3.76,7.71,3.13.33-.45,4.27-4.65-.54-.44.92ZM157.43,35.8h4.52l.5-1.04,4.16.48.1-.95-3.84-.4,2.18-4.47c-.62.41-1.43.42-2.07.03l-.2.17-.31-.56-.49-.4.2-.17c-.28-.71-.12-1.52.41-2.06h-8.9l-1.78,3.57h4.24l1.52-3.05h4.05l-3.06,6.27-7.4-1.07-.09.96,7.07,1.06-.82,1.63ZM157.34,31.35l.38.06,1.37-2.8h-.37l-1.37,2.74ZM165.78,27.11c.07.19.12.38.13.58l.61-1.25h-1.1l.06.11.49.4-.2.17Z"/>
              <path class="cls-8" d="M197.43,64.45h-9.71l17.67-25.41h-5.21l.26-3.83h7.64l1.12-1.6h9.72l-1.12,1.6h12.43l-.75,9.05h4.1l-.32,3.83h-12.87l.75-9.05h-6.03l-17.67,25.41ZM190.89,62.79h5.67l17.67-25.41h8.7l-.75,9.05h9.54l.04-.52h-4.1l.54-6.5c-.1.17-.23.32-.39.45-.63.53-1.54.58-2.24.16l-.2.17-.31-.55-.5-.4.2-.17c-.3-.77-.09-1.65.54-2.18h0s.01-.01.02-.02h-10.75l1.12-1.6h-5.66l-1.12,1.6h-6.95l-.04.52h6.61l-17.67,25.41ZM228.06,37.11l.31.25.04-.5h-.49l.14.25Z"/>
              <path class="cls-8" d="M198.67,48.12h-7.82l.95-11.14h-1.86l-1.58,11.14h-7.83l1.58-11.14h-1.67l.32-3.86h1.88l.64-4.5h-1.81l.32-3.86h20.28l-.32,3.86h-1.39l-.38,4.5h2.09l-.32,3.86h-2.13l-.95,11.14ZM192.65,46.46h1.67l-.04-.08-.49-.4.2-.17c-.3-.77-.09-1.65.54-2.18h0c.63-.53,1.54-.59,2.24-.16l.2-.17.39.62.74-8.61h2.12l.04-.54h-2.09l.65-7.81h1.39l.04-.54h-16.95l-.04.54h1.92l-1.12,7.81h-1.79l-.04.54h1.78l-1.58,11.14h4.48l1.58-11.14h5.1l-.95,11.14ZM193.68,34.78h-5.13l1.12-7.81h4.66l-.65,7.81ZM190.47,33.12h1.69l.38-4.5h-1.42l-.64,4.5Z"/>
              <path class="cls-8" d="M264.88,48.16h-7.78l1.3-13.7h-.88l-2,13.7h-7.79l3.25-22.59,17.56-1.12-.32,3.85-9.94.62-.24,1.7h9.98l-.32,3.84h-1.54l-1.3,13.7ZM258.92,46.5h1.75l-.06-.11-.49-.4.2-.17c-.3-.77-.09-1.65.54-2.18.63-.53,1.54-.59,2.24-.16l.2-.17.32.56,1.05-11.08h1.52l.04-.52h-10.1l.7-4.92,9.85-.62.04-.51-14.3.91-2.79,19.37h4.44l2-13.7h4.14l-1.3,13.7Z"/>
              <path class="cls-8" d="M65.3,48.2h-31.84l.88-6.15h31.84l-.88,6.15ZM38.26,46.54h22.96l-.09-.16-.49-.4.2-.17c-.29-.73-.11-1.57.46-2.11h-22.96l.09.16.49.4-.2.17c.29.73.11,1.57-.46,2.11ZM35.37,46.54h.14l-.12-.18-.03.18ZM64.14,43.87l.1.08.03-.24h-.22l.09.16Z"/>
              <path class="cls-8" d="M86.24,40.07l-5.39-4.52,5.75-1.39-.36,5.92ZM84.42,36.38l.36.3.02-.39-.38.09Z"/>
            </g>
            <g>
              <g>
                <polygon class="cls-7" points="1.76 51.23 62.3 51.23 63.37 50.29 2.54 50.29 1.76 51.23"/>
                <polygon class="cls-7" points="74.01 51.23 107.47 51.23 109.19 50.29 75.03 50.29 74.01 51.23"/>
                <polygon class="cls-7" points="197.61 50.29 120.62 50.29 119.42 51.23 196.94 51.23 197.61 50.29"/>
                <polygon class="cls-7" points="207.39 50.29 206.72 51.23 299.16 51.23 299.24 50.29 207.39 50.29"/>
              </g>
              <polygon class="cls-7" points="5 47.33 18.97 30.58 25.45 30.58 14.74 47.33 5 47.33"/>
              <g>
                <path class="cls-14" d="M81.04,36.67c0-1.92,1.56-3.48,3.48-3.48,1,0,1.89.43,2.53,1.1l9.54-8.68h-4.49l-8.13,7.22-9.1-7.22h-8.7l13.74,10.81-30.29,27.41h4.92l27.36-24.9c-.52-.61-.85-1.39-.85-2.26Z"/>
                <path class="cls-14" d="M101.96,25.61h-4.83l-9.85,8.97c.45.59.72,1.31.72,2.1,0,1.92-1.56,3.48-3.48,3.48-.92,0-1.76-.37-2.38-.96l-27.06,24.63h4.36l25.68-23.31,5.98,4.68h8.67l-10.56-8.27,12.74-11.32Z"/>
                <path class="cls-14" d="M81.4,36.67c0,1.72,1.4,3.11,3.11,3.11,1.72,0,3.11-1.4,3.11-3.11s-1.4-3.11-3.11-3.11-3.11,1.4-3.11,3.11ZM86.89,36.67c0,1.31-1.06,2.37-2.37,2.37s-2.37-1.06-2.37-2.37c0-1.31,1.06-2.37,2.37-2.37s2.37,1.06,2.37,2.37Z"/>
              </g>
              <path class="cls-11" d="M134.8,45.77l1.74-19.88h4.35s.87,0,.87,0h3.48s.91,0,.91,0h3.23s1.12,0,1.12,0l-1.78,19.88h-4.35s-.87,0-.87,0h-4.35s-2.76,0-2.76,0h-1.6ZM138.44,43.6h2.03l.62-6.82h-2.03l-.62,6.82ZM139.24,34.6h2.04l.58-6.53h-2.04l-.58,6.53ZM146.07,36.78h-2.03s-.62,6.82-.62,6.82h2.04l.62-6.82ZM146.87,28.07h-2.07l-.58,6.53h2.07l.58-6.53Z"/>
              <path class="cls-15" d="M150,47.37l.91-10.3h1.34s4.46,0,4.46,0h4.71s5.55,0,5.55,0h.25l-.91,10.3h-16.32ZM155.98,45.19h4.72l.54-5.95h-4.72l-.54,5.95Z"/>
              <path class="cls-4" d="M168.81,27.8l.18-2.2h12.46s-.18,2.2-.18,2.2h-4.36l-2.18,6.15h6.23l-1.21,13.39h-11.58l1.01-11.19h-1.19l3.05-8.35h-2.24ZM173.21,45.14h2.36l.84-8.99h-2.36l-.84,8.99Z"/>
              <polygon class="cls-2" points="201.68 30.53 202.11 25.59 208.21 25.59 214.66 25.59 214.81 24.14 221.48 24.14 221.34 25.59 227.65 25.59 233.63 25.59 233.74 25.59 233.31 30.53 227.21 30.53 227.47 27.77 225.17 27.77 224.84 31.83 233.05 31.83 232.87 34.01 225.18 34.01 219.09 34.01 218.22 34.01 218.73 27.77 208.03 27.77 207.85 29.87 209.66 28.64 217.2 28.64 209.22 34.01 201.68 34.01 206.87 30.53 201.68 30.53"/>
              <g>
                <polygon class="cls-12" points="234.75 27.8 234.93 25.62 250.07 25.62 249.89 27.8 234.75 27.8"/>
                <path class="cls-12" d="M233,47.33l2.11-17.27h5.97s2.73,0,2.73,0h5.68l-.91,10.29h-1.49s-4.18,0-4.18,0h-3.06l-.87,6.97h-5.97ZM243.63,32.24h-2.8s-.73,5.93-.73,5.93h2.98l.55-5.93Z"/>
              </g>
              <g>
                <path class="cls-13" d="M269.76,47.29l-1.18-2.23.82-11.02,1.33-2.23h4.04l-1.33,2.23-.82,11.02,1.18,2.23h-4.04Z"/>
                <path class="cls-13" d="M274.77,39.58l3.16-7.37h3.71l-1.6,3.75-.82,10.94h-3.62s.55-7.32.55-7.32h-1.37ZM281.79,33.9l.1-1.47h.95s3.79,0,3.79,0h7.6l-.1,1.47h-7.73l-.38,2.28h3.62s1.41,0,1.41,0h2.55l-2.4,7.12,2.13,1.44-.15,2.06-2.57-1.76-.63,1.86h-3.96s1.37-4.04,1.37-4.04l-2.23-1.52-.91,5.56h-3.79s2.15-13,2.15-13h-.82ZM285.49,39.38l2.48,1.71,1.16-3.45h-3.37l-.27,1.74Z"/>
                <path class="cls-13" d="M299.24,31.82l1.18,2.23-.82,11.02-1.33,2.23h-4.04l1.33-2.23.82-11.02-1.18-2.23h4.04Z"/>
              </g>
              <path class="cls-18" d="M119.61,28.57l1.34-2.9h-4.64l-1.34,2.9h-.62s-.51,0-.51,0l-.58-2.9h-4.64l.58,2.9h-1.31s-.58-2.9-.58-2.9h-4.64s.58,2.9.58,2.9h-.22s-.54,0-.54,0l-1.02,11.14h.51s4.71,0,4.71,0h1.45l-.18,1.92h-6.67l-.18,2.18h6.67l-.33,3.63h5.22l.33-3.63h6.75s.18-2.18.18-2.18h-6.75l.18-1.92h1.34s4.72,0,4.72,0h.51l.98-11.14h-.47s-.83,0-.83,0ZM109.34,37.53h-2.73s.22-2.58.22-2.58h2.73l-.22,2.58ZM109.74,33.15h-2.7l.22-2.4h2.69l-.22,2.4ZM115.16,37.53h-2.62l.22-2.58h2.62l-.22,2.58ZM115.56,33.15h-2.62l.22-2.4h2.62l-.22,2.4Z"/>
              <polygon class="cls-10" points="126.12 44.93 93.17 63.93 97.25 63.93 126.12 44.93"/>
              <polygon class="cls-13" points="126.19 45.53 98.44 63.93 101.11 63.93 126.19 45.53"/>
              <path class="cls-6" d="M5.14,25.61l-.38,2.23h23.84l-4.86,11.18h8.32l5.46-13.41H5.14ZM26.03,36.1c.42-.35,1-.32,1.41,0l-1.65,1.38c-.25-.46-.18-1.04.24-1.39ZM27.47,37.81c-.42.35-1,.32-1.41,0l1.65-1.38c.25.46.18,1.04-.24,1.39Z"/>
              <path class="cls-9" d="M39.04,25.6l-.64,4.36h26.97l.64-4.36h-26.97ZM40.37,26.92c.42-.35,1-.32,1.41,0l-1.65,1.38c-.25-.46-.18-1.04.24-1.39ZM41.8,28.63c-.42.35-1,.32-1.41,0l1.65-1.38c.25.46.18,1.04-.24,1.39ZM62.61,26.92c.42-.35,1-.32,1.41,0l-1.65,1.38c-.25-.46-.18-1.04.24-1.39ZM64.05,28.63c-.42.35-1,.32-1.41,0l1.65-1.38c.25.46.18,1.04-.24,1.39Z"/>
              <path class="cls-3" d="M134.81,31.15h-5.19l-1.27-5.48h-6.38s1.27,5.48,1.27,5.48h-1.9l-.18,2.18h2.59l1.89,8.27-39.49,22.34h5.26s34.81-19.76,34.81-19.76l.76,3.26h6.38l-1.49-6.38,2.18-1.2.25-3.05-3.01,1.67-1.16-5.15h4.5l.18-2.18ZM131.55,44.59c.25.46.18,1.04-.24,1.39-.42.35-1,.32-1.41,0l1.65-1.38ZM131.28,44.28l-1.65,1.38c-.25-.46-.18-1.04.24-1.39.42-.35,1-.32,1.41,0Z"/>
              <path class="cls-15" d="M167.85,25.61h-14.65l-2.61,5.22h6.09l1.52-3.05h2.21l-2.21,4.53-7.66-1.11-.25,2.61,6.72,1.01-.91,1.81h6.38l.47-.98,4.41.51.28-2.61-3.49-.36,3.7-7.58ZM163.27,26.95c.42-.35,1-.32,1.41,0l-1.65,1.38c-.25-.46-.18-1.04.24-1.39ZM163.29,28.65l1.65-1.38c.25.46.18,1.04-.24,1.39-.42.35-1,.32-1.41,0Z"/>
              <path class="cls-17" d="M228.56,45.09l.75-9.05h-13.13s1.12-1.6,1.12-1.6h-7.69l-1.12,1.6h-7.29s-.15,2.18-.15,2.18h5.91s-17.67,25.41-17.67,25.41h7.69l17.67-25.41h7.36l-.75,9.05h11.21l.18-2.18h-4.1ZM225.85,37.52c.42-.35,1-.32,1.41,0l-1.65,1.38c-.25-.46-.18-1.04.24-1.39ZM227.28,39.23c-.42.35-1,.32-1.41,0l1.65-1.38c.25.46.18,1.04-.24,1.39Z"/>
              <path class="cls-1" d="M199.59,27.8h1.39l.18-2.2h-18.62s-.18,2.2-.18,2.2h1.87l-.88,6.16h-1.83l-.18,2.2h1.72l-1.58,11.14h6.16l1.58-11.14h3.48l-.95,11.14h6.16l.95-11.14h2.13s.18-2.2.18-2.2h-2.09l.51-6.16ZM192.92,33.95h-3.41l.88-6.16h3.04l-.51,6.16ZM195.07,44.27c.42-.35,1-.32,1.41,0l-1.65,1.38c-.25-.46-.18-1.04.24-1.39ZM196.5,45.98c-.42.35-1,.32-1.41,0l1.65-1.38c.25.46.18,1.04-.24,1.39Z"/>
              <path class="cls-5" d="M267.46,27.51l.18-2.18-15.93,1.02-3.02,20.98h6.11s2-13.7,2-13.7h2.51l-1.3,13.7h6.11l1.3-13.7h1.53l.18-2.18h-10.04l.47-3.31,9.9-.62ZM262.82,45.98c-.42.35-1,.32-1.41,0l1.65-1.38c.25.46.18,1.04-.24,1.39ZM261.39,44.27c.42-.35,1-.32,1.41,0l-1.65,1.38c-.25-.46-.18-1.04.24-1.39Z"/>
              <path class="cls-16" d="M35.06,42.88l-.64,4.49h30.17l.65-4.49h-30.17ZM36.21,44.27c.42-.35,1-.32,1.41,0l-1.65,1.38c-.25-.46-.18-1.04.24-1.39ZM37.65,45.98c-.42.35-1,.32-1.41,0l1.65-1.38c.25.46.18,1.04-.24,1.39ZM61.92,44.27c.42-.35,1-.32,1.41,0l-1.65,1.38c-.25-.46-.18-1.04.24-1.39ZM63.36,45.98c-.42.35-1,.32-1.41,0l1.65-1.38c.25.46.18,1.04-.24,1.39Z"/>
              <path class="cls-14" d="M82.63,35.96l3.07-.74-.19,3.15-2.87-2.41Z"/>
            </g>
          </g>
        </g>
      </g>
    </g>
  </g>
</svg>