<?xml version="1.0" encoding="UTF-8"?>
<svg id="_レイヤー_2" data-name="レイヤー 2" xmlns="http://www.w3.org/2000/svg" viewBox="0 0 275.03 28.85">
  <defs>
    <style>
      .cls-1 {
        fill: #fff;
      }
    </style>
  </defs>
  <g id="_背景" data-name="背景">
    <g>
      <path class="cls-1" d="M15.59,18.14L.25,27.88l-.25-.31,12.57-11.72,4.38-9.42-12.25,1.92V2.93l12.73,2.46,1.23-2.61,5.29,2.46-7.81,12.35,11.06,5.58-3.97,4.44-7.62-9.45Z"/>
      <path class="cls-1" d="M31.34,21.92l6.96-9.1.38.13-2.49,11.12-4.85-2.14ZM38.49,24.54v-.44l5.04-.63-.57-13.04-10.08,1.17v-5.26l9.95.76-.28-6.33h5.42l-.19,6.71,10.08.79v.47l-10.17,1.17-.54,18.4-8.66-3.75ZM54.05,23.5l-3.43-10.65.38-.25,7.72,8.38-4.66,2.52ZM57.9.25c-1.22.21-2.23.59-3.02,1.13-.8.55-1.2,1.25-1.2,2.11,0,.42.13.78.38,1.07.25.29.59.44,1.01.44.34,0,.63-.15.88-.44.25-.29.38-.63.38-1.01,0-.29-.08-.58-.25-.87-.17-.28-.46-.53-.88-.74l2.21-1.2c.55.48.95.99,1.2,1.51.25.53.38,1.03.38,1.51,0,.92-.35,1.72-1.04,2.38s-1.54.99-2.55.99c-1.15,0-2.06-.32-2.72-.95-.66-.63-.99-1.45-.99-2.46s.45-1.94,1.35-2.66c.9-.72,2.29-1.09,4.16-1.09.1,0,.21,0,.33.02.12.01.24.02.36.02l.03.22Z"/>
      <path class="cls-1" d="M65.02,27.66l-2.77-5.26,25.96-8.13.16.41-23.34,12.98ZM71.69,13.26l-5.92-9.7.16-.35,10.52,5.83-4.76,4.22Z"/>
      <path class="cls-1" d="M106.57,28.44l1.98-16.88-6.46.85.6,7.5-3.62.38-1.26-7.31-5.54.72-.66-4.82,5.54.16-1.26-7.34,5.29-.66.66,8.13,6.96.19,1.04-8.63,5.67,1.13-2.43,7.62,6.61.16v.44l-7.12.95-5.64,17.55-.38-.13Z"/>
      <path class="cls-1" d="M124.84,17.36l-1.76-6.08,26.68,2.87v.35l-24.92,2.87Z"/>
      <path class="cls-1" d="M157.88,28.57l-.44-14.77-3.62,7.97-.41-.13,1.39-11.97,2.61,2.99-.13-4.32-3.24.82v-4.72l3.15.57-.13-4.76h4.91l-.13,5.54,2.27.41v.44l-2.3.57-.03,1.98,2.55,4.44-1.51,4.66-1.07-7.62-.41,17.89h-3.46ZM162.01,23.4l8-2.33.25.38-6.05,6.21-2.21-4.25ZM163.9,17.45l.16-.32,5.51.79-2.65,3.78-3.02-4.25ZM174.73,19.62l-.54,9.23-7.4-2.46v-.28l3.97-1.58-.09-8.95-6.21,1.04v-4.41l6.17.38-.03-1.73-4.57.72v-3.78l4.57.38-.03-1.39-5.83.95V3.34l4.44.38-2.8-3.15.22-.28,6.8.95-3.37,2.55,3.43.28,1.58-3.81,5.89,1.48-6.39,2.43,6.9.57v.32l-9.7,1.57h3.78l-.13,1.98,4.76.41v.38l-4.85.76-.16,2.71,7.21.44v.32l-7.34,1.23-.22,3.94,6.43,3.91-2.39,4.82-4.09-7.88ZM177.06,19.62l-.44-.19.88-4.54,3.72,1.83-4.16,2.9Z"/>
      <path class="cls-1" d="M211.05,25.55c-2.67.34-5.44.61-8.32.82-2.88.21-5.69.32-8.44.32-3.21,0-5.5-.31-6.87-.93-1.37-.62-2.05-1.51-2.05-2.66,0-.44.09-.92.27-1.45.18-.52.44-1.08.77-1.67.57-1.03,1.25-2.11,2.06-3.24.81-1.13,1.67-2.19,2.6-3.18l.22.28c-.23,1.41-.42,2.72-.57,3.94-.15,1.22-.23,2.27-.25,3.15v.25c0,.97.12,1.66.36,2.08.24.42.75.63,1.53.63.46,0,1.05-.06,1.76-.19.88-.17,1.96-.38,3.24-.65,1.28-.26,2.67-.57,4.16-.93,1.49-.36,2.99-.75,4.5-1.18,1.51-.43,2.95-.88,4.32-1.34l.69,5.95ZM189.63,5.39v-.31l18.9-.44-.72,5.89-18.18-5.13ZM205.32,15.15v-4.09l3.75,2.02-3.75,2.08ZM209.13,13.01v-3.72l3.4,1.83-3.4,1.89Z"/>
      <path class="cls-1" d="M237.45,28.26l-.06-2.61-5.42,1.45-.06,1.48h-3.4l-.79-12.22-3.02,1.61-.25-3.21-4.41,1.35h3.87l-.54,12.47h-3.56l-.41-9.07-3.56,6.87-.25-.06.6-8.03,3.21.79-.13-2.74-3.78,1.17-.35-4.47,2.96.38,2.55-4.6-3.31,1.8-1.7-5.95.28-.22,1.89,1.23,2.49-5.36,5.04,1.35-7.12,4.28,2.96,1.89,1.83-3.31,4.47,2.17-8.54,6.8,5.45.66-.28-3.78.22-.13,3.34,5.61-.06-1.2h4.91l-.06,1.39,9.45-2.74-1.01,14.96h-3.46ZM224.63,25.64l-.25-6.77.25-.03,3.31,5.23-3.31,1.57ZM232.82,10.49v-.41l4.13-.82.47-4-10.65-2.02v-.44l15.84-1.67-2.71,12.66-7.09-3.31ZM227.08,13.7l2.83-9.51,5.29,1.64-7.81,8.13-.31-.25ZM237.23,17.67l-4.79-.85-.28,6.33,5.23,1.48-.16-6.96Z"/>
      <path class="cls-1" d="M261.58,4.66l-14.77,9.92-.25-.38L258.21.22l7.5,1.64-3.46,2.33,12.79,3.28-1.89,6.24-11.56-9.04ZM249.7,28.38l3.46-17.42,5.04,1.39-8.06,16.22-.44-.19ZM265.01,28.57l-1.07-17.55h5.04l-.44,17.55h-3.53Z"/>
    </g>
  </g>
</svg>