<?xml version="1.0" encoding="UTF-8"?>
<svg id="_レイヤー_2" data-name="レイヤー 2" xmlns="http://www.w3.org/2000/svg" viewBox="0 0 329.88 44.06">
  <defs>
    <style>
      .cls-1 {
        fill: #006837;
      }
    </style>
  </defs>
  <g id="_文字" data-name="文字">
    <g>
      <path class="cls-1" d="M33.26,43.96L11.18,22.79l-2.27,2.11-.65,18.47H1.46L0,1.24h9.72l-.65,18.79L22.84.7l9.77,2.59-14.53,13.18,15.93,27.54-.76-.05Z"/>
      <path class="cls-1" d="M68.8,43.96l-6.37-13.61-21.38,3.73-5.62,9.88h-.81L49.36,1.3l8.53-1.3,17.28,43.25-6.37.7ZM53.62,11.56l-8.37,14.96,16.52,2.54-8.15-17.5Z"/>
      <path class="cls-1" d="M111.51,44.06l-22.46-32.24-4.81,32.24h-.86l-3.46-42.82h8.86l18.47,22.36L112.97.7h1.03l-2.05,43.36h-.43Z"/>
      <path class="cls-1" d="M152.98,43.96l-6.37-13.61-21.38,3.73-5.62,9.88h-.81L133.54,1.3l8.53-1.3,17.28,43.25-6.37.7ZM137.81,11.56l-8.37,14.96,16.52,2.54-8.15-17.5Z"/>
      <path class="cls-1" d="M166.21,43.9l-2-42.66h9.83l-.11,4.1,19.44-4.64v8.75l-19.49-1.89-.32,13.66,17.06-4v8.59l-17.12-2.43-.32,13.01,21.28,2.27v.54l-28.24,4.7Z"/>
      <path class="cls-1" d="M227.45,44.06c-5.54,0-10.17-.25-13.88-.76-3.71-.5-6.64-1.33-8.8-2.48-2.16-1.15-3.71-2.66-4.64-4.54-.94-1.87-1.4-4.16-1.4-6.86,0-3.49.56-6.5,1.67-9.02,1.12-2.52,2.64-4.45,4.56-5.81,1.93-1.35,4.09-2.02,6.51-2.02,3.28,0,6.24.35,8.88,1.05,2.65.7,4.85,1.56,6.61,2.56l-3.46,7.18c-2.2-2.2-4.16-3.9-5.89-5.1-1.73-1.21-3.49-1.81-5.29-1.81-1.04,0-2,.42-2.86,1.27-.86.85-1.54,2.24-2.02,4.19-.49,1.94-.73,4.59-.73,7.94,0,2.41.7,4.43,2.11,6.05,1.4,1.62,3.65,3.02,6.72,4.19,3.08,1.17,7.12,2.3,12.12,3.38l-.22.59Z"/>
      <path class="cls-1" d="M252.83,43.36l-.86-18.52c-.11-2.38-.42-3.95-.95-4.73-.52-.77-1.34-1.16-2.46-1.16-.9,0-2.16.24-3.78.73-1.62.49-3.19,1.21-4.7,2.19l-.7,21.49h-6.64l-1.4-42.12h9.45l-.59,18.14c1.12-1.33,2.41-2.51,3.89-3.54s3.03-1.83,4.67-2.4c1.64-.58,3.21-.86,4.72-.86,2.7,0,4.54.73,5.51,2.19s1.46,3.57,1.46,6.34c0,.25,0,.5-.03.73-.02.23-.03.5-.03.78l-.87,20.74h-6.7Z"/>
      <path class="cls-1" d="M297.92,39.04c-1.66,1.55-3.12,2.77-4.37,3.67-1.26.9-2.39,1.35-3.4,1.35-.79,0-1.5-.32-2.13-.94-.63-.63-1.21-1.65-1.75-3.05-1.12.97-2.48,1.79-4.1,2.46-1.62.67-3.37,1.11-5.24,1.32-.58.07-1.13.13-1.67.16-.54.04-1.06.05-1.57.05-5.08,0-7.61-1.82-7.61-5.45,0-.43.04-.88.11-1.35.07-.47.18-.97.32-1.51.32-1.19.98-2.26,1.97-3.21.99-.95,2.19-1.82,3.59-2.59,1.4-.77,2.84-1.49,4.32-2.16,1.48-.67,2.85-1.3,4.13-1.89,1.28-.59,2.32-1.18,3.13-1.76.81-.58,1.21-1.15,1.21-1.73,0-1.58-.2-2.65-.59-3.21-.4-.56-1.15-.84-2.27-.84-.79,0-2.02.07-3.67.22-1.66.14-3.47.36-5.45.65-1.98.29-3.87.67-5.67,1.13l-.27-.54c.97-.94,2.22-1.84,3.75-2.7,1.53-.86,3.17-1.64,4.91-2.32,1.75-.68,3.48-1.22,5.21-1.62,1.73-.4,3.29-.59,4.7-.59,2.23,0,3.9.23,5,.68,1.1.45,1.84,1.33,2.21,2.65.38,1.31.57,3.29.57,5.91v13.66c0,1.3.12,2.22.35,2.78.23.56.78.84,1.65.84.29,0,.64-.04,1.05-.11.41-.07.87-.16,1.38-.27l.22.32ZM285.28,27.11c-.79.68-1.84,1.41-3.16,2.19-1.31.77-2.58,1.6-3.81,2.48-1.22.88-2.12,1.86-2.7,2.94-.5,1.01-.76,1.89-.76,2.65s.22,1.31.67,1.78c.45.47,1.09.7,1.92.7.18,0,.37,0,.57-.03.2-.02.39-.04.57-.08.72-.18,1.56-.43,2.51-.76.95-.32,1.85-.7,2.7-1.13.84-.43,1.45-.86,1.81-1.3l-.32-9.45Z"/>
      <path class="cls-1" d="M322.27,43.36l-.86-18.52c-.11-2.38-.42-3.95-.95-4.73-.52-.77-1.34-1.16-2.46-1.16-.86,0-2.07.23-3.62.68-1.55.45-3.06,1.14-4.54,2.08l-1.03,21.65h-6.64l-1.4-30.08h9.45l-.27,5.72c1.12-1.26,2.4-2.38,3.86-3.35,1.46-.97,2.98-1.73,4.56-2.27,1.58-.54,3.1-.81,4.54-.81,2.7,0,4.54.73,5.51,2.19.97,1.46,1.46,3.57,1.46,6.34,0,.25,0,.5-.03.73-.02.23-.03.5-.03.78l-.86,20.74h-6.7Z"/>
    </g>
  </g>
</svg>