<?xml version="1.0" encoding="UTF-8"?>
<svg id="_レイヤー_2" data-name="レイヤー 2" xmlns="http://www.w3.org/2000/svg" viewBox="0 0 292.3 87.63">
  <defs>
    <style>
      .cls-1 {
        fill: #fff;
      }

      .cls-2 {
        fill: #e50053;
      }
    </style>
  </defs>
  <g id="_文字" data-name="文字">
    <g>
      <g>
        <path class="cls-2" d="M9.85,87.63c-.46,0-.93-.07-1.38-.22-1.23-.39-2.23-1.3-2.75-2.48l-2.14-4.88c-.55-1.25-.5-2.67.13-3.88.02-.04.04-.08.07-.12l-.51-1.74c-.69-.66-1.16-1.52-1.33-2.48l-.85-4.83c-.09-.49-.09-.98-.02-1.45-.98-1.16-1.33-2.75-.88-4.23l3.43-11.2c.59-1.92,2.39-3.22,4.4-3.18l6.14.13c1.01.02,1.97.38,2.73.99v-.04c.54-2.01,2.38-3.41,4.45-3.36l6.88.14c1.71.03,3.25,1.03,3.98,2.58.17.35.28.72.35,1.09l3.76,1.15c1.17.36,2.14,1.17,2.69,2.26.55,1.09.64,2.35.25,3.5l-.67,1.94c.78.79,1.24,1.86,1.28,2.99l.58,16.39c.05,1.53-.67,2.97-1.92,3.85-1.25.87-2.86,1.05-4.27.48l-.71-.29c-.43,1.67-1.8,3-3.58,3.31l-3.55.63c-2.26.4-4.43-.96-5.09-3.12l-9.17,5.44c-.7.42-1.5.63-2.3.63Z"/>
        <path class="cls-2" d="M41.32,80.83c-.9,0-1.8-.27-2.58-.81l-.32-.23c-1.79-1.25-2.42-3.61-1.5-5.59l4.34-9.31-7.27-7.29c-1.54-1.54-1.75-3.97-.5-5.76l.23-.32c1.25-1.79,3.61-2.42,5.59-1.5l9.31,4.35,7.33-7.29c1.55-1.54,3.97-1.75,5.76-.49l.32.23c1.79,1.25,2.42,3.6,1.5,5.58l-4.34,9.34,7.28,7.3c1.62,1.62,1.76,4.21.32,5.99l-.23.29c-1.29,1.61-3.52,2.14-5.39,1.27l-9.38-4.32-7.28,7.25c-.87.87-2.02,1.31-3.18,1.31Z"/>
        <path class="cls-2" d="M71.97,76.67c-.58,0-1.17-.11-1.72-.34l-.42-.17c-1.49-.62-2.52-1.97-2.74-3.53-.79.11-1.62,0-2.4-.34l-.46-.2c-1.6-.7-2.65-2.27-2.69-4.02l-.15-6.85c-.1-.05-.21-.11-.31-.18-1.08-.68-1.83-1.78-2.05-3.03l-.97-5.51c-.22-1.22.08-2.48.83-3.48.42-.57.97-1.02,1.59-1.33l-.59-3.33c-.22-1.24.09-2.51.86-3.51.76-1,1.91-1.63,3.16-1.75l4.25-.39c.12-.4.3-.78.53-1.14.68-1.05,1.77-1.77,3-1.99l5.72-1.01c1.23-.22,2.5.09,3.5.85.67.51,1.18,1.19,1.48,1.95l5.57-.52c2.35-.22,4.44,1.39,4.85,3.7l.07.41c.18,1.02,0,2.04-.46,2.9l.3-.03c2.37-.27,4.53,1.35,4.94,3.7l.07.41c.4,2.27-.98,4.47-3.2,5.1l-1.48.42,4.48,5.05c.86.97,1.26,2.27,1.1,3.56-.16,1.29-.88,2.44-1.95,3.17l-4.72,3.17.08.7c.16,1.38-.32,2.76-1.31,3.73-.99.97-2.37,1.44-3.75,1.26l-10.46-1.38-.27.84c-.38,1.2-1.25,2.19-2.39,2.73-.6.28-1.25.42-1.9.42Z"/>
        <path class="cls-2" d="M104.24,70.88c-1.98,0-3.78-1.32-4.33-3.29l-3.55-12.67c-.34-1.22-.15-2.53.52-3.61.34-.54.78-.99,1.29-1.33l-.4-1.22c-1.63-.19-3.07-1.26-3.68-2.85l-2.61-6.75c-.49-1.26-.38-2.66.28-3.83.66-1.17,1.81-1.99,3.14-2.22l5.51-.97c.86-.15,1.74-.05,2.53.29.08-.23.18-.46.3-.68.66-1.19,1.82-2.03,3.16-2.26l5.51-.97c1.34-.24,2.71.15,3.74,1.04.12.1.22.2.33.31l7.62-2.08c1.31-.36,2.72-.1,3.83.7s1.79,2.06,1.85,3.42l.39,7.86c.1,1.97-1.09,3.74-2.88,4.42.51.13,1,.36,1.45.67,1.1.77,1.79,1.99,1.9,3.32l1.07,13.53c.18,2.31-1.42,4.38-3.71,4.79l-4.07.72c-1.4.25-2.76-.18-3.75-1.05l-7.52,1.84c-.65,1.07-1.74,1.87-3.07,2.1l-4.07.72c-.26.05-.53.07-.79.07Z"/>
        <path class="cls-2" d="M136.71,63.73c-.81,0-1.62-.22-2.33-.65-1.11-.67-1.87-1.79-2.1-3.07l-1.03-5.83c-.22-1.23.09-2.49.84-3.49.75-1,1.88-1.64,3.12-1.77l5.97-.62-.43-2.05-7.08,2.33c-1.24.41-2.6.26-3.72-.41-1.12-.67-1.89-1.79-2.12-3.08l-1.03-5.86c-.21-1.2.07-2.44.79-3.43s1.81-1.64,3.02-1.81l7.34-1.01-.87-4.2c-.25-1.19,0-2.43.68-3.44.68-1.01,1.75-1.7,2.94-1.91l6.1-1.08c1.2-.21,2.44.07,3.42.79.99.72,1.64,1.8,1.81,3.01l.68,4.77,8.35-1.17c2.4-.34,4.63,1.29,5.06,3.67l.07.41c.39,2.21-.9,4.36-3.03,5.06l-8.88,2.91.71,5.03,7.43-.79c2.33-.25,4.5,1.36,4.91,3.69l.07.41c.39,2.22-.92,4.4-3.08,5.08l-26.26,8.29c-.44.14-.9.21-1.35.21Z"/>
        <path class="cls-2" d="M167.47,58.59c-.9,0-1.8-.27-2.58-.81l-.32-.23c-1.79-1.25-2.42-3.61-1.5-5.59l4.34-9.31-7.27-7.29c-1.54-1.55-1.75-3.98-.5-5.76l.23-.32c1.25-1.79,3.61-2.42,5.59-1.49l9.31,4.35,7.33-7.29c1.55-1.54,3.98-1.75,5.76-.49l.32.23c1.78,1.25,2.41,3.6,1.49,5.58l-4.34,9.34,7.28,7.3c1.62,1.62,1.76,4.2.33,5.99l-.23.29c-1.29,1.62-3.52,2.14-5.4,1.28l-9.38-4.32-7.28,7.25c-.87.87-2.02,1.31-3.18,1.31Z"/>
        <path class="cls-2" d="M199.68,54.22c-.31,0-.62-.03-.93-.1l-7.97-1.69c-1.79-.38-3.18-1.81-3.5-3.61l-.06-.34c-.22-1.24.09-2.48.8-3.46-.82-.56-1.45-1.39-1.76-2.36l-1.77-5.62c-.4-1.27-.21-2.59.43-3.66-.43-.56-.72-1.23-.85-1.94l-.89-5.07c-.23-1.29.12-2.62.96-3.64.53-.65,1.23-1.12,2-1.39l-.23-1.29c-.21-1.18.05-2.39.73-3.38s1.73-1.65,2.91-1.86l5.58-.98c1.22-.21,2.47.08,3.46.82.4.29.74.65,1.01,1.04l15.59-4.31c1.38-.38,2.86-.08,3.99.81,1.12.89,1.76,2.26,1.7,3.7l-.36,9.5c1.07.74,1.78,1.92,1.91,3.24l1.71,16.58c.24,2.35-1.37,4.48-3.7,4.89l-3.86.68c-1.57.28-3.1-.3-4.1-1.39l-.12.05c-.49,1.55-1.81,2.77-3.51,3.07l-3.86.68c-.78.14-1.55.07-2.25-.18-.02.02-.03.03-.05.05-.84.77-1.92,1.18-3.04,1.18Z"/>
        <path class="cls-2" d="M241.71,47.45c-.71,0-1.43-.17-2.08-.51l-14.55-7.56c-1.33-.69-2.23-2-2.4-3.49-.92-.55-1.62-1.42-1.96-2.45l-1.83-5.54c-.4-1.21-.27-2.53.36-3.64.45-.79,1.12-1.42,1.92-1.81l-.98-3.88c-.31-1.23-.09-2.54.62-3.6s1.83-1.77,3.08-1.96l3.57-.53c.04-.22.1-.45.18-.67.44-1.26,1.42-2.27,2.67-2.74l5.9-2.21c2.16-.81,4.58.14,5.61,2.21l.58,1.16,4.56-.68c1.23-.18,2.49.15,3.47.93.98.78,1.58,1.93,1.68,3.18l.03.35c.04.58-.02,1.14-.19,1.67.92.01,1.82.31,2.58.86,1.04.76,1.71,1.93,1.83,3.22l.04.42c.18,1.95-.92,3.79-2.72,4.56l-3.34,1.42,1.01,2.03c1.07,2.14.27,4.75-1.82,5.92l-1.61.91c.29.87.32,1.83.04,2.73l-1.95,6.49c-.39,1.28-1.32,2.33-2.56,2.85-.56.24-1.16.36-1.75.36Z"/>
        <path class="cls-2" d="M267.87,42.06c-.36,0-.72-.04-1.07-.13l-8.77-2.15c-1.73-.42-3.05-1.83-3.36-3.59l-.1-.55c-.08-.43-.09-.86-.04-1.28-.14-.18-.26-.38-.38-.58l-.26-.49c-.47-.87-.64-1.87-.48-2.84l.96-6.04c-1.06-.43-1.93-1.26-2.41-2.33l-.24-.53c-.48-1.07-.52-2.28-.12-3.38l1.24-3.38-2.06-3.7c-.84-1.51-.74-3.36.25-4.77l.34-.49c.77-1.1,1.98-1.79,3.32-1.9.93-.08,1.84.13,2.62.59.38-.31.81-.55,1.28-.73,1.24-.46,2.62-.34,3.77.31l1.26.72c.08-.18.17-.35.28-.52.68-1.09,1.78-1.83,3.04-2.05l5.14-.91c.83-.15,1.67-.06,2.44.25.48-.3,1.02-.5,1.58-.6l5.14-.91c1.29-.23,2.61.12,3.62.94.82.67,1.37,1.59,1.57,2.61,2.1.07,3.91,1.6,4.28,3.71l.09.52c.24,1.34-.14,2.65-.95,3.64.07.24.12.49.15.75l2.28,20.57c.26,2.36-1.35,4.51-3.69,4.93l-3.41.6c-1.58.28-3.12-.31-4.12-1.42l-2.24.81c-.58,1.36-1.81,2.4-3.36,2.68l-3.38.6c-.45.08-.9.09-1.33.04-.02.02-.04.03-.06.05-.8.64-1.79.98-2.8.98Z"/>
      </g>
      <g>
        <path class="cls-1" d="M9.85,83.13l-2.14-4.88,5.08-1.04-1.77-7.83-4.65,1.67-.85-4.83,4.78-.1-.64-2.84-2.59,1.06-.58-3.31-1.58,1.95-.42-.35,3.43-11.2,6.14.13-1.84,2.28,6.97.23-1.71,5.63-5.64-5.37-4.2,5.22,9.36.27.09.48-6.57,2.65,4.38-.77.5,3.86,3.68-.08.08.48-3.54,1.26,1.11,8.72,5.28-1.07.08.48-12.26,7.28ZM8.9,77.5l-1.78-6.08.35-.24,4.63,3.31-3.2,3.02ZM17.42,75.25l-.12-6.91,4.18,1.54-3.68,5.52-.38-.15ZM26.04,51.98l-7.55,9.58-.39-.39,3.14-12,6.88.14-1.6,2.02,8.46,2.6-1.95,5.67-6.99-7.62ZM29.54,74.25l-.07-.41,2.25-1.14-.62-5.93-3.02-.18,1.09,13.03-3.55.63-3.11-12.99,4.34-.77-7.29-.45-.04-.42,15.83-5.14.58,16.39-6.39-2.6ZM21.9,63.55l-.87-4.93,10.28-.18.08.45-9.49,4.66Z"/>
        <path class="cls-1" d="M63.03,72.5l-12.22-5.63-9.49,9.46-.32-.23,5.67-12.16-9.5-9.52.23-.32,12.16,5.67,9.55-9.5.32.23-5.67,12.19,9.5,9.52-.23.29Z"/>
        <path class="cls-1" d="M76.73,68.17l-.1-.55,6.23-2.16-2.92-12.95-6.7,1.93,4.28.1-5.56,17.65-.42-.17.28-17.18-8.36,2.4-.97-5.51,12.58-1.4-.99-4.02-8.78,2.79-.97-5.51,8.85-.81-.7-2.76,5.72-1.01.32,3.25,9.86-.92.07.41-9.66,3.05.5,5.06,13.94-1.57.07.41-12.01,3.43,4.14-.73,2.14,18.21-10.84-1.43ZM66.03,67.96l-.22-10.34,5.57.97-4.89,9.57-.46-.2ZM89.44,64.65l-2.78-10.95.38-.28,7.14,8.05-4.73,3.18Z"/>
        <path class="cls-1" d="M121.32,40.65l-.8-3.31-19,1.68.63,4.58-3.86.68-2.61-6.75,5.51-.97.27,1.94,6.85-1.88-1.12-2.72,5.51-.97-.09,2.5,12.17-3.32.39,7.86-3.86.68ZM122.66,62.77l-.37-1.89-14.17,3.46.2,1.32-4.07.72-3.55-12.67,5.79-1.02.14,1.01,19.03-5.17,1.07,13.53-4.07.72ZM118.34,49.35l-.27-1.12-14.32,4.27-2.28-6.88,5.48-.97.1.98,14.86-4.4.25,7.45-3.83.67ZM103.36,44.64l-.7-3.96,17.59-1.4.07.38-16.96,4.98ZM106.69,54.25l.29,1.83,4.36-.09-.46-1.59,3.72-.66-7.91.51ZM117.37,45.3l-10.27.82.25,2.44,10.58-.84-.57-2.42ZM111.97,58.19l-4.58.84.26,1.87,5.03-.28-.71-2.43ZM120.79,53.37l-4.39.28.14,2.21,4.75-.09-.5-2.4ZM121.4,56.42l-4.74.91.18,3.03,5.28-.29-.71-3.64Z"/>
        <path class="cls-1" d="M136.71,59.23l-1.03-5.83,10.92-1.14-2.48-11.86-11.86,3.9-1.03-5.86,12.11-1.67-1.86-8.91,6.1-1.08,1.31,9.22,12.8-1.79.07.41-12.47,4.08,1.84,13.07,11.75-1.26.07.41-26.26,8.29Z"/>
        <path class="cls-1" d="M189.19,50.26l-12.22-5.63-9.49,9.46-.32-.23,5.67-12.16-9.5-9.52.23-.32,12.16,5.67,9.55-9.5.32.23-5.67,12.19,9.5,9.52-.23.29Z"/>
        <path class="cls-1" d="M191.71,48.04l-.06-.34,3.56-1.98-1.41-7.57-3.25,3.17-1.77-5.62,4.27-1.57-.92-4.99-3.64,1.53-.89-5.07,3.86-.08-1.14-6.27,5.58-.98.87,7.17,3.08-.05.08.48-2.98,1.24.62,5.33,2.47-.9.07.41-2.3,2.25,1.85,15.52-7.97-1.69ZM206.87,27.81l-.08-.45,4.79-1.66-.17-4.59-13.06.1-.08-.48,18.13-5.01-.54,14.28-8.99-2.18ZM200.3,33.87l-.31-.16,2.27-12.13,6.38.72-8.34,11.56ZM215.83,46.34l-.54-2.89-7.38,2.9.19,1.71-3.86.68-3.51-15.05,5.52-.97.18,1.43,11.55-5.06,1.71,16.58-3.86.68ZM213.61,34.79l-7.09.29.86,7.06,7.71.42-1.48-7.77Z"/>
        <path class="cls-1" d="M243.56,32.32l-3.98-6.48-14.58,6.2-1.83-5.54,14.82-3.25-2.49-4.04-9.53,3.81-1.4-5.55,9.04-1.34-1.71-2.83,5.9-2.21,2.04,4.08,7.79-1.16.03.35-6.87,2.74,2.48,5,8.62-1.91.04.42-7.74,3.28,3.14,6.31-3.75,2.12ZM227.15,35.39v-.28s16.5,1.35,16.5,1.35l-1.95,6.49-14.55-7.56Z"/>
        <path class="cls-1" d="M259.11,35.41l-.1-.55,4.9-2.25-1.18-7.72-4.6,6.75-.26-.49,1.67-10.49,3,3.1-.19-1.25-3.21-5.72-3.05,3.45-.24-.53,1.94-5.32-3.07-5.5.34-.49,3.6,3.67,1.49-4.06,4.54,2.58-3.56,4,6.54,6.63.22,16.35-8.77-2.15ZM282.2,9.8l.12,3.89-3.65.64-.66-3.33-4.34,1.19.35,2.82-3.65.64-.7-2.33-4.03,1.14-.9-5.1,3.69-.22-.72-2.47,5.14-.91.4,3.09,4.26-.22-.64-3.23,5.14-.91.11,3.85,4.15-.23.09.52-4.17,1.16ZM284.39,33.9l-.53-2.79-9.42,3.4.22,1.45-3.38.6-4.38-19.77,4.93-.87.27,1.94,13.42-5.14,2.28,20.57-3.41.6ZM274.46,19.12l3.31-.58h-5.58s.51,3.49.51,3.49l2.5.27-.74-3.18ZM275.97,25.61l-2.67.61.52,3.75,3.14.05-.99-4.41ZM281.54,18.55h-1.99s.51,4.28.51,4.28l2.32.27-.84-4.54ZM282.56,24.13l-2.33.52.6,5.44,2.85.03-1.13-5.99Z"/>
      </g>
    </g>
  </g>
</svg>