<?xml version="1.0" encoding="UTF-8"?>
<svg id="_レイヤー_2" data-name="レイヤー 2" xmlns="http://www.w3.org/2000/svg" viewBox="0 0 54.72 283.76">
  <defs>
    <style>
      .cls-1 {
        fill: #da4713;
      }
    </style>
  </defs>
  <g id="_文字" data-name="文字">
    <g>
      <path class="cls-1" d="M.42,13.21l-.42-3.38,11.65-1.01-.29-1.39-7.44,1.43L1.99,2.79l4.75-.58.14,1.14,3.46-.73-.41-1.86L14.71.17l.06,1.51,7.95-1.67-.17,7-3.32.41-.21-1.43-4,.76.07,1.78,12.3-1.09.05.39L.42,13.21ZM20.79,22.29l-.15-.98-8.85,2.06,4.2,2.12-12.75,3.39-.23-.4,7.69-4.86-5.22,1.22-2.4-11.41,5.02-.62.07.84,15.84-4.37.3,12.58-3.53.43ZM10.57,3.74l-3.63.08.21,1.92,3.84-.08-.42-1.92ZM19.38,13l-11.14,1.16.07,1.05,11.38-.18-.31-2.02ZM19.74,15.44l-11.26,1.69.1,1.05,11.53-.45-.37-2.29ZM20.17,18.18l-11.42,1.89.12,1.23,11.67-.55-.38-2.56ZM18.7,3.53l-3.84.11.12,1.93,3.99-.1-.27-1.94ZM15.93,22.98l.21-.27,11.49-.32-2.87,3.78-8.83-3.19Z"/>
      <path class="cls-1" d="M17.03,53.91l-.06-.48,6.11-1.6-.14-8.05-8.84.15-.28,5.4-7.18,8.98-.32-.14,3.4-9.61-.43-9.44-5.14,1.12-.59-4.78,10.73-.56-.91-4.23,5.08-.62-.4,4.66,12.24-.65.05.42-20.26,4.46,4.27-.07-.23,4.31,13.6-4.64-1.11,17.85-9.58-2.46Z"/>
      <path class="cls-1" d="M25.36,80.01c1.1-1.39,1.97-2.72,2.6-4.01.63-1.28,1.06-2.44,1.29-3.46.23-1.03.3-1.86.22-2.5-.11-.88-.38-1.72-.83-2.54-.44-.81-1.14-1.52-2.08-2.11-1.2,1.77-2.3,3.36-3.31,4.77-1.01,1.42-2.03,2.74-3.06,3.96-1.03,1.22-2.19,2.43-3.48,3.64-1.13,1.05-2.13,1.84-3,2.39-.87.54-1.64.85-2.3.93-.8.1-1.42-.13-1.88-.69-.45-.56-.75-1.42-.89-2.58-.14-1.12-.13-2.5.04-4.16.09-1.06.36-2.14.81-3.24.45-1.1,1.03-2.16,1.72-3.18.69-1.03,1.46-1.95,2.28-2.78s1.67-1.51,2.54-2.03c.87-.52,1.69-.83,2.47-.92,1.45-.18,2.91-.17,4.35.01,1.45.19,2.83.52,4.14.99,1.31.48,2.49,1.07,3.53,1.8,1.04.72,1.88,1.53,2.53,2.43.65.9,1.03,1.86,1.16,2.88.07.56,0,1.23-.21,2.03-.21.79-.62,1.66-1.23,2.61-.61.94-1.5,1.93-2.65,2.97-1.16,1.03-2.64,2.06-4.46,3.1l-.31-.3ZM26.34,65.23c-1.14-.69-2.38-1.2-3.74-1.54-1.36-.34-2.63-.44-3.83-.29-.72.09-1.44.47-2.17,1.13-.73.67-1.4,1.51-2.02,2.54-.62,1.03-1.13,2.12-1.52,3.28-.39,1.16-.6,2.29-.63,3.38-.01.39,0,.71.03.97.09.72.38,1.05.88.98.34-.04.85-.28,1.52-.7,1.63-1.05,3.43-2.4,5.39-4.04,1.96-1.65,3.99-3.55,6.09-5.71Z"/>
      <path class="cls-1" d="M16.86,110.11l-.05-.42,2.61-.74-1.36-5.35-1.54.8-1.84-10.57-1.27,18.81-.44-.13-2.94-24.94,5.06.17-.05,1.04,8.81-2.9.53,4.33-9.4-.7-.22,3.12,3.62-.44.09,1.72.92-.42-.67-3.5,4.52.72-2.78,2.28,3.82-1.77.78,10.79-2.69.33-.2-.89-3.56,1.86,3.68-.45.48,9.8-5.87-2.56ZM14.12,111.75l-.34-.29,1.52-5.92,3.27,1.66-4.45,4.55ZM20.82,95.43l-2.33-.96.11,1.9,2.58.72-.36-1.66ZM21.36,97.82l-2.61,1.5.05.9,3.19.55-.64-2.96ZM22.68,105.39l.23-.36,4.61,2.71-2.35,3.11-2.49-5.46ZM34,105.43l-.4-2.53-6.73,3.71-2.27-15.8,4.48-.55.07,1.57.85-.47-1.1-3.05-4.1,1.44-.5-4.09,11.94-.31.04.36-6.42,2.28,4.21-.09-3.04,2.89,4.72-2.61,1.38,16.88-3.11.38ZM26.29,112.26l-.22-.34,3.3-6.2,3.56,2.84-6.64,3.7ZM31.86,92.43l-2.67.24.08,1.36h2.85s-.26-1.59-.26-1.59ZM32.24,94.75l-2.86,1.63.07,1.57h3.34s-.55-3.19-.55-3.19ZM32.89,98.59l-3.36,1.81.07,1.36,3.84.35-.55-3.51ZM31.82,105.91l.14-.38,6.64,1.25-1.81,4.07-4.97-4.94Z"/>
      <path class="cls-1" d="M19.3,138.6l-4.44-20.57,5.07-.74,2,13.83,7.83-2.45.06.24-10.52,9.69ZM36.48,131.24l-4.04-13.85.28-.19,8.88,11.04-5.12,3Z"/>
      <path class="cls-1" d="M25.7,165.05l-.29-2.12-5.15,3-3.48-21.14,4.51-.55.21,2.22,5.62-3.39,1.71,21.6-3.14.39ZM23.25,147.76l-1.69-.7,1.34,14.34,2.41.89-2.06-14.52ZM36.83,166.99l-1.88-14.6-6.12,1.81-.62-5.05h6.31s-1.17-9-1.17-9l5.17-.63.7,9.65h5.28s.05.41.05.41l-5.18,1.52,1.14,15.45-3.68.45Z"/>
      <path class="cls-1" d="M23.07,193.26l12.12-13.23-11.08,2.88-.65-4.77,17.42-.9-13.93,19.18-3.88-3.16ZM27.72,171.6l-.06-.21,11.26-.66-1.19,4.85-10.01-3.99ZM34.01,186.97l3.92-2.67,3.85,5.17,6.31-3.44.14.16-6.54,8.48-7.68-7.7Z"/>
      <path class="cls-1" d="M48.62,222.46c-.86-.42-1.84-.85-2.93-1.28-1.1-.43-2.22-.83-3.38-1.19-.04,1.36-.15,2.43-.34,3.2-.19.77-.46,1.32-.8,1.66-.34.34-.77.54-1.29.6-.22.03-.46.04-.72.03-.26,0-.55-.03-.86-.08-1.21-.13-2.51-.5-3.91-1.1-1.4-.6-2.74-1.34-4.02-2.24-1.83-1.27-2.81-2.34-2.91-3.22-.08-.62.26-1.12,1-1.5.74-.38,1.85-.67,3.33-.85.94-.11,1.96-.19,3.06-.24,1.11-.04,2.25-.05,3.43-.01-.09-.72-.19-1.48-.31-2.28-.12-.8-.25-1.62-.39-2.45l-9.03,2.56-.83-4.51,9.4-.76c-.09-.58-.19-1.13-.3-1.68-.11-.54-.21-1.07-.32-1.58l-9.29,2.17-.92-4.56,9.66-.4c-.15-.69-.29-1.33-.43-1.92-.14-.59-.27-1.1-.39-1.53l4.87-.6.47,3.86,9.24-.38.03.24-8.99,2.11.48,3.94,7.93-.64.07.35-7.77,2.2.21,1.73c.1.8.18,1.55.26,2.27.08.72.15,1.4.2,2.04,1.45.13,2.88.29,4.28.51,1.4.21,2.7.48,3.89.8l-1.69,4.73ZM38.56,218.87c-.96-.25-1.86-.45-2.71-.61-.85-.16-1.59-.25-2.22-.27-.06-.01-.12-.02-.18,0-.06,0-.11.01-.15.02-.34.04-.49.2-.46.48.02.2.14.46.34.79.2.33.53.75.97,1.26.33.38.81.8,1.44,1.23s1.23.75,1.8.95c.1.03.21.06.31.08.1.03.2.04.28.03.18-.02.33-.14.44-.36.11-.22.19-.61.22-1.18.03-.57,0-1.38-.09-2.42Z"/>
      <path class="cls-1" d="M42.99,255.15c.17-1.03.31-2.12.4-3.25.09-1.13.16-2.2.2-3.21.04-1.01.06-1.81.07-2.42-.41.92-.9,1.61-1.47,2.08-.57.46-1.18.74-1.84.82-.98.12-2.02-.14-3.14-.78-1.12-.64-2.25-1.58-3.39-2.81-.68-.75-1.06-1.46-1.14-2.14-.12-1.02.36-1.92,1.44-2.72,1.08-.8,2.73-1.34,4.95-1.61.42-.05.94-.09,1.56-.13.62-.04,1.12-.06,1.48-.06l-.72-3.4-12.71,3.23-.86-4.75,13.01-1.05-.91-4.17,5.17-.66.49,4.46,9.1-.75.07.3-8.97,2.28.55,5.24c.7.44,1.25.91,1.66,1.4.4.5.64,1.04.72,1.64.02.2.03.42,0,.65-.02.24-.07.48-.14.73-.51,1.9-1.23,3.84-2.14,5.81-.91,1.97-1.97,3.79-3.18,5.46l-.23-.18ZM42.78,242.38c-.42-.47-.92-.82-1.51-1.03-.58-.21-1.15-.28-1.71-.21-.86.11-1.46.28-1.82.53-.35.25-.51.57-.46.97.03.26.15.55.35.88.2.33.46.7.77,1.1,1.19,1.45,2.14,2.13,2.86,2.05.46-.06.82-.43,1.08-1.12.26-.69.4-1.74.43-3.16Z"/>
      <path class="cls-1" d="M44.82,277.5l-2.75-17.47,5.78-1.38-1.35,18.64-1.67.21ZM42.8,278.6l6.65.34-3.05,4.83-3.61-5.17Z"/>
    </g>
  </g>
</svg>