<?xml version="1.0" encoding="UTF-8"?>
<svg id="_レイヤー_2" data-name="レイヤー 2" xmlns="http://www.w3.org/2000/svg" xmlns:xlink="http://www.w3.org/1999/xlink" viewBox="0 0 1146.45 209.22">
  <defs>
    <style>
      .cls-1 {
        fill: none;
      }

      .cls-2 {
        fill: #004098;
      }

      .cls-3 {
        fill: #006837;
      }

      .cls-4 {
        clip-path: url(#clippath);
      }

      .cls-5 {
        fill: #c8161d;
      }
    </style>
    <clipPath id="clippath">
      <rect class="cls-1" x="160.93" y="116.37" width="473.79" height="76.66"/>
    </clipPath>
  </defs>
  <g id="_文字" data-name="文字">
    <g>
      <g>
        <g>
          <g>
            <path class="cls-5" d="M211.87,182.08l-29.45-28.22-3.02,2.81-.86,24.62h-9.07l-1.94-56.16h12.96l-.86,25.06,18.36-25.78,13.03,3.46-19.37,17.57,21.24,36.72-1.01-.07Z"/>
            <path class="cls-5" d="M259.24,182.08l-8.5-18.14-28.51,4.97-7.49,13.18h-1.08l19.66-56.88,11.38-1.73,23.04,57.67-8.5.94ZM239.01,138.88l-11.16,19.94,22.03,3.38-10.87-23.33Z"/>
            <path class="cls-5" d="M316.19,182.22l-29.95-42.98-6.41,42.98h-1.15l-4.61-57.1h11.81l24.62,29.81,7.63-30.53h1.37l-2.74,57.82h-.58Z"/>
            <path class="cls-5" d="M371.49,182.08l-8.5-18.14-28.51,4.97-7.49,13.18h-1.08l19.66-56.88,11.38-1.73,23.04,57.67-8.5.94ZM351.26,138.88l-11.16,19.94,22.03,3.38-10.87-23.33Z"/>
            <path class="cls-5" d="M389.13,182.01l-2.66-56.88h13.1l-.14,5.47,25.92-6.19v11.66l-25.99-2.52-.43,18.22,22.75-5.33v11.45l-22.82-3.24-.43,17.35,28.37,3.02v.72l-37.66,6.26Z"/>
            <path class="cls-5" d="M470.78,182.22c-7.39,0-13.56-.34-18.5-1.01-4.94-.67-8.86-1.78-11.74-3.31-2.88-1.54-4.94-3.55-6.19-6.05-1.25-2.5-1.87-5.54-1.87-9.14,0-4.66.74-8.66,2.23-12.02,1.49-3.36,3.52-5.94,6.08-7.74,2.57-1.8,5.46-2.7,8.68-2.7,4.37,0,8.32.47,11.84,1.4,3.53.94,6.47,2.08,8.82,3.42l-4.61,9.58c-2.93-2.93-5.54-5.2-7.85-6.8-2.3-1.61-4.66-2.41-7.06-2.41-1.39,0-2.66.56-3.82,1.69-1.15,1.13-2.05,2.99-2.7,5.58-.65,2.59-.97,6.12-.97,10.58,0,3.22.94,5.9,2.81,8.06,1.87,2.16,4.86,4.02,8.96,5.58,4.1,1.56,9.49,3.06,16.16,4.5l-.29.79Z"/>
            <path class="cls-5" d="M504.62,181.29l-1.15-24.7c-.14-3.17-.56-5.27-1.26-6.3-.7-1.03-1.79-1.55-3.28-1.55-1.2,0-2.88.32-5.04.97-2.16.65-4.25,1.62-6.26,2.92l-.94,28.66h-8.86l-1.87-56.16h12.6l-.79,24.19c1.49-1.78,3.22-3.35,5.18-4.72,1.97-1.37,4.04-2.44,6.23-3.2,2.18-.77,4.28-1.15,6.3-1.15,3.6,0,6.05.97,7.34,2.92s1.94,4.76,1.94,8.46c0,.34-.01.66-.04.97-.02.31-.04.66-.04,1.04l-1.15,27.65h-8.93Z"/>
            <path class="cls-5" d="M564.74,175.53c-2.21,2.06-4.15,3.7-5.83,4.9-1.68,1.2-3.19,1.8-4.54,1.8-1.06,0-2-.42-2.84-1.26-.84-.84-1.62-2.2-2.34-4.07-1.49,1.3-3.31,2.39-5.47,3.28-2.16.89-4.49,1.48-6.98,1.76-.77.1-1.51.17-2.23.22-.72.05-1.42.07-2.09.07-6.77,0-10.15-2.42-10.15-7.27,0-.58.05-1.18.14-1.8.1-.62.24-1.3.43-2.02.43-1.58,1.31-3.01,2.63-4.28,1.32-1.27,2.92-2.42,4.79-3.46,1.87-1.03,3.79-1.99,5.76-2.88,1.97-.89,3.8-1.73,5.51-2.52,1.7-.79,3.1-1.57,4.18-2.34,1.08-.77,1.62-1.54,1.62-2.3,0-2.11-.26-3.54-.79-4.28-.53-.74-1.54-1.12-3.02-1.12-1.06,0-2.69.1-4.9.29-2.21.19-4.63.48-7.27.86-2.64.38-5.16.89-7.56,1.51l-.36-.72c1.3-1.25,2.96-2.45,5-3.6,2.04-1.15,4.22-2.18,6.55-3.1,2.33-.91,4.64-1.63,6.95-2.16,2.3-.53,4.39-.79,6.26-.79,2.98,0,5.2.3,6.66.9,1.46.6,2.45,1.78,2.95,3.53.5,1.75.76,4.38.76,7.88v18.22c0,1.73.15,2.96.47,3.71.31.74,1.04,1.12,2.2,1.12.38,0,.85-.05,1.4-.14.55-.1,1.16-.22,1.84-.36l.29.43ZM547.89,159.62c-1.06.91-2.46,1.88-4.21,2.92-1.75,1.03-3.44,2.14-5.08,3.31-1.63,1.18-2.83,2.48-3.6,3.92-.67,1.34-1.01,2.52-1.01,3.53s.3,1.75.9,2.38c.6.62,1.45.94,2.56.94.24,0,.49-.01.76-.04.26-.02.52-.06.76-.11.96-.24,2.08-.58,3.35-1.01,1.27-.43,2.47-.94,3.6-1.51,1.13-.58,1.93-1.15,2.41-1.73l-.43-12.6Z"/>
            <path class="cls-5" d="M597.21,181.29l-1.15-24.7c-.14-3.17-.57-5.27-1.26-6.3-.7-1.03-1.79-1.55-3.28-1.55-1.15,0-2.76.3-4.82.9-2.06.6-4.08,1.52-6.05,2.77l-1.37,28.87h-8.86l-1.87-40.1h12.6l-.36,7.63c1.49-1.68,3.2-3.17,5.15-4.46,1.94-1.3,3.97-2.3,6.08-3.02,2.11-.72,4.13-1.08,6.05-1.08,3.6,0,6.05.97,7.34,2.92s1.94,4.76,1.94,8.46c0,.34-.01.66-.04.97-.02.31-.04.66-.04,1.04l-1.15,27.65h-8.93Z"/>
            <path class="cls-5" d="M659.2,184.31l-22.75-15.77-22.61,15.77-.58-.58,15.84-22.61-15.84-22.68.58-.58,22.61,15.84,22.75-15.84.58.58-15.84,22.68,15.84,22.68-.58.5Z"/>
            <path class="cls-5" d="M712.84,181.29l-2.09-42.12-16.06,36.65h-.5l-16.13-36.65-6.55,43.13h-1.08l-3.96-57.17h13.25l17.5,29.09,13.39-29.09h11.74l-1.08,56.16h-8.42Z"/>
            <path class="cls-5" d="M737.24,181.29l-2.02-56.16h13.54l-2.02,56.16h-9.5Z"/>
            <path class="cls-5" d="M803.7,182.22l-29.95-42.98-6.41,42.98h-1.15l-4.61-57.1h11.81l24.62,29.81,7.63-30.53h1.37l-2.74,57.82h-.58Z"/>
            <path class="cls-5" d="M842.87,182.73c-2.74,0-5.6-.68-8.6-2.05-3-1.37-5.82-3.35-8.46-5.94s-4.78-5.71-6.41-9.36c-1.63-3.65-2.45-7.75-2.45-12.31,0-3.55.54-6.85,1.62-9.9,1.08-3.05,2.53-5.77,4.36-8.17,1.82-2.4,3.86-4.45,6.12-6.16,2.26-1.7,4.57-3,6.95-3.89,2.38-.89,4.67-1.33,6.88-1.33s4.43.46,6.8,1.37c2.38.91,4.68,2.22,6.91,3.92,2.23,1.7,4.26,3.76,6.08,6.16,1.82,2.4,3.26,5.11,4.32,8.14,1.05,3.02,1.58,6.31,1.58,9.86,0,4.56-.82,8.66-2.45,12.31-1.63,3.65-3.74,6.77-6.34,9.36s-5.38,4.57-8.35,5.94c-2.98,1.37-5.83,2.05-8.57,2.05ZM845.75,176.54c2.26,0,4.25-.74,5.98-2.23,1.73-1.49,3.08-3.56,4.07-6.23.98-2.66,1.48-5.75,1.48-9.25,0-4.85-.55-9.08-1.66-12.71-1.1-3.62-2.54-6.64-4.32-9.04-1.78-2.4-3.66-4.2-5.65-5.4-1.99-1.2-3.88-1.8-5.65-1.8-2.21,0-4.2.73-5.98,2.2-1.78,1.46-3.18,3.49-4.21,6.08-1.03,2.59-1.55,5.64-1.55,9.14,0,5.14.56,9.55,1.69,13.25,1.13,3.7,2.59,6.72,4.39,9.07,1.8,2.35,3.71,4.09,5.72,5.22,2.02,1.13,3.91,1.69,5.69,1.69Z"/>
            <path class="cls-5" d="M922.07,182.22l-29.66-26.42.07-1.01c2.83-.58,5.39-1.6,7.67-3.06,2.28-1.46,4.2-3.14,5.76-5.04,1.56-1.9,2.65-3.78,3.28-5.65.43-1.25.65-2.42.65-3.53,0-1.87-.65-3.41-1.94-4.61-1.3-1.2-3.29-1.8-5.98-1.8-3.31,0-6.79.46-10.44,1.37l-1.08,48.82h-9.22l-2.66-56.16h13.1l-.07,3.96c2.26-1.25,4.55-2.22,6.88-2.92,2.33-.7,4.57-1.04,6.73-1.04,4.03,0,7.25.66,9.65,1.98,2.4,1.32,4.14,2.98,5.22,4.97,1.08,1.99,1.62,4.04,1.62,6.16,0,1.44-.22,2.78-.65,4.03-.67,2.06-1.84,3.92-3.49,5.58-1.66,1.66-3.55,3.04-5.69,4.14-2.14,1.1-4.24,1.92-6.3,2.45l17.5,27.86-.94-.07Z"/>
            <path class="cls-5" d="M933.95,181.29l-2.02-56.16h13.54l-2.02,56.16h-9.5Z"/>
            <path class="cls-5" d="M1000.4,182.22l-29.95-42.98-6.41,42.98h-1.15l-4.61-57.1h11.81l24.62,29.81,7.63-30.53h1.37l-2.74,57.82h-.58Z"/>
          </g>
          <g class="cls-4">
            <g>
              <path class="cls-3" d="M211.87,182.08l-29.45-28.22-3.02,2.81-.86,24.62h-9.07l-1.94-56.16h12.96l-.86,25.06,18.36-25.78,13.03,3.46-19.37,17.57,21.24,36.72-1.01-.07Z"/>
              <path class="cls-3" d="M259.24,182.08l-8.5-18.14-28.51,4.97-7.49,13.18h-1.08l19.66-56.88,11.38-1.73,23.04,57.67-8.5.94ZM239.01,138.88l-11.16,19.94,22.03,3.38-10.87-23.33Z"/>
              <path class="cls-3" d="M316.19,182.22l-29.95-42.98-6.41,42.98h-1.15l-4.61-57.1h11.81l24.62,29.81,7.63-30.53h1.37l-2.74,57.82h-.58Z"/>
              <path class="cls-3" d="M371.49,182.08l-8.5-18.14-28.51,4.97-7.49,13.18h-1.08l19.66-56.88,11.38-1.73,23.04,57.67-8.5.94ZM351.26,138.88l-11.16,19.94,22.03,3.38-10.87-23.33Z"/>
              <path class="cls-3" d="M389.13,182.01l-2.66-56.88h13.1l-.14,5.47,25.92-6.19v11.66l-25.99-2.52-.43,18.22,22.75-5.33v11.45l-22.82-3.24-.43,17.35,28.37,3.02v.72l-37.66,6.26Z"/>
              <path class="cls-3" d="M470.78,182.22c-7.39,0-13.56-.34-18.5-1.01-4.94-.67-8.86-1.78-11.74-3.31-2.88-1.54-4.94-3.55-6.19-6.05-1.25-2.5-1.87-5.54-1.87-9.14,0-4.66.74-8.66,2.23-12.02,1.49-3.36,3.52-5.94,6.08-7.74,2.57-1.8,5.46-2.7,8.68-2.7,4.37,0,8.32.47,11.84,1.4,3.53.94,6.47,2.08,8.82,3.42l-4.61,9.58c-2.93-2.93-5.54-5.2-7.85-6.8-2.3-1.61-4.66-2.41-7.06-2.41-1.39,0-2.66.56-3.82,1.69-1.15,1.13-2.05,2.99-2.7,5.58-.65,2.59-.97,6.12-.97,10.58,0,3.22.94,5.9,2.81,8.06,1.87,2.16,4.86,4.02,8.96,5.58,4.1,1.56,9.49,3.06,16.16,4.5l-.29.79Z"/>
              <path class="cls-3" d="M504.62,181.29l-1.15-24.7c-.14-3.17-.56-5.27-1.26-6.3-.7-1.03-1.79-1.55-3.28-1.55-1.2,0-2.88.32-5.04.97-2.16.65-4.25,1.62-6.26,2.92l-.94,28.66h-8.86l-1.87-56.16h12.6l-.79,24.19c1.49-1.78,3.22-3.35,5.18-4.72,1.97-1.37,4.04-2.44,6.23-3.2,2.18-.77,4.28-1.15,6.3-1.15,3.6,0,6.05.97,7.34,2.92s1.94,4.76,1.94,8.46c0,.34-.01.66-.04.97-.02.31-.04.66-.04,1.04l-1.15,27.65h-8.93Z"/>
              <path class="cls-3" d="M564.74,175.53c-2.21,2.06-4.15,3.7-5.83,4.9-1.68,1.2-3.19,1.8-4.54,1.8-1.06,0-2-.42-2.84-1.26-.84-.84-1.62-2.2-2.34-4.07-1.49,1.3-3.31,2.39-5.47,3.28-2.16.89-4.49,1.48-6.98,1.76-.77.1-1.51.17-2.23.22-.72.05-1.42.07-2.09.07-6.77,0-10.15-2.42-10.15-7.27,0-.58.05-1.18.14-1.8.1-.62.24-1.3.43-2.02.43-1.58,1.31-3.01,2.63-4.28,1.32-1.27,2.92-2.42,4.79-3.46,1.87-1.03,3.79-1.99,5.76-2.88,1.97-.89,3.8-1.73,5.51-2.52,1.7-.79,3.1-1.57,4.18-2.34,1.08-.77,1.62-1.54,1.62-2.3,0-2.11-.26-3.54-.79-4.28-.53-.74-1.54-1.12-3.02-1.12-1.06,0-2.69.1-4.9.29-2.21.19-4.63.48-7.27.86-2.64.38-5.16.89-7.56,1.51l-.36-.72c1.3-1.25,2.96-2.45,5-3.6,2.04-1.15,4.22-2.18,6.55-3.1,2.33-.91,4.64-1.63,6.95-2.16,2.3-.53,4.39-.79,6.26-.79,2.98,0,5.2.3,6.66.9,1.46.6,2.45,1.78,2.95,3.53.5,1.75.76,4.38.76,7.88v18.22c0,1.73.15,2.96.47,3.71.31.74,1.04,1.12,2.2,1.12.38,0,.85-.05,1.4-.14.55-.1,1.16-.22,1.84-.36l.29.43ZM547.89,159.62c-1.06.91-2.46,1.88-4.21,2.92-1.75,1.03-3.44,2.14-5.08,3.31-1.63,1.18-2.83,2.48-3.6,3.92-.67,1.34-1.01,2.52-1.01,3.53s.3,1.75.9,2.38c.6.62,1.45.94,2.56.94.24,0,.49-.01.76-.04.26-.02.52-.06.76-.11.96-.24,2.08-.58,3.35-1.01,1.27-.43,2.47-.94,3.6-1.51,1.13-.58,1.93-1.15,2.41-1.73l-.43-12.6Z"/>
              <path class="cls-3" d="M597.21,181.29l-1.15-24.7c-.14-3.17-.57-5.27-1.26-6.3-.7-1.03-1.79-1.55-3.28-1.55-1.15,0-2.76.3-4.82.9-2.06.6-4.08,1.52-6.05,2.77l-1.37,28.87h-8.86l-1.87-40.1h12.6l-.36,7.63c1.49-1.68,3.2-3.17,5.15-4.46,1.94-1.3,3.97-2.3,6.08-3.02,2.11-.72,4.13-1.08,6.05-1.08,3.6,0,6.05.97,7.34,2.92s1.94,4.76,1.94,8.46c0,.34-.01.66-.04.97-.02.31-.04.66-.04,1.04l-1.15,27.65h-8.93Z"/>
              <path class="cls-3" d="M659.2,184.31l-22.75-15.77-22.61,15.77-.58-.58,15.84-22.61-15.84-22.68.58-.58,22.61,15.84,22.75-15.84.58.58-15.84,22.68,15.84,22.68-.58.5Z"/>
              <path class="cls-3" d="M712.84,181.29l-2.09-42.12-16.06,36.65h-.5l-16.13-36.65-6.55,43.13h-1.08l-3.96-57.17h13.25l17.5,29.09,13.39-29.09h11.74l-1.08,56.16h-8.42Z"/>
              <path class="cls-3" d="M737.24,181.29l-2.02-56.16h13.54l-2.02,56.16h-9.5Z"/>
              <path class="cls-3" d="M803.7,182.22l-29.95-42.98-6.41,42.98h-1.15l-4.61-57.1h11.81l24.62,29.81,7.63-30.53h1.37l-2.74,57.82h-.58Z"/>
              <path class="cls-3" d="M842.87,182.73c-2.74,0-5.6-.68-8.6-2.05-3-1.37-5.82-3.35-8.46-5.94s-4.78-5.71-6.41-9.36c-1.63-3.65-2.45-7.75-2.45-12.31,0-3.55.54-6.85,1.62-9.9,1.08-3.05,2.53-5.77,4.36-8.17,1.82-2.4,3.86-4.45,6.12-6.16,2.26-1.7,4.57-3,6.95-3.89,2.38-.89,4.67-1.33,6.88-1.33s4.43.46,6.8,1.37c2.38.91,4.68,2.22,6.91,3.92,2.23,1.7,4.26,3.76,6.08,6.16,1.82,2.4,3.26,5.11,4.32,8.14,1.05,3.02,1.58,6.31,1.58,9.86,0,4.56-.82,8.66-2.45,12.31-1.63,3.65-3.74,6.77-6.34,9.36s-5.38,4.57-8.35,5.94c-2.98,1.37-5.83,2.05-8.57,2.05ZM845.75,176.54c2.26,0,4.25-.74,5.98-2.23,1.73-1.49,3.08-3.56,4.07-6.23.98-2.66,1.48-5.75,1.48-9.25,0-4.85-.55-9.08-1.66-12.71-1.1-3.62-2.54-6.64-4.32-9.04-1.78-2.4-3.66-4.2-5.65-5.4-1.99-1.2-3.88-1.8-5.65-1.8-2.21,0-4.2.73-5.98,2.2-1.78,1.46-3.18,3.49-4.21,6.08-1.03,2.59-1.55,5.64-1.55,9.14,0,5.14.56,9.55,1.69,13.25,1.13,3.7,2.59,6.72,4.39,9.07,1.8,2.35,3.71,4.09,5.72,5.22,2.02,1.13,3.91,1.69,5.69,1.69Z"/>
              <path class="cls-3" d="M922.07,182.22l-29.66-26.42.07-1.01c2.83-.58,5.39-1.6,7.67-3.06,2.28-1.46,4.2-3.14,5.76-5.04,1.56-1.9,2.65-3.78,3.28-5.65.43-1.25.65-2.42.65-3.53,0-1.87-.65-3.41-1.94-4.61-1.3-1.2-3.29-1.8-5.98-1.8-3.31,0-6.79.46-10.44,1.37l-1.08,48.82h-9.22l-2.66-56.16h13.1l-.07,3.96c2.26-1.25,4.55-2.22,6.88-2.92,2.33-.7,4.57-1.04,6.73-1.04,4.03,0,7.25.66,9.65,1.98,2.4,1.32,4.14,2.98,5.22,4.97,1.08,1.99,1.62,4.04,1.62,6.16,0,1.44-.22,2.78-.65,4.03-.67,2.06-1.84,3.92-3.49,5.58-1.66,1.66-3.55,3.04-5.69,4.14-2.14,1.1-4.24,1.92-6.3,2.45l17.5,27.86-.94-.07Z"/>
              <path class="cls-3" d="M933.95,181.29l-2.02-56.16h13.54l-2.02,56.16h-9.5Z"/>
              <path class="cls-3" d="M1000.4,182.22l-29.95-42.98-6.41,42.98h-1.15l-4.61-57.1h11.81l24.62,29.81,7.63-30.53h1.37l-2.74,57.82h-.58Z"/>
            </g>
          </g>
        </g>
        <g>
          <path class="cls-3" d="M394.21,204.2c-.61.71-1.29,1.34-2.04,1.9-.75.56-1.53,1-2.34,1.31s-1.62.48-2.42.48c-1,0-1.94-.19-2.82-.57-.88-.38-1.66-.9-2.34-1.58-.68-.67-1.21-1.46-1.59-2.36-.38-.9-.58-1.87-.58-2.9s.21-1.94.63-2.83c.42-.89.99-1.67,1.71-2.36.72-.68,1.54-1.22,2.45-1.61.91-.39,1.86-.58,2.84-.58,1.04,0,1.99.18,2.84.54.85.36,1.59.85,2.21,1.46.62.61,1.09,1.3,1.43,2.07.34.77.5,1.55.5,2.36,0,.5-.1,1.06-.31,1.66-.2.61-.49,1.18-.85,1.73-.36.55-.77.99-1.22,1.34-.46.35-.94.52-1.44.52-.55,0-.99-.12-1.3-.36-.32-.24-.56-.56-.73-.95-.31.31-.71.62-1.21.91-.49.29-1.02.44-1.58.44-.91,0-1.6-.25-2.06-.76-.46-.5-.69-1.29-.69-2.36,0-.67.09-1.33.27-1.99.18-.65.43-1.24.76-1.77.32-.53.72-.95,1.18-1.27.46-.32.97-.48,1.52-.48.28,0,.53.03.76.09.23.06.42.14.58.23l-.02-.38h2.63l-.2,5.92v.11c0,.74.16,1.12.49,1.12.26,0,.5-.19.72-.57s.39-.86.51-1.44c.13-.58.19-1.17.19-1.76s-.11-1.21-.33-1.84c-.22-.62-.55-1.2-.97-1.73-.43-.53-.95-.95-1.57-1.28-.62-.32-1.32-.49-2.1-.49-.72,0-1.41.18-2.08.54-.67.36-1.27.84-1.8,1.44-.53.6-.96,1.28-1.27,2.02-.31.75-.47,1.52-.47,2.3,0,.83.15,1.6.45,2.32.3.72.7,1.36,1.21,1.91.5.55,1.07.98,1.71,1.3.64.31,1.29.47,1.96.47.85,0,1.68-.12,2.49-.35s1.57-.54,2.28-.92,1.34-.78,1.91-1.2l.11.16ZM388.41,197.79c-.12-.17-.26-.3-.42-.4-.16-.1-.33-.15-.5-.15-.29,0-.54.16-.77.48-.22.32-.41.72-.56,1.2-.15.48-.26.97-.34,1.46-.08.49-.12.91-.12,1.24,0,.56.1.97.3,1.22.2.25.46.38.8.38.28,0,.58-.06.92-.19.34-.13.65-.29.95-.5l-.27-4.73Z"/>
          <path class="cls-3" d="M404.99,204.71l-7.34,4.18-.18-.18,5.44-5.27v-.56l-2.65-.16-.68,2.52-2.05-.5.76-5.76,4.64.31.02-1.42-5.04-.36v-.25l5.04-.41v-1.17l-5.9.47v-2.7l5.92.49v-1.24h2.99l-.09,1.48,6.75.54v.22l-6.84.54-.05,1.15,5.54-.47-.76,4.84-2.09-.02-.02-.97-2.92.36-.11,1.53,6.23-.67-.63,4.39-4.45-1.42v-.2l2.36-.18-.04-.58-3.55-.22-.07,1.31,6.71,1.93-2.16,2.72-4.79-4.25ZM402.92,200.64l-2.18.27-.4,1.48,2.56-.27.02-1.48ZM408.34,198.24l-2.74-.2-.07,1.4,2.84.2-.04-1.4Z"/>
          <path class="cls-3" d="M420.97,208.34l-2.27-2.23h-1.13l-1.71,2.77-1.33-2.86,2.25-.31-.14-4.95-2.21-1.13v-.2l5.04-1.19-.49,7.33,2.36.52,4.03-.23-3.02-1.12v-.22l1.69-.43-.31-1.89-3.15.5-.18-3.58-.81.41-.13-.22.9-.76-.02-.49h.61l2.7-2.25.02-.47-2.97.29,1.85.83-2.18,1.26-.23-2.03-.76.07v-2.27l4.37.36.05-.97,2.81.18-.25,1.01,4.19.36v.25l-4.46.43-.27,1.08,1.6.45.47-1.66,2.3,1.04-2.2.77,2.43.68-.58,2.5-.68-.56-.34,3.04h-1.93l-.02-.81-2.63.43h1.96l-.36,3.71,4.82-.27-.65,3.01-9.07-.22ZM416.67,197.65l-1.85-4.28.22-.22,4.01,2.41-2.38,2.09ZM419.53,205.35l-.2-.18,2.05-2.45,1.82,1.19-3.67,1.44ZM425.58,196.52l-3.11,1.57h.56l-.05.4,4.55-.38-1.94-1.58ZM426.89,200.33l-4.19.07-.09.7,4.28.25v-1.03ZM426.88,199.38l-3.94-.61-.09.67,4.03.63v-.68ZM428.5,205.48l-1.93-2.45.16-.14,3.46,1.01-1.69,1.58Z"/>
          <path class="cls-3" d="M440.7,207.28v-.29l3.87-.5.36-10.35-12.06-1.28v-.23l15.28-1.44-1.4,16.04-6.05-1.94ZM440.36,206.02l-.04-1.55-5.81,1.73-.79-6.52h2.97v.85l6.39-1.85-.58,7.34h-2.14ZM434.2,199.16v-2.75l9.43.94v.18l-9.43,1.64ZM440.25,201.52l-3.58-.61-.02,2.56,3.65.61-.05-2.56Z"/>
        </g>
        <g>
          <path class="cls-5" d="M787.71,204.14c-.61.71-1.3,1.34-2.05,1.9-.75.56-1.53,1-2.35,1.32-.81.32-1.62.48-2.43.48-1,0-1.94-.19-2.82-.57-.88-.38-1.67-.9-2.34-1.58-.68-.67-1.21-1.46-1.6-2.36s-.58-1.87-.58-2.9.21-1.94.63-2.83c.42-.89.99-1.68,1.71-2.36s1.54-1.22,2.45-1.61c.91-.39,1.86-.59,2.85-.59,1.05,0,2,.18,2.85.54.85.36,1.59.85,2.21,1.46.62.61,1.1,1.31,1.43,2.07.34.77.5,1.56.5,2.36,0,.51-.1,1.06-.31,1.67-.2.61-.49,1.18-.85,1.73-.36.55-.77,1-1.23,1.34-.46.35-.94.52-1.44.52-.55,0-.99-.12-1.31-.36-.32-.24-.56-.56-.73-.96-.31.31-.72.62-1.21.91-.49.29-1.02.44-1.59.44-.91,0-1.6-.25-2.07-.76-.46-.51-.69-1.29-.69-2.36,0-.67.09-1.34.27-1.99.18-.66.43-1.25.76-1.78.33-.53.72-.95,1.18-1.27.46-.32.97-.48,1.52-.48.28,0,.53.03.76.09.23.06.42.14.58.23l-.02-.38h2.63l-.2,5.93v.11c0,.75.16,1.12.49,1.12.26,0,.5-.19.72-.57.22-.38.39-.86.51-1.44.13-.58.19-1.17.19-1.76s-.11-1.21-.33-1.84c-.22-.63-.55-1.2-.97-1.73-.43-.53-.95-.96-1.57-1.28s-1.32-.49-2.1-.49c-.72,0-1.42.18-2.08.54-.67.36-1.27.84-1.8,1.44-.54.6-.96,1.28-1.27,2.03-.31.75-.47,1.52-.47,2.3,0,.83.15,1.61.45,2.33s.7,1.36,1.21,1.91c.5.55,1.08.99,1.71,1.3.64.31,1.29.47,1.97.47.85,0,1.69-.12,2.5-.35.81-.23,1.57-.54,2.28-.92.71-.38,1.35-.78,1.91-1.2l.11.16ZM781.9,197.72c-.12-.17-.26-.3-.42-.41-.16-.1-.33-.15-.5-.15-.29,0-.54.16-.77.48-.22.32-.41.72-.56,1.2-.15.48-.26.97-.34,1.46-.08.49-.12.91-.12,1.24,0,.57.1.97.3,1.23.2.25.47.38.8.38.28,0,.58-.06.92-.19s.66-.29.96-.5l-.27-4.74Z"/>
          <path class="cls-5" d="M790.42,208.65l3.66-14.92,3.54,1.26-7.02,13.8-.18-.14ZM802.76,208.83l-3.3-15.71.29-.07,6.39,13.57-3.37,2.22Z"/>
          <path class="cls-5" d="M817.44,199.13l-.27,9.69h-2.07l-.31-11.04-6.39.72v-2.94l6.33.38-.09-3.34h2.98l-.09,3.5,6.66.4v.23l-6.71.76-.02,1.06,5.93,5.14-1.62,3.05-4.33-7.61ZM808.75,206.59l3.37-7.65,2.65,1.64-5.84,6.26-.18-.25Z"/>
          <path class="cls-5" d="M834.99,206.2l-2.29-2.94-7.34,5.45-.23-.18,6.3-6.93-3.68-4.76.16-.18,4.62,3.37,3.34-6.96,2.9,1.7-4.33,6.67,3.12,2.27-2.56,2.49Z"/>
          <path class="cls-5" d="M842.91,203.69l-.78-9.71h3.32l-.45,9.71h-2.09ZM848.85,208.78l1.68-15.59,3.32.65-4.74,14.97-.25-.04Z"/>
          <path class="cls-5" d="M857.83,202.39l-1.01-3.48,15.28,1.64v.2l-14.27,1.64Z"/>
          <path class="cls-5" d="M875.69,207.89l-1.44-3.7,4.38.76-2.94,2.94Z"/>
        </g>
      </g>
      <g>
        <path class="cls-2" d="M36.69,42.87c0,1.57,5.4,10.59,6.96,10.59l.69-.1c3.43-2.84,10.2-31.98,11.77-37.87.78-2.94,1.77-7.75,3.63-10.1,1.08-1.47,2.65-2.06,4.41-2.06,4.02,0,10.99.78,10.99,6.18,0,10.69-5.49,20.6-5.49,31.2,0,1.77,1.47,2.16,2.94,2.16,2.65,0,4.71-1.37,7.36-1.37,7.65,0,12.85,27.17,12.85,33.26,0,1.96.1,4.61-.98,6.28-1.77,2.84-11.58,6.38-14.91,6.38-2.55,0,.29-5.2-4.51-5.2-10.4,0-20.4,3.14-30.8,3.14-7.65,0-7.95-5.59-7.95-11.67,0-4.81,6.97.1,7.36-8.44l-.29-.29c-1.28.29-3.83,2.35-4.71,2.35-2.84,0-3.24-6.47-4.41-6.87-.49.69-.49,5.98-.49,7.16,0,4.61.49,9.32.49,14.03s-.78,6.87-5.79,6.87c-3.04,0-7.46-.2-9.42-2.94-1.08-1.47-1.18-3.43-1.18-5.3,0-1.37.2-2.84.2-4.32,0-2.55-.2-4.22-1.37-6.67-1.67.39-3.14,8.24-5.4,8.24-3.04,0-8.53-8.83-8.53-11.67,0-5.79,10.1-15.6,10.1-21.88,0-.59-.29-.98-.78-1.28-4.12-2.45-9.42,2.55-9.42-5.59,0-4.51,1.08-8.73,6.47-8.73h1.77c3.73,0,6.08-.39,6.08-4.71,0-2.26-.39-4.02-3.14-4.02-1.57,0-3.14.39-4.71.39-2.75,0-3.24-2.35-3.24-4.61,0-3.04,0-5.4,3.04-6.97,3.73-1.96,26.49-5.89,31.2-5.89,4.12,0,6.47,5.2,6.47,8.73,0,8.04-12.75-2.06-12.75,13.93,0,2.26,1.86,2.35,3.63,2.35,1.28,0,2.45-.1,3.73-.1,5.1,0,6.67,3.34,6.67,7.85,0,7.75-1.77,5.59-7.65,6.77l-.88.78ZM63.76,68.77c1.96,0,7.95-.2,7.95-3.14,0-2.26-2.06-14.42-4.81-14.42-1.67,0-6.28,13.54-6.28,15.5,0,2.06,1.47,2.06,3.14,2.06Z"/>
        <path class="cls-2" d="M144.66,15.12c7.79,0,13.56-.53,13.56,9.28,0,5.16-7.26,5.51-10.94,5.51-2.89,0-5.69-.26-8.58-.26-2.45,0-10.76-.79-12.43,1.05-6.04,6.74-3.76,34.22-13.65,47.34-.88,1.14-2.36,1.31-3.76,1.31-4.64,0-10.59-2.98-10.59-8.23,0-13.3,8.14-25.12,8.14-38.42,0-2.01-.79-2.71-2.8-2.71-.79,0-1.58.09-2.36.09-3.06,0-3.76-1.66-3.76-4.46,0-3.24.35-8.49,4.38-9.19,1.84-.26,3.85-.18,5.69-.26,1.05-.09,1.93-.09,2.8-.61,3.59-1.93-.17-9.19,7.18-9.19,1.49,0,3.06.09,4.55.09,1.66,0,4.46-.17,5.86.79,1.58,1.05,1.58,3.68,1.58,5.34,0,2.63,6.3,2.71,8.14,2.71,2.36,0,4.64-.18,7-.18ZM133.46,51.27c4.29-.96,11.2,1.05,11.64,4.73.17,1.58-3.5,3.06-3.5,5.78,0,3.15,7.09,3.85,9.36,3.85,5.25,0,9.98-2.45,15.23-2.45,4.46,0,4.46,5.16,4.46,8.49,0,7.7-13.3,8.31-18.73,8.31-3.5,0-6.91-.09-10.41-.79-5.34-1.05-11.38-3.76-14.88-7.96-1.84-2.19-2.63-4.9-2.63-7.79,0-4.55,4.46-11.03,9.45-12.16ZM168.03,48.82c-6.04,1.05-13.65-2.45-27.74-.88-6.83.79-8.49-1.84-8.49-8.58,0-6.39,19.86-6.21,24.33-6.21,1.84,0,3.68.09,5.6.09,5.08,0,9.1.96,9.1,6.91,0,2.71-.17,7.61-2.8,8.66Z"/>
        <path class="cls-2" d="M206.5,53.37c-4.11,1.05-8.93,2.89-12.43,2.98-2.98.09-12.34-3.15-12.34-6.91,0-4.81,5.78-11.46,5.78-15.75,0-2.45-1.84-2.98-3.94-2.98-1.14,0-2.36.26-3.5.26-3.33,0-5.69-1.14-5.69-4.81,0-13.48,7.96-7.35,16.19-9.89,3.85-1.23,2.36-4.81,4.38-7.18,2.19-2.54,8.23-1.93,10.94-1.93,4.46,0,4.99,2.36,4.99,6.21,0,1.14,1.23,1.66,2.19,1.93,4.11,1.23,9.8,1.14,14.09,1.14,2.45,0,4.9-.09,7.35-.09,3.94,0,8.31.53,11.46,2.98,2.1,1.58,2.36,4.38,2.36,6.83,0,.53-.09.96-.17,1.49-.79,3.5-15.66,3.24-18.73,3.24-4.64,0-9.36-.26-14-.26-2.89,0-7.18-.09-9.01,2.54v-.09c-.52,1.31-2.1,2.54-1.14,4.11,2.98,1.75,8.23-.79,12.34-.79,12.69,0,26.69,4.99,26.69,19.86,0,4.03-.96,7.88-3.33,11.2-4.64,6.56-12.08,10.5-19.78,12.34-5.16,1.23-9.98,1.4-15.23,1.4s-18.73-.44-18.73-7.88c0-3.15-.26-9.63,3.94-9.63,6.04,0,12.6,1.84,18.64,1.84,6.56,0,15.84-.79,15.84-9.1,0-4.2-3.24-4.81-6.83-4.81-4.2,0-7.35.18-12.34,1.75Z"/>
        <path class="cls-2" d="M309.17,5.98c4.81,0,9.52.59,14.32.98,6.77.49,16.09.88,16.09,9.91,0,4.61-4.91,4.81-8.34,4.81-9.02,0-18.05-.39-27.08-.39-7.26,0-10.99-.1-10.99,8.53,0,3.53,10.79,3.73,13.15,3.73,3.83,0,7.55-.29,11.28-.29,11.67,0,16.77-1.37,16.77,12.56,0,10.59,0,26.68-6.38,35.61-1.96,2.75-5,4.22-8.14,5-3.33.78-6.57.88-9.91.88-3.14,0-6.28.2-9.32.2-8.73,0-10.5-4.41-10.5-12.26,0-4.02,5.89-4.12,8.73-4.12,3.43,0,6.67.69,10.01.69,6.18,0,6.96-8.73,6.96-13.24,0-1.77.2-8.83-.98-9.91-.29-.29-1.28-.49-1.67-.49-2.65,0-5.4-.1-8.04-.1-2.84,0-10.1,0-12.16,1.96-2.16,1.96-5.4,10.59-6.87,13.73-3.73,7.85-8.63,14.71-15.4,20.31-1.47,1.18-2.94,2.26-4.9,2.26-3.43,0-11.38-6.67-11.38-10.2,0-2.06,4.41-6.57,5.98-8.14,1.77-1.77,3.34-3.63,4.9-5.59,1.47-1.96,2.85-4.02,3.73-6.28,3.63-8.83,5.1-17.66,5.1-27.17,0-5.69-2.94-7.36-8.34-7.36-2.26,0-4.61.39-6.96.39-2.94,0-6.18-.39-6.18-4.12,0-10.99,9.52-10.01,17.46-11.09,3.83-.49,7.65-.78,11.48-.78h27.57Z"/>
        <path class="cls-2" d="M364.08,80.44c0,4.12-.39,7.55-5.49,7.55-1.77,0-3.63-.2-5.3-.69-1.86-.59-3.04-1.96-3.83-3.63-3.43-7.06-3.43-26.78-3.73-35.22-.1-1.67-.2-10.1-.88-10.99-.29-.29-.59-.69-1.08-.69s-1.08.2-1.57.2c-1.67,0-1.57-3.34-1.57-4.32v-3.53c0-2.26.49-5.69,3.43-5.69.98,0,1.77-.88,2.06-1.77s.29-1.96.49-2.94c1.86-11.28-1.18-16.38,13.54-16.38,4.22,0,4.32,5.4,4.32,8.44s-.49,5.79-.49,8.73c0,4.32,2.06,2.55,3.53,3.53,1.57.98,1.18,5.59,1.18,6.96,0,1.57.2,6.67-2.16,6.67-.98,0-1.47.1-2.06.88-1.18,1.57-1.08,10.5-1.08,12.85,0,10.01.69,20.01.69,30.02ZM376.74,54.35c-1.28,0-2.55-.29-3.63-.78-1.18-.59-1.77-1.67-1.96-2.94-.78-5.89-.78-11.87-.78-17.76,0-7.36,1.96-10.69,9.71-10.69,1.27,0,2.55.2,3.73.2,1.28,0,8.44.1,8.44-1.47,0-1.08-1.67-.98-2.45-.98h-17.76c-3.14,0-5.49-1.67-5.49-5,0-7.16,2.16-7.95,9.02-7.95,2.65,0,5.4.29,8.14.29,2.16,0,5.2-.1,7.06-1.28,2.45-1.57.49-3.92,2.65-5.2,1.18-.69,5.98-.78,7.55-.78,2.26,0,5.1.2,6.96,1.47,2.65,1.86.29,4.9,3.04,5.59,1.08.29,2.16.39,3.24.39l.69-.78c0-1.77-1.27-2.06-1.27-3.73,0-1.28,7.65-1.96,8.73-1.96,5.2,0,4.32,3.14,6.97,6.18,1.77,1.96,3.83.29,5.2,2.16,1.47,2.06,1.47,5.1,1.47,7.46,0,2.65-1.57,3.73-4.12,3.73-5.98,0-12.07-.39-18.05-.39-1.08,0-2.84-.1-3.53.98,0,1.77,9.02,1.37,10.3,1.37,7.65,0,12.95.78,13.34,9.52.2,3.83.2,7.95.2,11.77,0,1.96-.2,9.12-2.26,9.91-.69.29-4.41.1-4.41,1.08,0,1.57,2.65,1.57,3.83,1.57.88,0,1.67-.2,2.55-.2,2.75,0,3.24,1.18,3.24,3.73,0,1.96.1,6.38-2.06,7.36-.88.39-1.96.49-2.94.49-1.37.1-3.24.2-4.61.69-.98.29-1.67,10.01-2.16,11.67-.29,1.08-.59,2.16-1.08,3.24-.39.88-.98,1.86-1.67,2.55-2.94,2.94-11.48,3.34-15.5,3.34h-8.14c-1.67,0-3.04-.49-3.83-2.06-.69-1.37-.39-4.81-1.08-4.81-1.27,0-3.04,4.71-5.79,4.71s-16.28-9.71-16.28-12.26c0-2.06,2.45-3.24,2.45-4.41,0-1.77-4.61-1.37-5.79-1.67-2.26-.49-2.45-3.92-2.45-5.89,0-1.18.1-2.26.59-3.34,1.18-2.55,5.98-2.65,8.34-2.75,2.94-.1,5.98-.2,8.93-.2,5.1,0,10.3.2,15.4.2,1.18,0,7.95-.2,7.95-1.67,0-.88-3.14-.88-3.73-.88-1.47,0-3.04.2-4.51.2h-22.37ZM385.66,33.35c0,1.37,3.92,1.18,4.81,1.18,1.08,0,2.06-.39,2.06-1.57,0-1.47-2.06-1.47-3.14-1.47h-1.77c-1.08,0-1.96,0-1.96,1.37v.49ZM389.88,44.44c.88,0,2.75-.1,2.75-1.28,0-1.47-1.57-1.77-2.75-1.77h-1.86c-.98,0-2.35-.1-2.35,1.28,0,1.47,1.86,1.77,3.04,1.77h1.18ZM404.69,75.44c1.86,0,3.73-.39,3.73-2.65v-2.26c0-1.67-2.45-1.67-3.63-1.67-3.92,0-7.95.2-11.87.29-.59,0-3.83,0-3.83.78,0,3.43,10.4,5.49,13.05,5.49h2.55ZM413.13,31.59c-1.18,0-2.45.2-2.45,1.67,0,.78.59.98,1.28,1.08,1.37.2,2.65.29,4.02.29,1.08,0,2.26-.49,2.26-1.67,0-1.08-1.37-1.37-2.16-1.37h-2.94ZM415.88,44.34c.98,0,2.45-.2,2.45-1.37,0-1.37-1.37-1.57-2.45-1.57h-2.65c-.78,0-2.35.29-2.35,1.28,0,1.37,2.55,1.67,3.63,1.67h1.37Z"/>
        <path class="cls-2" d="M510.35,26.59c-1.66.7-3.5,1.14-5.25,1.66-4.73,1.31-9.54,2.28-14.18,4.11-4.9,1.93-9.8,4.55-13.04,8.75-1.49,2.54-2.89,5.69-2.89,8.66,0,10.5,5.6,15.66,16.63,15.31,2.71-.09,5.34-.53,8.05-.53,4.03,0,4.73,4.9,4.73,8.14,0,1.84.26,4.03-.35,5.78-1.14,3.41-11.55,3.59-14.61,3.59-17.06,0-34.74-11.64-34.74-30.1,0-2.71.61-5.34,1.66-7.79,1.84-4.2,4.46-8.4,7.44-11.9.26-.35,1.66-1.93,1.66-2.36,0-.53-1.23-.61-1.58-.61-5.86,0-11.73.44-17.59.44-2.8,0-7.44-.53-7.44-4.2,0-3.06.7-6.3,3.41-8.14,6.21-4.2,40.25-4.03,48.92-4.03,2.01,0,4.03-.09,6.04-.09,4.2,0,13.21.53,15.14,4.9.79,1.84.79,3.94.79,5.95-.52,1.31-1.66,2.01-2.8,2.45ZM490.75,41.03c0-2.71,4.99-4.64,7.26-4.64,2.89,0,8.58,8.84,8.58,11.55,0,2.36-5.43,4.9-7.53,4.9-2.27,0-8.31-9.54-8.31-11.81ZM512.71,32.28c2.36.09,8.31,9.45,8.23,11.81-.09,2.98-5.43,4.64-7.88,4.55-2.01-.09-8.23-9.89-8.14-11.9,0-2.71,5.51-4.55,7.79-4.46Z"/>
        <path class="cls-2" d="M582.61,62.19c-2.94,7.65-21.97,25.41-30.51,25.41-6.47,0-13.34-8.14-13.34-14.42,0-5.3,21.09-5.89,21.09-19.33,0-2.94-5.69-3.24-7.85-3.24-4.61,0-9.32.39-13.93.39-5.59,0-15.11-.98-15.11-8.44,0-1.37.1-2.84.49-4.22.39-1.37,1.77-2.26,3.04-2.84,3.92-1.86,20.01-2.16,24.92-2.16,7.55,0,15.11.1,22.66.1,1.37,0,2.65-.1,3.92-.2,2.94-.1,5.89-.2,8.73-.2,6.97,0,18.15,0,24.03,3.63,2.94,1.77,2.65,3.63,2.65,6.67,0,10.2-16.97,5.3-23.84,8.44-2.94,3.14-4.51,7.16-7.06,10.5l.1-.1ZM585.16,6.96c-.1-.2-.49-1.18-.49-1.37,0-1.77,6.08-4.41,7.65-4.41,3.04,0,9.32,9.91,9.32,12.75s-3.24,2.65-4.81,4.02c-1.18,1.08-.49,4.32-2.26,5.89-1.37,1.18-12.26,1.28-14.62,1.28h-32.77c-4.51,0-11.58-.39-11.58-6.47,0-3.24.78-6.96,3.83-8.63h-.1c4.51-2.26,23.54-1.96,28.74-1.96h13.24c.79,0,3.63-.2,3.92-1.08h-.1ZM600.96,5.89c0-2.94,4.12-4.9,6.77-5.2,3.33-.39,10.1,9.71,10.1,12.75,0,2.75-4.81,4.22-7.06,4.22-2.45,0-9.81-9.32-9.81-11.77Z"/>
        <path class="cls-2" d="M622.11,35.51c0-5.4.49-21.19,4.61-24.72,2.75-2.35,6.18-2.35,9.61-2.35,5.59,0,7.95,2.35,7.95,7.95,0,2.55-.39,5-.39,7.55,0,3.04.88,6.38,4.61,6.38,14.52,0,27.96-7.55,42.48-7.55,5.49,0,7.85,6.77,7.85,11.38-2.84,6.18-22.17,9.22-28.45,10.4h.1c-5.89.69-20.7,3.83-25.11,7.36-1.57,1.28-1.67,1.77-1.67,3.63,0,10.2.69,11.28,10.99,11.28,11.08,0,22.17-.69,33.26-.69,6.38,0,8.14.49,8.14,7.36,0,2.35-.29,4.12-1.77,5.98-3.33,4.32-28.64,5-34.63,5-28.15,0-37.57-5.1-37.57-34.73v-14.22ZM674.99,7.26c0-2.65,5.49-5.3,7.75-5.3,2.75,0,9.71,11.09,9.71,13.73s-5.59,5-7.95,5-9.52-10.99-9.52-13.44ZM691.47,5.49c0-3.04,4.61-5,7.16-5,3.14,0,11.18,11.09,11.18,14.13s-5.3,4.61-7.65,4.61c-2.94,0-10.69-10.89-10.69-13.73Z"/>
        <path class="cls-2" d="M747.37,24.52c7.85,0,16.68,1.67,18.54,10.69.49,2.35.59,4.81.59,7.26,0,5.89-.79,11.58-.79,17.46,0,3.83,1.08,6.67,5.4,6.67.98,0,1.96-.2,2.94-.2,3.24,0,4.91.69,4.91,4.22,0,2.45-.29,4.61-1.77,6.57-3.14,4.22-19.03,4.32-24.23,4.51-1.67.1-3.33.1-5,.1-2.16,0-4.22-.1-6.38-.1-2.84,0-18.34-.2-21.19-.2-7.16,0-11.77-.78-10.4-9.52.49-3.04,4.81-5.59,7.75-5.59l16.09.39c3.92,0,8.83-.59,10.89-4.41,1.96-3.53,1.57-10.89,1.57-14.91,0-.78,0-1.67-.1-2.45v.1c-1.08-5.3-8.14-5.89-12.56-5.89-2.84,0-5.79.29-8.63.29s-7.36-.88-7.36-4.61c0-2.94,0-5.2,2.26-7.46,2.75-2.75,16.38-2.94,20.5-2.94h6.96Z"/>
        <path class="cls-2" d="M841.96,35.81c1.77,0,3.63-.1,5.4-.1,3.73,0,7.55.29,11.28.88,4.81.69,11.28,2.75,11.28,8.63,0,9.52-19.03,9.71-25.5,9.71-2.85,0-5.79-.2-8.63-.2h-23.45c-6.67,0-28.74.78-28.74-9.52,0-9.22,16.68-9.52,23.05-9.52,1.77,0,3.53.1,5.3.1h30.02Z"/>
        <path class="cls-2" d="M945.46,59.84c-7.26,11.81-19.17,21.44-33.6,21.44-24.5,0-31.15-13.56-31.15-35.44,0-5.6,0-30.89,4.29-34.22,2.71-2.1,7.88-1.49,10.15-1.49,6.21,0,8.31,1.66,8.31,7.35,0,9.71-1.75,18.29-2.36,28.97-.44,8.23-2.36,17.59,8.58,17.76,6.56.09,11.9-8.58,15.58-14,2.1-3.5,4.46-9.01,9.28-9.01,2.98,0,15.23,5.6,15.23,9.36,0,2.98-2.8,6.83-4.29,9.36v-.09Z"/>
        <path class="cls-2" d="M986.39,46.98h.09c-1.22-1.23-9.1-.96-11.11-.96-3.41,0-6.83.18-10.15.18-3.67,0-8.93-.7-9.01-4.73v-1.05c0-2.28.17-3.5.52-4.64,1.31-3.76,14.7-3.59,18.2-3.59,2.89,0,5.69.17,8.58.17,1.14,0,2.71-.09,2.71-1.58l-.7-1.75c-1.58-.53-6.91-.35-8.75-.35-5.86,0-11.64.26-17.41.26-3.85,0-5.78-1.66-5.78-5.6,0-7.09,7.35-8.31,13.04-8.31,3.68,0,7.44.26,11.2.26,2.36,0,6.65.09,8.4-1.66.35-.35.7-.88.7-1.4s-.09-1.05-.09-1.58c0-2.71,3.67-2.89,5.69-2.89,2.19,0,7.88,0,9.36,1.84.79.96.44,1.49.44,2.54,0,6.3,16.1-1.14,20.56,7,.96,1.84,1.14,4.29,1.14,6.3,0,3.24-4.73,3.76-7.18,3.76-3.41,0-6.74-.44-10.15-.44-.88,0-3.59.18-3.59,2.19,0,1.49,3.06,1.58,4.11,1.58,1.14,0,2.19-.18,3.33-.18,6.83,0,10.68-.35,10.68,8.93,0,3.94-2.62,4.73-6.74,4.73-1.49,0-2.97-.17-4.55-.17-4.11,0-6.74,1.14-6.74,5.69,0,7.44,11.64,4.9,19.43,13.74,1.84,2.01-4.64,12.25-9.45,12.78-3.76.44-7.53-5.51-10.33-5.51-2.1,0-3.24,1.84-4.55,3.15h.09c-4.29,4.99-11.46,6.04-17.76,6.04-11.46,0-22.93-6.3-22.93-18.99,0-8.84,7.18-11.99,15.84-12.95,3.94-.44,7.88-.26,11.81-.26.88,0,1.57-.44,1.49-1.58l-.44-.96ZM978.78,61.42c-1.93,0-4.81.79-4.81,3.15,0,2.98,3.5,3.33,5.78,3.33s6.91-.26,6.91-3.5v-.88c0-1.66-4.46-2.1-5.69-2.1h-2.19Z"/>
        <path class="cls-2" d="M1068.74,27.73c-.7-2.19-9.01-.61-11.46-.61-6.56,0-13.13.26-19.69.26-5.51,0-7.09-1.05-7.09-6.74,0-6.91,6.13-7.09,19.69-7.09,4.29,0,8.58.18,12.86.18,3.5,0,5.86-.96,5.86-4.81,0-2.98,4.29-3.41,6.48-3.41,1.92,0,7.09,0,8.49,1.05,4.64,3.5-2.1,7.61,9.71,7.61,2.1,0,4.29-.09,6.48-.09,6.39,0,9.28,3.24,9.28,9.45,0,4.03-5.34,4.2-8.31,4.2-2.36,0-4.73-.44-7.09-.44-6.91,0-7.09,1.75-7.09,8.14,0,5.86,3.06,11.29,3.06,17.24,0,14.18-4.29,23.01-17.41,26.95-3.59,1.05-11.03,1.93-14.79,1.93-6.65,0-10.5-5.43-9.28-11.81,1.31-6.39,13.74-4.55,19.95-5.25,2.54,0,3.33-1.23,2.28-2.19-2.54,0-5.25.53-7.7.53-10.24,0-20.91-5.34-20.91-16.8,0-12.16,11.2-16.63,21.88-16.63,1.4,0,4.38.26,4.81-1.66ZM1064.98,50.57c2.8,0,5.43-1.49,5.43-4.55s-2.54-4.64-5.43-4.64-5.43,1.49-5.43,4.64c0,2.8,2.8,4.55,5.43,4.55Z"/>
        <path class="cls-2" d="M1127.28,22.91c0-7.35,3.94-9.01,10.59-9.01,7.61,0,8.58,4.9,8.58,11.29v6.3c0,4.2-.53,19.43-3.5,22.05-1.92,1.66-4.73,1.75-7.09,1.75-1.49,0-3.15,0-4.46-.7-3.68-1.93-4.11-18.03-4.11-22.05v-9.63ZM1140.32,62.03c3.41,0,5.16.88,5.16,4.55v1.49c0,5.43-2.71,7.61-7.96,7.61-8.31,0-9.36-1.93-9.36-9.89,0-2.45,1.93-3.76,4.29-3.76h7.88Z"/>
      </g>
    </g>
  </g>
</svg>