<?xml version="1.0" encoding="UTF-8"?>
<svg id="_レイヤー_2" data-name="レイヤー 2" xmlns="http://www.w3.org/2000/svg" viewBox="0 0 327.49 92.71">
  <defs>
    <style>
      .cls-1 {
        fill: #fff;
      }

      .cls-2 {
        fill: #0065af;
      }
    </style>
  </defs>
  <g id="_文字" data-name="文字">
    <g>
      <g>
        <path class="cls-2" d="M14.14,92.71c-1.43,0-2.75-.68-3.59-1.79-.29.06-.59.09-.89.1h-.43s-.03,0-.05,0c-2.3,0-4.23-1.74-4.47-4.03l-.75-7.18c-.44-.52-.77-1.13-.94-1.8l-1.24-4.83c-.33-1.27-.08-2.62.67-3.7.1-.14.21-.28.32-.41l-2.21-3.94c-.96-1.71-.7-3.85.64-5.28l.36-.38c.48-.51,1.06-.89,1.69-1.13l.23-1.66c.34-2.38,2.48-4.07,4.87-3.85l5.71.52c1.74.16,3.23,1.31,3.82,2.95.02.07.05.13.07.2l.28-.15-.14-.83c-.41-2.44,1.22-4.75,3.66-5.17l5.34-.94c1.21-.21,2.46.08,3.45.81,1.79-.54,3.76.09,4.91,1.63l3.31,4.46c.91,1.23,1.14,2.84.6,4.27.02.1.03.21.04.31l1.1,11.89c.04.48.01.95-.09,1.4l2.82,6.3c.56,1.24.52,2.67-.1,3.89-.62,1.21-1.76,2.08-3.09,2.36l-11.49,2.38c-1.2.25-2.44,0-3.45-.69-.76-.52-1.33-1.25-1.66-2.1l-.99.8c.22,2.32-1.38,4.45-3.7,4.85l-3.83.67c-.26.05-.53.07-.79.07Z"/>
        <path class="cls-2" d="M45.53,86.29c-.84,0-1.67-.24-2.4-.69-1.07-.68-1.81-1.78-2.03-3.03l-.93-5.27c-.22-1.24.09-2.51.85-3.51.27-.35.58-.66.93-.91-.21-.4-.36-.84-.44-1.29l-.47-2.67c-1.24.17-2.52-.17-3.53-1.02l-.42-.35c-1.82-1.54-2.12-4.22-.7-6.13l10.81-14.49c.97-1.3,2.56-1.98,4.18-1.77l7.49.95c1.49.19,2.77,1.11,3.43,2.41l8.56,1.09c1.44.18,2.71,1.06,3.4,2.34.69,1.28.71,2.82.06,4.12l-2.42,4.87c.37.52.63,1.14.75,1.81l.09.48c.21,1.19-.07,2.36-.7,3.3.17.33.31.69.39,1.07.14.62.15,1.24.04,1.85,1.91.25,3.51,1.71,3.86,3.68l.08.48c.4,2.28-.99,4.49-3.22,5.11l-26.45,7.4c-.4.11-.81.17-1.21.17Z"/>
        <path class="cls-2" d="M79.52,76.7c-1.94,0-3.73-.78-5.04-2.23-1.14-1.27-1.89-2.96-2.28-5.16-.29-1.62-.38-3.52-.28-5.81.06-1.65.39-3.38,1-5.11.56-1.58,1.29-3.14,2.19-4.63.88-1.47,1.89-2.83,2.99-4.06,1.16-1.29,2.39-2.37,3.66-3.23,1.5-1.01,3.02-1.66,4.54-1.92,2.04-.36,4.12-.46,6.18-.31,2.01.15,3.98.52,5.84,1.08,1.92.58,3.69,1.37,5.26,2.35,1.68,1.04,3.1,2.28,4.23,3.69,1.28,1.6,2.1,3.38,2.44,5.3.21,1.22.17,2.54-.14,4.05-.29,1.43-.87,2.88-1.78,4.45-.86,1.5-2.05,2.99-3.63,4.55-1.5,1.49-3.43,2.99-5.73,4.46-1.67,1.07-3.85.92-5.36-.38l-.38-.32c-1.76-1.52-2.08-4.13-.73-6.02.09-.13.19-.27.28-.4-1.07,1.35-2.26,2.7-3.54,4.04-1.48,1.53-2.78,2.68-4.02,3.53-1.53,1.07-2.97,1.71-4.4,1.96-.44.08-.88.12-1.31.12Z"/>
        <path class="cls-2" d="M129.44,72.77c-.19,0-.37-.01-.56-.03l-12.39-1.55c-1.96-.24-3.53-1.74-3.87-3.68l-.08-.45c-.91.36-1.93.42-2.92.12l-.45-.13c-2.16-.64-3.51-2.78-3.16-5.01l2.58-16.59c.19-1.23.88-2.32,1.91-3.03,1.03-.7,2.3-.95,3.51-.67l1.68.37-.56-2.89c-.23-1.18.03-2.41.71-3.4.68-.99,1.74-1.67,2.92-1.88l5.89-1.04c1.21-.21,2.46.08,3.45.81.99.73,1.64,1.83,1.8,3.05l.19,1.48c1.48-.22,3.02.3,4.06,1.5l10.26,11.84c.82.95,1.21,2.19,1.07,3.43-.13,1.24-.78,2.38-1.78,3.12l-5.25,3.91c-1.15.86-2.64,1.11-4.01.69-.46-.14-.89-.35-1.27-.62l.72,5.57c.18,1.38-.29,2.77-1.27,3.75-.85.85-2,1.32-3.19,1.32ZM118.71,57.86l-1.92,3.56,2.43-.92-.51-2.65Z"/>
        <path class="cls-2" d="M151.02,68.58c-2.09,0-3.96-1.47-4.4-3.59l-.72-3.49c-.32.03-.64.03-.97-.02l-.47-.06c-2.16-.27-3.82-2.04-3.94-4.21l-.6-10.68c-.54-.61-.92-1.37-1.06-2.2l-.91-5.17c-.22-1.25.1-2.53.87-3.54.41-.52.92-.95,1.49-1.24l-.05-.23c-.24-1.19,0-2.43.69-3.43s1.74-1.69,2.94-1.9l5.38-.95c.83-.15,1.67-.06,2.43.25.56-.1,1.15-.1,1.72.02l4.76.99c.09-.22.19-.44.31-.66.76-1.31,2.12-2.15,3.63-2.23l6.05-.36c.98-.06,1.93.21,2.72.72.71,0,1.43.15,2.09.49,1.4.71,2.32,2.1,2.45,3.66l.54,6.85c.94.76,1.54,1.88,1.65,3.11l.69,8.2c.31.14.6.32.87.54,1.13.89,1.77,2.26,1.72,3.7l-.21,6.04c-.08,2.2-1.73,4.01-3.91,4.3l-9.69,1.28c-1.1.15-2.2-.12-3.12-.74-.41,1.19-1.3,2.17-2.48,2.67-1.17.5-2.47.48-3.6-.02-.62.58-1.4.99-2.29,1.15l-3.79.67c-.26.05-.53.07-.79.07Z"/>
        <path class="cls-2" d="M179.47,62.42c-.9,0-1.8-.27-2.58-.81l-.32-.23c-1.79-1.25-2.42-3.61-1.5-5.59l4.34-9.31-7.27-7.29c-1.54-1.54-1.75-3.97-.5-5.76l.23-.32c1.25-1.79,3.61-2.42,5.59-1.5l9.31,4.35,7.33-7.29c1.54-1.54,3.97-1.75,5.75-.5l.32.23c1.79,1.25,2.42,3.61,1.5,5.58l-4.34,9.34,7.28,7.3c1.62,1.63,1.76,4.21.32,6l-.23.29c-1.29,1.61-3.51,2.13-5.39,1.27l-9.38-4.32-7.28,7.25c-.87.87-2.02,1.31-3.18,1.31Z"/>
        <path class="cls-2" d="M205.12,59.14c-.73,0-1.47-.18-2.16-.55l-.39-.21c-1.99-1.09-2.86-3.48-2.03-5.59l4.35-11.14-2.49.77c-1.23.38-2.57.21-3.67-.46-1.1-.67-1.86-1.79-2.08-3.06l-1.12-6.38c-.22-1.22.08-2.48.83-3.47.74-.99,1.86-1.64,3.09-1.78l7.67-.88-.4-4.28c-.11-1.19.26-2.39,1.03-3.31.77-.92,1.87-1.5,3.07-1.6l6.27-.54c1.24-.11,2.46.3,3.39,1.13.92.83,1.46,2,1.49,3.25l.08,3.63,9.07-1.05c2.36-.27,4.53,1.34,4.95,3.69l.1.55c.39,2.23-.94,4.41-3.1,5.08l-6.53,2.01,8.36,4.32c2.02,1.04,2.94,3.43,2.16,5.56l-2.53,6.84c-.54,1.46-1.8,2.54-3.33,2.85-1.53.31-3.11-.19-4.17-1.33l-9.04-9.61-9.1,13.54c-.86,1.28-2.28,1.99-3.74,1.99Z"/>
        <path class="cls-2" d="M242.29,52.48c-2.05,0-3.88-1.4-4.37-3.46l-2.98-12.53c-.67-.65-1.13-1.51-1.3-2.45l-.69-3.9c-.19-.08-.38-.18-.56-.29-1.09-.68-1.83-1.78-2.06-3.04l-.95-5.41c-.21-1.22.08-2.47.82-3.46.74-.99,1.85-1.64,3.07-1.79l7.38-.89c.05-.78.3-1.54.73-2.21.68-1.03,1.76-1.74,2.98-1.96l6.1-1.08c1.24-.22,2.52.09,3.52.86.83.64,1.4,1.53,1.64,2.54l8.47-1.03c2.37-.29,4.56,1.33,4.98,3.69l.08.45c.34,1.96-.64,3.88-2.36,4.77.63.63,1.07,1.45,1.24,2.39l.09.52c.24,1.37-.17,2.72-1.02,3.72l1.77,15.29c.27,2.37-1.34,4.54-3.69,4.95l-4.55.8c-1.79.32-3.53-.48-4.5-1.89l-5.29,2.11c-.62,1.24-1.79,2.18-3.25,2.44l-4.52.8c-.26.05-.53.07-.79.07Z"/>
        <path class="cls-2" d="M271.15,46.26c-.9,0-1.8-.27-2.58-.81l-.32-.23c-1.79-1.25-2.42-3.61-1.5-5.59l4.34-9.31-7.27-7.29c-1.54-1.54-1.75-3.97-.5-5.76l.23-.32c1.25-1.79,3.61-2.42,5.59-1.5l9.31,4.35,7.33-7.29c1.54-1.54,3.97-1.75,5.75-.5l.33.23c1.79,1.25,2.42,3.61,1.5,5.59l-4.34,9.34,7.28,7.3c1.62,1.63,1.76,4.21.32,6l-.23.29c-1.29,1.61-3.51,2.13-5.39,1.27l-9.38-4.32-7.28,7.25c-.87.87-2.02,1.31-3.18,1.31Z"/>
        <path class="cls-2" d="M296.91,42.96c-.46,0-.93-.07-1.38-.22-1.23-.39-2.23-1.3-2.75-2.48l-2.14-4.88c-.55-1.24-.5-2.67.13-3.88.02-.04.04-.08.07-.12l-.51-1.74c-.69-.66-1.16-1.52-1.33-2.48l-.85-4.83c-.09-.48-.09-.97-.02-1.45-.98-1.16-1.33-2.75-.88-4.23l3.43-11.2c.59-1.92,2.39-3.22,4.4-3.18l6.14.13c1.01.02,1.97.38,2.73.99v-.04c.54-2.01,2.38-3.4,4.45-3.36l6.88.14c1.71.03,3.25,1.03,3.98,2.58.17.35.28.72.35,1.09l3.76,1.15c1.17.36,2.14,1.17,2.69,2.26.55,1.09.64,2.35.25,3.5l-.67,1.94c.78.79,1.24,1.86,1.28,2.99l.58,16.39c.05,1.53-.67,2.97-1.92,3.85-1.25.87-2.86,1.05-4.27.48l-.71-.29c-.43,1.67-1.8,2.99-3.58,3.31l-3.55.63c-2.26.4-4.43-.96-5.09-3.12l-9.17,5.44c-.7.42-1.5.63-2.3.63Z"/>
      </g>
      <g>
        <path class="cls-1" d="M27.64,84.7l-1.69-10.01-4.99,2.73-1.31-4.99-2.43,2.92-1.1-3.43-4.23,2.42,4.21-.74,1.89,13.95-3.83.67-2.16-9.85-2.36,8.16h-.43s-.93-8.89-.93-8.89l3.6.25-.7-3.15-3.78,2.16-1.24-4.83,3.25-.32,1.59-5.68-3.37,2.44-3.11-5.56.36-.38,2.21,1.03.88-6.27,5.71.52-6.01,6.04,3.48,1.62,1.39-5.01,4.77,2.04-6.92,9.15,5.48-.54-1.18-3.84.38-.25,4.44,4.83-1.7-6.63,4.86-.86.96,7.44,1.78-.21-1.77-10.42-5.94,1.15-.17-.54,5.69-2.99-.68-4.04,5.34-.94.27,2.51,3.69-1.82,3.31,4.46-6.6,1.27,1.16,10.81,2.33-.3-1.98-8.61,4.86-.86,1.1,11.89-3.31.58-.58-2.46-2.27,1.22.84,7.39,3.97-1.87.34-3.93.41-.07,3.7,8.27-11.49,2.38ZM19.22,83.94l-1.88-7.42.4-.18,4.56,5.1-3.08,2.5Z"/>
        <path class="cls-1" d="M45.53,81.79l-.93-5.27,5.31-.51-2.59-5.23.38-.28,7.16,2.72-4.04,2.7,5.17-.49-1.66-7.17-8.4,2.55-.85-4.83,8.51-.9-.76-3.31-5.1,1.93-.77-4.34-6.56,5.1-.42-.35,10.81-14.49,7.49.95-2.15,1.69,14.14,1.81-2.94,5.92-12.12-7.03-7.16,5.56,14.74-1.04.08.48-8.3,3.13,3.72-.66.5,4.07,9.39-.98.09.48-9.21,2.8.99,8.21,11.81-1.12.08.48-26.45,7.4ZM61.57,74.59l-.45-.13,1.53-7.45,5.4,1.61-6.48,5.98Z"/>
        <path class="cls-1" d="M96.17,70.05c1.2-1.68,2.12-3.28,2.78-4.81.65-1.52,1.08-2.89,1.28-4.1.2-1.21.24-2.18.11-2.92-.18-1.01-.55-1.98-1.11-2.9-.57-.92-1.41-1.69-2.54-2.32-1.28,2.12-2.47,4.04-3.55,5.74-1.08,1.71-2.19,3.3-3.32,4.78-1.13,1.48-2.4,2.96-3.82,4.44-1.24,1.29-2.35,2.27-3.34,2.95-.98.68-1.85,1.09-2.61,1.22-.92.16-1.66-.07-2.22-.69-.56-.62-.96-1.6-1.19-2.94-.23-1.29-.3-2.9-.21-4.83.04-1.24.29-2.51.75-3.81.46-1.3,1.06-2.57,1.8-3.8.74-1.23,1.57-2.36,2.48-3.37.91-1.01,1.85-1.85,2.83-2.51.97-.66,1.91-1.06,2.8-1.22,1.68-.3,3.36-.38,5.06-.25,1.69.13,3.32.43,4.87.9,1.55.47,2.95,1.1,4.2,1.87,1.25.77,2.28,1.67,3.08,2.67.8,1.01,1.31,2.1,1.52,3.27.11.64.08,1.43-.12,2.37-.19.93-.61,1.97-1.27,3.1-.65,1.13-1.62,2.34-2.9,3.6-1.28,1.27-2.94,2.56-4.99,3.86l-.38-.32ZM96.4,52.84c-1.36-.73-2.84-1.25-4.43-1.56-1.6-.31-3.08-.35-4.46-.1-.83.15-1.64.63-2.45,1.44-.8.82-1.54,1.84-2.19,3.07-.66,1.23-1.18,2.53-1.57,3.9-.39,1.37-.56,2.69-.53,3.97,0,.45.04.82.09,1.12.15.83.51,1.19,1.08,1.09.39-.07.97-.37,1.72-.91,1.83-1.32,3.83-2.99,6.01-5.02,2.18-2.03,4.42-4.36,6.73-7Z"/>
        <path class="cls-1" d="M110.45,62.74l2.58-16.59,6.14,1.37-8.27,15.35-.45-.13ZM117.05,66.73l-.1-.55,7.4-2.8-4.8-24.99,5.89-1.04,4,30.93-12.39-1.55ZM135.78,58.45l-5.39-15.47.38-.28,10.26,11.84-5.25,3.91Z"/>
        <path class="cls-1" d="M151.02,64.08l-3.33-16.05-2.22,8.99-.47-.06-.73-13.02,3.16,2.78-.99-4.8-3.16,1.62-.91-5.17,3.29-.26-1-4.87,5.38-.95.81,5.4,3.29-.26.08.48-3.1,1.58.28,1.8,3.43,3.13-.2,6.5-3.04-8.38,3.22,20.86-3.79.67ZM152.16,33.03l.34-.49,6.94,1.44-2.61,4.94-4.66-5.89ZM153.13,39.75l.27-.47,6.34,1.51-2.35,4.82-4.27-5.86ZM166.49,60.32l-4.82-3.56-1.58.28-.37,5.54-3.87-3.23,2.98-2.48-1.8-8-1.56-.97-.09-.52,5.62-3.62,1.35,11.88,4.08.17,9.99-2.83-.21,6.04-9.69,1.28ZM170.79,53.27l-.49-2.15-6.51,3.6-4.18-20.48,4.14-.73-1.38-2.78,6.05-.36-3.87,3.63.13.94,6.25-3.84.8,10.2-3.31.58-.33-1.26-2.42,1.78.38,2.74,7.07-4.05.98,11.59-3.31.58ZM167,36.17l-2.21-.43.45,3.15,2.62.78-.87-3.51ZM169.33,46.56l-3.16-.58.49,3.61,3.44.57-.78-3.6Z"/>
        <path class="cls-1" d="M201.18,54.09l-12.22-5.63-9.49,9.46-.32-.23,5.68-12.16-9.5-9.52.23-.32,12.16,5.67,9.56-9.5.32.23-5.67,12.19,9.5,9.52-.23.29Z"/>
        <path class="cls-1" d="M217.37,36.42l-12.25,18.22-.39-.21,7.74-19.81-11.4,3.5-1.12-6.38,12.05-1.38-.82-8.67,6.27-.54.2,8.57,13.97-1.61.1.55-13.99,4.31.1,2.58,14.98,7.74-2.53,6.84-12.9-13.72Z"/>
        <path class="cls-1" d="M238.06,33.27l-.94-5.34,10.6-1.37-.96-4.02-12,3.5-.95-5.41,12.18-1.47-.85-3.62,6.1-1.08.35,3.99,13.05-1.59.08.45-12.91,3.77.43,4.86,11.36-1.47.09.52-25.62,8.28ZM259.84,44.53l-.76-3.49-12.42,4.96.14,1.18-4.52.8-3.28-13.78,6.17-1.09.16,1.5,17.22-6.73,1.83,15.85-4.55.8ZM257.74,34.6l-12.25,1.09.61,5.26,12.82-.84-1.19-5.51Z"/>
        <path class="cls-1" d="M292.87,37.93l-12.22-5.63-9.49,9.46-.32-.23,5.67-12.16-9.5-9.52.23-.32,12.16,5.67,9.56-9.5.33.23-5.67,12.19,9.5,9.52-.23.29Z"/>
        <path class="cls-1" d="M296.91,38.46l-2.14-4.88,5.08-1.04-1.77-7.83-4.65,1.67-.85-4.83,4.78-.1-.64-2.84-2.58,1.06-.58-3.31-1.58,1.95-.42-.35,3.43-11.2,6.14.13-1.84,2.28,6.97.23-1.71,5.63-5.64-5.37-4.2,5.22,9.36.27.08.48-6.57,2.65,4.38-.77.5,3.86,3.68-.08.08.48-3.54,1.26,1.11,8.72,5.28-1.07.08.48-12.26,7.28ZM295.95,32.83l-1.78-6.08.35-.24,4.63,3.31-3.2,3.02ZM304.48,30.59l-.12-6.91,4.18,1.54-3.68,5.52-.38-.15ZM313.1,7.31l-7.55,9.58-.39-.39,3.14-12,6.88.14-1.6,2.02,8.45,2.6-1.95,5.67-6.99-7.62ZM316.6,29.59l-.07-.41,2.25-1.14-.62-5.93-3.02-.18,1.09,13.03-3.55.63-3.11-12.99,4.34-.77-7.29-.46-.04-.42,15.83-5.14.58,16.39-6.39-2.6ZM308.95,18.89l-.87-4.93,10.28-.18.08.45-9.49,4.66Z"/>
      </g>
    </g>
  </g>
</svg>