<?xml version="1.0" encoding="UTF-8"?>
<svg id="_レイヤー_2" data-name="レイヤー 2" xmlns="http://www.w3.org/2000/svg" xmlns:xlink="http://www.w3.org/1999/xlink" viewBox="0 0 1223.48 209.62">
  <defs>
    <style>
      .cls-1 {
        fill: none;
      }

      .cls-2 {
        fill: #004098;
      }

      .cls-3 {
        fill: #006837;
      }

      .cls-4 {
        clip-path: url(#clippath);
      }

      .cls-5 {
        fill: #c8161d;
      }
    </style>
    <clipPath id="clippath">
      <rect class="cls-1" x="184.72" y="116.76" width="473.79" height="76.66"/>
    </clipPath>
  </defs>
  <g id="_レイヤー_1-2" data-name="レイヤー 1">
    <g>
      <g>
        <g>
          <g>
            <path class="cls-5" d="M235.65,182.47l-29.45-28.22-3.02,2.81-.86,24.62h-9.07l-1.94-56.16h12.96l-.86,25.06,18.36-25.78,13.03,3.46-19.37,17.57,21.24,36.72-1.01-.07Z"/>
            <path class="cls-5" d="M283.03,182.47l-8.5-18.14-28.51,4.97-7.49,13.18h-1.08l19.66-56.88,11.38-1.73,23.04,57.67-8.5.94ZM262.8,139.27l-11.16,19.94,22.03,3.38-10.87-23.33Z"/>
            <path class="cls-5" d="M339.98,182.62l-29.95-42.98-6.41,42.98h-1.15l-4.61-57.1h11.81l24.62,29.81,7.63-30.53h1.37l-2.74,57.82h-.58Z"/>
            <path class="cls-5" d="M395.28,182.47l-8.5-18.14-28.51,4.97-7.49,13.18h-1.08l19.66-56.88,11.38-1.73,23.04,57.67-8.5.94ZM375.04,139.27l-11.16,19.94,22.03,3.38-10.87-23.33Z"/>
            <path class="cls-5" d="M412.92,182.4l-2.66-56.88h13.1l-.14,5.47,25.92-6.19v11.66l-25.99-2.52-.43,18.22,22.75-5.33v11.45l-22.82-3.24-.43,17.35,28.37,3.02v.72l-37.66,6.26Z"/>
            <path class="cls-5" d="M494.56,182.62c-7.39,0-13.56-.34-18.5-1.01-4.94-.67-8.86-1.78-11.74-3.31-2.88-1.54-4.94-3.55-6.19-6.05-1.25-2.5-1.87-5.54-1.87-9.14,0-4.66.74-8.66,2.23-12.02,1.49-3.36,3.52-5.94,6.08-7.74,2.57-1.8,5.46-2.7,8.68-2.7,4.37,0,8.32.47,11.84,1.4,3.53.94,6.47,2.08,8.82,3.42l-4.61,9.58c-2.93-2.93-5.54-5.2-7.85-6.8-2.3-1.61-4.66-2.41-7.06-2.41-1.39,0-2.66.56-3.82,1.69-1.15,1.13-2.05,2.99-2.7,5.58-.65,2.59-.97,6.12-.97,10.58,0,3.22.94,5.9,2.81,8.06,1.87,2.16,4.86,4.02,8.96,5.58,4.1,1.56,9.49,3.06,16.16,4.5l-.29.79Z"/>
            <path class="cls-5" d="M528.4,181.68l-1.15-24.7c-.14-3.17-.56-5.27-1.26-6.3-.7-1.03-1.79-1.55-3.28-1.55-1.2,0-2.88.32-5.04.97-2.16.65-4.25,1.62-6.26,2.92l-.94,28.66h-8.86l-1.87-56.16h12.6l-.79,24.19c1.49-1.78,3.22-3.35,5.18-4.72,1.97-1.37,4.04-2.44,6.23-3.2,2.18-.77,4.28-1.15,6.3-1.15,3.6,0,6.05.97,7.34,2.92s1.94,4.76,1.94,8.46c0,.34-.01.66-.04.97-.02.31-.04.66-.04,1.04l-1.15,27.65h-8.93Z"/>
            <path class="cls-5" d="M588.52,175.92c-2.21,2.06-4.15,3.7-5.83,4.9-1.68,1.2-3.19,1.8-4.54,1.8-1.06,0-2-.42-2.84-1.26-.84-.84-1.62-2.2-2.34-4.07-1.49,1.3-3.31,2.39-5.47,3.28-2.16.89-4.49,1.48-6.98,1.76-.77.1-1.51.17-2.23.22-.72.05-1.42.07-2.09.07-6.77,0-10.15-2.42-10.15-7.27,0-.58.05-1.18.14-1.8.1-.62.24-1.3.43-2.02.43-1.58,1.31-3.01,2.63-4.28,1.32-1.27,2.92-2.42,4.79-3.46,1.87-1.03,3.79-1.99,5.76-2.88,1.97-.89,3.8-1.73,5.51-2.52,1.7-.79,3.1-1.57,4.18-2.34,1.08-.77,1.62-1.54,1.62-2.3,0-2.11-.26-3.54-.79-4.28-.53-.74-1.54-1.12-3.02-1.12-1.06,0-2.69.1-4.9.29-2.21.19-4.63.48-7.27.86-2.64.38-5.16.89-7.56,1.51l-.36-.72c1.3-1.25,2.96-2.45,5-3.6,2.04-1.15,4.22-2.18,6.55-3.1,2.33-.91,4.64-1.63,6.95-2.16,2.3-.53,4.39-.79,6.26-.79,2.98,0,5.2.3,6.66.9,1.46.6,2.45,1.78,2.95,3.53.5,1.75.76,4.38.76,7.88v18.22c0,1.73.15,2.96.47,3.71.31.74,1.04,1.12,2.2,1.12.38,0,.85-.05,1.4-.14.55-.1,1.16-.22,1.84-.36l.29.43ZM571.67,160.01c-1.06.91-2.46,1.88-4.21,2.92-1.75,1.03-3.44,2.14-5.08,3.31-1.63,1.18-2.83,2.48-3.6,3.92-.67,1.34-1.01,2.52-1.01,3.53s.3,1.75.9,2.38c.6.62,1.45.94,2.56.94.24,0,.49-.01.76-.04.26-.02.52-.06.76-.11.96-.24,2.08-.58,3.35-1.01,1.27-.43,2.47-.94,3.6-1.51,1.13-.58,1.93-1.15,2.41-1.73l-.43-12.6Z"/>
            <path class="cls-5" d="M620.99,181.68l-1.15-24.7c-.14-3.17-.57-5.27-1.26-6.3-.7-1.03-1.79-1.55-3.28-1.55-1.15,0-2.76.3-4.82.9-2.06.6-4.08,1.52-6.05,2.77l-1.37,28.87h-8.86l-1.87-40.1h12.6l-.36,7.63c1.49-1.68,3.2-3.17,5.15-4.46,1.94-1.3,3.97-2.3,6.08-3.02,2.11-.72,4.13-1.08,6.05-1.08,3.6,0,6.05.97,7.34,2.92s1.94,4.76,1.94,8.46c0,.34-.01.66-.04.97-.02.31-.04.66-.04,1.04l-1.15,27.65h-8.93Z"/>
            <path class="cls-5" d="M682.98,184.71l-22.75-15.77-22.61,15.77-.58-.58,15.84-22.61-15.84-22.68.58-.58,22.61,15.84,22.75-15.84.58.58-15.84,22.68,15.84,22.68-.58.5Z"/>
            <path class="cls-5" d="M736.62,181.68l-2.09-42.12-16.06,36.65h-.5l-16.13-36.65-6.55,43.13h-1.08l-3.96-57.17h13.25l17.5,29.09,13.39-29.09h11.74l-1.08,56.16h-8.42Z"/>
            <path class="cls-5" d="M761.03,181.68l-2.02-56.16h13.54l-2.02,56.16h-9.5Z"/>
            <path class="cls-5" d="M827.48,182.62l-29.95-42.98-6.41,42.98h-1.15l-4.61-57.1h11.81l24.62,29.81,7.63-30.53h1.37l-2.74,57.82h-.58Z"/>
            <path class="cls-5" d="M866.65,183.12c-2.74,0-5.6-.68-8.6-2.05-3-1.37-5.82-3.35-8.46-5.94s-4.78-5.71-6.41-9.36c-1.63-3.65-2.45-7.75-2.45-12.31,0-3.55.54-6.85,1.62-9.9,1.08-3.05,2.53-5.77,4.36-8.17,1.82-2.4,3.86-4.45,6.12-6.16,2.26-1.7,4.57-3,6.95-3.89,2.38-.89,4.67-1.33,6.88-1.33s4.43.46,6.8,1.37c2.38.91,4.68,2.22,6.91,3.92,2.23,1.7,4.26,3.76,6.08,6.16,1.82,2.4,3.26,5.11,4.32,8.14,1.05,3.02,1.58,6.31,1.58,9.86,0,4.56-.82,8.66-2.45,12.31-1.63,3.65-3.74,6.77-6.34,9.36s-5.38,4.57-8.35,5.94c-2.98,1.37-5.83,2.05-8.57,2.05ZM869.53,176.93c2.26,0,4.25-.74,5.98-2.23,1.73-1.49,3.08-3.56,4.07-6.23.98-2.66,1.48-5.75,1.48-9.25,0-4.85-.55-9.08-1.66-12.71-1.1-3.62-2.54-6.64-4.32-9.04-1.78-2.4-3.66-4.2-5.65-5.4-1.99-1.2-3.88-1.8-5.65-1.8-2.21,0-4.2.73-5.98,2.2-1.78,1.46-3.18,3.49-4.21,6.08-1.03,2.59-1.55,5.64-1.55,9.14,0,5.14.56,9.55,1.69,13.25,1.13,3.7,2.59,6.72,4.39,9.07,1.8,2.35,3.71,4.09,5.72,5.22,2.02,1.13,3.91,1.69,5.69,1.69Z"/>
            <path class="cls-5" d="M945.85,182.62l-29.66-26.42.07-1.01c2.83-.58,5.39-1.6,7.67-3.06,2.28-1.46,4.2-3.14,5.76-5.04,1.56-1.9,2.65-3.78,3.28-5.65.43-1.25.65-2.42.65-3.53,0-1.87-.65-3.41-1.94-4.61-1.3-1.2-3.29-1.8-5.98-1.8-3.31,0-6.79.46-10.44,1.37l-1.08,48.82h-9.22l-2.66-56.16h13.1l-.07,3.96c2.26-1.25,4.55-2.22,6.88-2.92,2.33-.7,4.57-1.04,6.73-1.04,4.03,0,7.25.66,9.65,1.98,2.4,1.32,4.14,2.98,5.22,4.97,1.08,1.99,1.62,4.04,1.62,6.16,0,1.44-.22,2.78-.65,4.03-.67,2.06-1.84,3.92-3.49,5.58s-3.55,3.04-5.69,4.14c-2.14,1.1-4.24,1.92-6.3,2.45l17.5,27.86-.94-.07Z"/>
            <path class="cls-5" d="M957.73,181.68l-2.02-56.16h13.54l-2.02,56.16h-9.5Z"/>
            <path class="cls-5" d="M1024.19,182.62l-29.95-42.98-6.41,42.98h-1.15l-4.61-57.1h11.81l24.62,29.81,7.63-30.53h1.37l-2.74,57.82h-.58Z"/>
          </g>
          <g class="cls-4">
            <g>
              <path class="cls-3" d="M235.65,182.47l-29.45-28.22-3.02,2.81-.86,24.62h-9.07l-1.94-56.16h12.96l-.86,25.06,18.36-25.78,13.03,3.46-19.37,17.57,21.24,36.72-1.01-.07Z"/>
              <path class="cls-3" d="M283.03,182.47l-8.5-18.14-28.51,4.97-7.49,13.18h-1.08l19.66-56.88,11.38-1.73,23.04,57.67-8.5.94ZM262.8,139.27l-11.16,19.94,22.03,3.38-10.87-23.33Z"/>
              <path class="cls-3" d="M339.98,182.62l-29.95-42.98-6.41,42.98h-1.15l-4.61-57.1h11.81l24.62,29.81,7.63-30.53h1.37l-2.74,57.82h-.58Z"/>
              <path class="cls-3" d="M395.28,182.47l-8.5-18.14-28.51,4.97-7.49,13.18h-1.08l19.66-56.88,11.38-1.73,23.04,57.67-8.5.94ZM375.04,139.27l-11.16,19.94,22.03,3.38-10.87-23.33Z"/>
              <path class="cls-3" d="M412.92,182.4l-2.66-56.88h13.1l-.14,5.47,25.92-6.19v11.66l-25.99-2.52-.43,18.22,22.75-5.33v11.45l-22.82-3.24-.43,17.35,28.37,3.02v.72l-37.66,6.26Z"/>
              <path class="cls-3" d="M494.56,182.62c-7.39,0-13.56-.34-18.5-1.01-4.94-.67-8.86-1.78-11.74-3.31-2.88-1.54-4.94-3.55-6.19-6.05-1.25-2.5-1.87-5.54-1.87-9.14,0-4.66.74-8.66,2.23-12.02,1.49-3.36,3.52-5.94,6.08-7.74,2.57-1.8,5.46-2.7,8.68-2.7,4.37,0,8.32.47,11.84,1.4,3.53.94,6.47,2.08,8.82,3.42l-4.61,9.58c-2.93-2.93-5.54-5.2-7.85-6.8-2.3-1.61-4.66-2.41-7.06-2.41-1.39,0-2.66.56-3.82,1.69-1.15,1.13-2.05,2.99-2.7,5.58-.65,2.59-.97,6.12-.97,10.58,0,3.22.94,5.9,2.81,8.06,1.87,2.16,4.86,4.02,8.96,5.58,4.1,1.56,9.49,3.06,16.16,4.5l-.29.79Z"/>
              <path class="cls-3" d="M528.4,181.68l-1.15-24.7c-.14-3.17-.56-5.27-1.26-6.3-.7-1.03-1.79-1.55-3.28-1.55-1.2,0-2.88.32-5.04.97-2.16.65-4.25,1.62-6.26,2.92l-.94,28.66h-8.86l-1.87-56.16h12.6l-.79,24.19c1.49-1.78,3.22-3.35,5.18-4.72,1.97-1.37,4.04-2.44,6.23-3.2,2.18-.77,4.28-1.15,6.3-1.15,3.6,0,6.05.97,7.34,2.92s1.94,4.76,1.94,8.46c0,.34-.01.66-.04.97-.02.31-.04.66-.04,1.04l-1.15,27.65h-8.93Z"/>
              <path class="cls-3" d="M588.52,175.92c-2.21,2.06-4.15,3.7-5.83,4.9-1.68,1.2-3.19,1.8-4.54,1.8-1.06,0-2-.42-2.84-1.26-.84-.84-1.62-2.2-2.34-4.07-1.49,1.3-3.31,2.39-5.47,3.28-2.16.89-4.49,1.48-6.98,1.76-.77.1-1.51.17-2.23.22-.72.05-1.42.07-2.09.07-6.77,0-10.15-2.42-10.15-7.27,0-.58.05-1.18.14-1.8.1-.62.24-1.3.43-2.02.43-1.58,1.31-3.01,2.63-4.28,1.32-1.27,2.92-2.42,4.79-3.46,1.87-1.03,3.79-1.99,5.76-2.88,1.97-.89,3.8-1.73,5.51-2.52,1.7-.79,3.1-1.57,4.18-2.34,1.08-.77,1.62-1.54,1.62-2.3,0-2.11-.26-3.54-.79-4.28-.53-.74-1.54-1.12-3.02-1.12-1.06,0-2.69.1-4.9.29-2.21.19-4.63.48-7.27.86-2.64.38-5.16.89-7.56,1.51l-.36-.72c1.3-1.25,2.96-2.45,5-3.6,2.04-1.15,4.22-2.18,6.55-3.1,2.33-.91,4.64-1.63,6.95-2.16,2.3-.53,4.39-.79,6.26-.79,2.98,0,5.2.3,6.66.9,1.46.6,2.45,1.78,2.95,3.53.5,1.75.76,4.38.76,7.88v18.22c0,1.73.15,2.96.47,3.71.31.74,1.04,1.12,2.2,1.12.38,0,.85-.05,1.4-.14.55-.1,1.16-.22,1.84-.36l.29.43ZM571.67,160.01c-1.06.91-2.46,1.88-4.21,2.92-1.75,1.03-3.44,2.14-5.08,3.31-1.63,1.18-2.83,2.48-3.6,3.92-.67,1.34-1.01,2.52-1.01,3.53s.3,1.75.9,2.38c.6.62,1.45.94,2.56.94.24,0,.49-.01.76-.04.26-.02.52-.06.76-.11.96-.24,2.08-.58,3.35-1.01,1.27-.43,2.47-.94,3.6-1.51,1.13-.58,1.93-1.15,2.41-1.73l-.43-12.6Z"/>
              <path class="cls-3" d="M620.99,181.68l-1.15-24.7c-.14-3.17-.57-5.27-1.26-6.3-.7-1.03-1.79-1.55-3.28-1.55-1.15,0-2.76.3-4.82.9-2.06.6-4.08,1.52-6.05,2.77l-1.37,28.87h-8.86l-1.87-40.1h12.6l-.36,7.63c1.49-1.68,3.2-3.17,5.15-4.46,1.94-1.3,3.97-2.3,6.08-3.02,2.11-.72,4.13-1.08,6.05-1.08,3.6,0,6.05.97,7.34,2.92s1.94,4.76,1.94,8.46c0,.34-.01.66-.04.97-.02.31-.04.66-.04,1.04l-1.15,27.65h-8.93Z"/>
              <path class="cls-3" d="M682.98,184.71l-22.75-15.77-22.61,15.77-.58-.58,15.84-22.61-15.84-22.68.58-.58,22.61,15.84,22.75-15.84.58.58-15.84,22.68,15.84,22.68-.58.5Z"/>
              <path class="cls-3" d="M736.62,181.68l-2.09-42.12-16.06,36.65h-.5l-16.13-36.65-6.55,43.13h-1.08l-3.96-57.17h13.25l17.5,29.09,13.39-29.09h11.74l-1.08,56.16h-8.42Z"/>
              <path class="cls-3" d="M761.03,181.68l-2.02-56.16h13.54l-2.02,56.16h-9.5Z"/>
              <path class="cls-3" d="M827.48,182.62l-29.95-42.98-6.41,42.98h-1.15l-4.61-57.1h11.81l24.62,29.81,7.63-30.53h1.37l-2.74,57.82h-.58Z"/>
              <path class="cls-3" d="M866.65,183.12c-2.74,0-5.6-.68-8.6-2.05-3-1.37-5.82-3.35-8.46-5.94s-4.78-5.71-6.41-9.36c-1.63-3.65-2.45-7.75-2.45-12.31,0-3.55.54-6.85,1.62-9.9,1.08-3.05,2.53-5.77,4.36-8.17,1.82-2.4,3.86-4.45,6.12-6.16,2.26-1.7,4.57-3,6.95-3.89,2.38-.89,4.67-1.33,6.88-1.33s4.43.46,6.8,1.37c2.38.91,4.68,2.22,6.91,3.92,2.23,1.7,4.26,3.76,6.08,6.16,1.82,2.4,3.26,5.11,4.32,8.14,1.05,3.02,1.58,6.31,1.58,9.86,0,4.56-.82,8.66-2.45,12.31-1.63,3.65-3.74,6.77-6.34,9.36s-5.38,4.57-8.35,5.94c-2.98,1.37-5.83,2.05-8.57,2.05ZM869.53,176.93c2.26,0,4.25-.74,5.98-2.23,1.73-1.49,3.08-3.56,4.07-6.23.98-2.66,1.48-5.75,1.48-9.25,0-4.85-.55-9.08-1.66-12.71-1.1-3.62-2.54-6.64-4.32-9.04-1.78-2.4-3.66-4.2-5.65-5.4-1.99-1.2-3.88-1.8-5.65-1.8-2.21,0-4.2.73-5.98,2.2-1.78,1.46-3.18,3.49-4.21,6.08-1.03,2.59-1.55,5.64-1.55,9.14,0,5.14.56,9.55,1.69,13.25,1.13,3.7,2.59,6.72,4.39,9.07,1.8,2.35,3.71,4.09,5.72,5.22,2.02,1.13,3.91,1.69,5.69,1.69Z"/>
              <path class="cls-3" d="M945.85,182.62l-29.66-26.42.07-1.01c2.83-.58,5.39-1.6,7.67-3.06,2.28-1.46,4.2-3.14,5.76-5.04,1.56-1.9,2.65-3.78,3.28-5.65.43-1.25.65-2.42.65-3.53,0-1.87-.65-3.41-1.94-4.61-1.3-1.2-3.29-1.8-5.98-1.8-3.31,0-6.79.46-10.44,1.37l-1.08,48.82h-9.22l-2.66-56.16h13.1l-.07,3.96c2.26-1.25,4.55-2.22,6.88-2.92,2.33-.7,4.57-1.04,6.73-1.04,4.03,0,7.25.66,9.65,1.98,2.4,1.32,4.14,2.98,5.22,4.97,1.08,1.99,1.62,4.04,1.62,6.16,0,1.44-.22,2.78-.65,4.03-.67,2.06-1.84,3.92-3.49,5.58s-3.55,3.04-5.69,4.14c-2.14,1.1-4.24,1.92-6.3,2.45l17.5,27.86-.94-.07Z"/>
              <path class="cls-3" d="M957.73,181.68l-2.02-56.16h13.54l-2.02,56.16h-9.5Z"/>
              <path class="cls-3" d="M1024.19,182.62l-29.95-42.98-6.41,42.98h-1.15l-4.61-57.1h11.81l24.62,29.81,7.63-30.53h1.37l-2.74,57.82h-.58Z"/>
            </g>
          </g>
        </g>
        <g>
          <path class="cls-3" d="M417.99,204.6c-.61.71-1.29,1.34-2.04,1.9-.75.56-1.53,1-2.34,1.31s-1.62.48-2.42.48c-1,0-1.94-.19-2.82-.57-.88-.38-1.66-.9-2.34-1.58-.68-.67-1.21-1.46-1.59-2.36-.38-.9-.58-1.87-.58-2.9s.21-1.94.63-2.83c.42-.89.99-1.67,1.71-2.36.72-.68,1.54-1.22,2.45-1.61.91-.39,1.86-.58,2.84-.58,1.04,0,1.99.18,2.84.54.85.36,1.59.85,2.21,1.46.62.61,1.09,1.3,1.43,2.07.34.77.5,1.55.5,2.36,0,.5-.1,1.06-.31,1.66-.2.61-.49,1.18-.85,1.73-.36.55-.77.99-1.22,1.34-.46.35-.94.52-1.44.52-.55,0-.99-.12-1.3-.36-.32-.24-.56-.56-.73-.95-.31.31-.71.62-1.21.91-.49.29-1.02.44-1.58.44-.91,0-1.6-.25-2.06-.76-.46-.5-.69-1.29-.69-2.36,0-.67.09-1.33.27-1.99.18-.65.43-1.24.76-1.77.32-.53.72-.95,1.18-1.27.46-.32.97-.48,1.52-.48.28,0,.53.03.76.09.23.06.42.14.58.23l-.02-.38h2.63l-.2,5.92v.11c0,.74.16,1.12.49,1.12.26,0,.5-.19.72-.57s.39-.86.51-1.44c.13-.58.19-1.17.19-1.76s-.11-1.21-.33-1.84c-.22-.62-.55-1.2-.97-1.73-.43-.53-.95-.95-1.57-1.28-.62-.32-1.32-.49-2.1-.49-.72,0-1.41.18-2.08.54-.67.36-1.27.84-1.8,1.44-.53.6-.96,1.28-1.27,2.02-.31.75-.47,1.52-.47,2.3,0,.83.15,1.6.45,2.32.3.72.7,1.36,1.21,1.91.5.55,1.07.98,1.71,1.3.64.31,1.29.47,1.96.47.85,0,1.68-.12,2.49-.35s1.57-.54,2.28-.92,1.34-.78,1.91-1.2l.11.16ZM412.2,198.19c-.12-.17-.26-.3-.42-.4-.16-.1-.33-.15-.5-.15-.29,0-.54.16-.77.48-.22.32-.41.72-.56,1.2-.15.48-.26.97-.34,1.46-.08.49-.12.91-.12,1.24,0,.56.1.97.3,1.22.2.25.46.38.8.38.28,0,.58-.06.92-.19.34-.13.65-.29.95-.5l-.27-4.73Z"/>
          <path class="cls-3" d="M428.77,205.1l-7.34,4.18-.18-.18,5.44-5.27v-.56l-2.65-.16-.68,2.52-2.05-.5.76-5.76,4.64.31.02-1.42-5.04-.36v-.25l5.04-.41v-1.17l-5.9.47v-2.7l5.92.49v-1.24h2.99l-.09,1.48,6.75.54v.22l-6.84.54-.05,1.15,5.54-.47-.76,4.84-2.09-.02-.02-.97-2.92.36-.11,1.53,6.23-.67-.63,4.39-4.45-1.42v-.2l2.36-.18-.04-.58-3.55-.22-.07,1.31,6.71,1.93-2.16,2.72-4.79-4.25ZM426.7,201.03l-2.18.27-.4,1.48,2.56-.27.02-1.48ZM432.12,198.64l-2.74-.2-.07,1.4,2.84.2-.04-1.4Z"/>
          <path class="cls-3" d="M444.76,208.74l-2.27-2.23h-1.13l-1.71,2.77-1.33-2.86,2.25-.31-.14-4.95-2.21-1.13v-.2l5.04-1.19-.49,7.33,2.36.52,4.03-.23-3.02-1.12v-.22l1.69-.43-.31-1.89-3.15.5-.18-3.58-.81.41-.13-.22.9-.76-.02-.49h.61l2.7-2.25.02-.47-2.97.29,1.85.83-2.18,1.26-.23-2.03-.76.07v-2.27l4.37.36.05-.97,2.81.18-.25,1.01,4.19.36v.25l-4.46.43-.27,1.08,1.6.45.47-1.66,2.3,1.04-2.2.77,2.43.68-.58,2.5-.68-.56-.34,3.04h-1.93l-.02-.81-2.63.43h1.96l-.36,3.71,4.82-.27-.65,3.01-9.07-.22ZM440.46,198.05l-1.85-4.28.22-.22,4.01,2.41-2.38,2.09ZM443.32,205.75l-.2-.18,2.05-2.45,1.82,1.19-3.67,1.44ZM449.37,196.91l-3.11,1.57h.56l-.05.4,4.55-.38-1.94-1.58ZM450.68,200.73l-4.19.07-.09.7,4.28.25v-1.03ZM450.66,199.77l-3.94-.61-.09.67,4.03.63v-.68ZM452.28,205.88l-1.93-2.45.16-.14,3.46,1.01-1.69,1.58Z"/>
          <path class="cls-3" d="M464.49,207.68v-.29l3.87-.5.36-10.35-12.06-1.28v-.23l15.28-1.44-1.4,16.04-6.05-1.94ZM464.14,206.42l-.04-1.55-5.81,1.73-.79-6.52h2.97v.85l6.39-1.85-.58,7.34h-2.14ZM457.99,199.56v-2.75l9.43.94v.18l-9.43,1.64ZM464.04,201.92l-3.58-.61-.02,2.56,3.65.61-.05-2.56Z"/>
        </g>
        <g>
          <path class="cls-5" d="M811.5,204.54c-.61.71-1.3,1.34-2.05,1.9-.75.56-1.53,1-2.35,1.32-.81.32-1.62.48-2.43.48-1,0-1.94-.19-2.82-.57-.88-.38-1.67-.9-2.34-1.58-.68-.67-1.21-1.46-1.6-2.36s-.58-1.87-.58-2.9.21-1.94.63-2.83c.42-.89.99-1.68,1.71-2.36s1.54-1.22,2.45-1.61c.91-.39,1.86-.59,2.85-.59,1.05,0,2,.18,2.85.54.85.36,1.59.85,2.21,1.46.62.61,1.1,1.31,1.43,2.07.34.77.5,1.56.5,2.36,0,.51-.1,1.06-.31,1.67-.2.61-.49,1.18-.85,1.73-.36.55-.77,1-1.23,1.34-.46.35-.94.52-1.44.52-.55,0-.99-.12-1.31-.36-.32-.24-.56-.56-.73-.96-.31.31-.72.62-1.21.91-.49.29-1.02.44-1.59.44-.91,0-1.6-.25-2.07-.76-.46-.51-.69-1.29-.69-2.36,0-.67.09-1.34.27-1.99.18-.66.43-1.25.76-1.78.33-.53.72-.95,1.18-1.27.46-.32.97-.48,1.52-.48.28,0,.53.03.76.09.23.06.42.14.58.23l-.02-.38h2.63l-.2,5.93v.11c0,.75.16,1.12.49,1.12.26,0,.5-.19.72-.57.22-.38.39-.86.51-1.44.13-.58.19-1.17.19-1.76s-.11-1.21-.33-1.84c-.22-.63-.55-1.2-.97-1.73-.43-.53-.95-.96-1.57-1.28s-1.32-.49-2.1-.49c-.72,0-1.42.18-2.08.54-.67.36-1.27.84-1.8,1.44-.54.6-.96,1.28-1.27,2.03-.31.75-.47,1.52-.47,2.3,0,.83.15,1.61.45,2.33s.7,1.36,1.21,1.91c.5.55,1.08.99,1.71,1.3.64.31,1.29.47,1.97.47.85,0,1.69-.12,2.5-.35.81-.23,1.57-.54,2.28-.92.71-.38,1.35-.78,1.91-1.2l.11.16ZM805.69,198.11c-.12-.17-.26-.3-.42-.41-.16-.1-.33-.15-.5-.15-.29,0-.54.16-.77.48-.22.32-.41.72-.56,1.2-.15.48-.26.97-.34,1.46-.08.49-.12.91-.12,1.24,0,.57.1.97.3,1.23.2.25.47.38.8.38.28,0,.58-.06.92-.19s.66-.29.96-.5l-.27-4.74Z"/>
          <path class="cls-5" d="M814.2,209.05l3.66-14.92,3.54,1.26-7.02,13.8-.18-.14ZM826.54,209.23l-3.3-15.71.29-.07,6.39,13.57-3.37,2.22Z"/>
          <path class="cls-5" d="M841.22,199.52l-.27,9.69h-2.07l-.31-11.04-6.39.72v-2.94l6.33.38-.09-3.34h2.98l-.09,3.5,6.66.4v.23l-6.71.76-.02,1.06,5.93,5.14-1.62,3.05-4.33-7.61ZM832.53,206.99l3.37-7.65,2.65,1.64-5.84,6.26-.18-.25Z"/>
          <path class="cls-5" d="M858.78,206.59l-2.29-2.94-7.34,5.45-.23-.18,6.3-6.93-3.68-4.76.16-.18,4.62,3.37,3.34-6.96,2.9,1.7-4.33,6.67,3.12,2.27-2.56,2.49Z"/>
          <path class="cls-5" d="M866.7,204.09l-.78-9.71h3.32l-.45,9.71h-2.09ZM872.63,209.17l1.68-15.59,3.32.65-4.74,14.97-.25-.04Z"/>
          <path class="cls-5" d="M881.61,202.79l-1.01-3.48,15.28,1.64v.2l-14.27,1.64Z"/>
          <path class="cls-5" d="M899.47,208.29l-1.44-3.7,4.38.76-2.94,2.94Z"/>
        </g>
      </g>
      <g>
        <path class="cls-2" d="M36.65,42.83c0,1.57,5.39,10.58,6.96,10.58l.69-.1c3.43-2.84,10.19-31.95,11.76-37.83.78-2.94,1.76-7.74,3.63-10.09,1.08-1.47,2.65-2.06,4.41-2.06,4.02,0,10.98.78,10.98,6.17,0,10.68-5.49,20.58-5.49,31.17,0,1.76,1.47,2.16,2.94,2.16,2.65,0,4.7-1.37,7.35-1.37,7.65,0,12.84,27.15,12.84,33.22,0,1.96.1,4.61-.98,6.27-1.76,2.84-11.56,6.37-14.9,6.37-2.55,0,.29-5.19-4.51-5.19-10.39,0-20.39,3.14-30.77,3.14-7.64,0-7.94-5.59-7.94-11.66,0-4.8,6.96.1,7.35-8.43l-.29-.29c-1.27.29-3.82,2.35-4.7,2.35-2.84,0-3.23-6.47-4.41-6.86-.49.69-.49,5.98-.49,7.15,0,4.61.49,9.31.49,14.02s-.78,6.86-5.78,6.86c-3.04,0-7.45-.2-9.41-2.94-1.08-1.47-1.18-3.43-1.18-5.29,0-1.37.2-2.84.2-4.31,0-2.55-.2-4.21-1.37-6.66-1.67.39-3.14,8.23-5.39,8.23-3.04,0-8.53-8.82-8.53-11.66,0-5.78,10.09-15.58,10.09-21.86,0-.59-.29-.98-.78-1.27-4.12-2.45-9.41,2.55-9.41-5.59,0-4.51,1.08-8.72,6.47-8.72h1.76c3.72,0,6.08-.39,6.08-4.7,0-2.25-.39-4.02-3.14-4.02-1.57,0-3.14.39-4.7.39-2.74,0-3.23-2.35-3.23-4.61,0-3.04,0-5.39,3.04-6.96,3.72-1.96,26.46-5.88,31.17-5.88,4.12,0,6.47,5.19,6.47,8.72,0,8.04-12.74-2.06-12.74,13.92,0,2.25,1.86,2.35,3.63,2.35,1.27,0,2.45-.1,3.72-.1,5.1,0,6.66,3.33,6.66,7.84,0,7.74-1.76,5.59-7.64,6.76l-.88.78ZM63.7,68.7c1.96,0,7.94-.2,7.94-3.14,0-2.25-2.06-14.41-4.8-14.41-1.67,0-6.27,13.52-6.27,15.49,0,2.06,1.47,2.06,3.14,2.06Z"/>
        <path class="cls-2" d="M144.6,13.88c8.1,0,14.11-.55,14.11,9.65,0,5.37-7.55,5.73-11.38,5.73-3,0-5.92-.27-8.92-.27-2.55,0-11.19-.82-12.92,1.09-6.28,7.01-3.91,35.58-14.2,49.23-.91,1.18-2.46,1.36-3.91,1.36-4.82,0-11.01-3.09-11.01-8.55,0-13.83,8.46-26.12,8.46-39.95,0-2.09-.82-2.82-2.91-2.82-.82,0-1.64.09-2.46.09-3.19,0-3.91-1.73-3.91-4.64,0-3.37.36-8.83,4.55-9.56,1.91-.27,4-.18,5.92-.27,1.09-.09,2-.09,2.91-.64,3.73-2-.18-9.56,7.46-9.56,1.55,0,3.19.09,4.73.09,1.73,0,4.64-.18,6.1.82,1.64,1.09,1.64,3.82,1.64,5.55,0,2.73,6.55,2.82,8.46,2.82,2.46,0,4.82-.18,7.28-.18ZM132.96,51.46c4.46-1,11.65,1.09,12.1,4.91.18,1.64-3.64,3.19-3.64,6.01,0,3.28,7.37,4,9.74,4,5.46,0,10.37-2.55,15.83-2.55,4.64,0,4.64,5.37,4.64,8.83,0,8.01-13.83,8.65-19.48,8.65-3.64,0-7.19-.09-10.83-.82-5.55-1.09-11.83-3.91-15.47-8.28-1.91-2.27-2.73-5.1-2.73-8.1,0-4.73,4.64-11.47,9.83-12.65ZM168.9,48.91c-6.28,1.09-14.2-2.55-28.85-.91-7.1.82-8.83-1.91-8.83-8.92,0-6.64,20.66-6.46,25.3-6.46,1.91,0,3.82.09,5.82.09,5.28,0,9.46,1,9.46,7.19,0,2.82-.18,7.92-2.91,9.01Z"/>
        <path class="cls-2" d="M207.08,53.65c-4.28,1.09-9.28,3-12.92,3.09-3.09.09-12.83-3.28-12.83-7.19,0-5.01,6.01-11.92,6.01-16.38,0-2.55-1.91-3.09-4.1-3.09-1.18,0-2.46.27-3.64.27-3.46,0-5.92-1.18-5.92-5.01,0-14.01,8.28-7.64,16.84-10.28,4-1.27,2.46-5.01,4.55-7.46,2.27-2.64,8.55-2,11.38-2,4.64,0,5.19,2.46,5.19,6.46,0,1.18,1.27,1.73,2.27,2,4.28,1.27,10.19,1.18,14.65,1.18,2.55,0,5.1-.09,7.64-.09,4.1,0,8.65.55,11.92,3.09,2.18,1.64,2.46,4.55,2.46,7.1,0,.55-.09,1-.18,1.55-.82,3.64-16.29,3.37-19.48,3.37-4.82,0-9.74-.27-14.56-.27-3,0-7.46-.09-9.37,2.64v-.09c-.55,1.37-2.18,2.64-1.18,4.28,3.09,1.82,8.55-.82,12.83-.82,13.2,0,27.76,5.19,27.76,20.66,0,4.19-1,8.19-3.46,11.65-4.82,6.83-12.56,10.92-20.57,12.83-5.37,1.27-10.37,1.46-15.83,1.46s-19.47-.46-19.47-8.19c0-3.28-.27-10.01,4.1-10.01,6.28,0,13.1,1.91,19.38,1.91,6.83,0,16.47-.82,16.47-9.46,0-4.37-3.37-5.01-7.1-5.01-4.37,0-7.64.18-12.83,1.82Z"/>
        <path class="cls-2" d="M310.52,5.98c4.8,0,9.51.59,14.31.98,6.76.49,16.07.88,16.07,9.9,0,4.61-4.9,4.8-8.33,4.8-9.02,0-18.03-.39-27.05-.39-7.25,0-10.98-.1-10.98,8.53,0,3.53,10.78,3.72,13.13,3.72,3.82,0,7.55-.29,11.27-.29,11.66,0,16.76-1.37,16.76,12.54,0,10.58,0,26.66-6.37,35.58-1.96,2.74-5,4.21-8.13,5-3.33.78-6.57.88-9.9.88-3.14,0-6.27.2-9.31.2-8.72,0-10.49-4.41-10.49-12.25,0-4.02,5.88-4.12,8.72-4.12,3.43,0,6.66.69,10,.69,6.17,0,6.96-8.72,6.96-13.23,0-1.76.2-8.82-.98-9.9-.29-.29-1.27-.49-1.67-.49-2.65,0-5.39-.1-8.04-.1-2.84,0-10.09,0-12.15,1.96-2.16,1.96-5.39,10.58-6.86,13.72-3.72,7.84-8.62,14.7-15.39,20.29-1.47,1.18-2.94,2.25-4.9,2.25-3.43,0-11.37-6.66-11.37-10.19,0-2.06,4.41-6.57,5.98-8.13,1.76-1.76,3.33-3.63,4.9-5.59,1.47-1.96,2.84-4.02,3.72-6.27,3.63-8.82,5.1-17.64,5.1-27.15,0-5.68-2.94-7.35-8.33-7.35-2.25,0-4.61.39-6.96.39-2.94,0-6.17-.39-6.17-4.12,0-10.98,9.51-10,17.45-11.07,3.82-.49,7.64-.78,11.47-.78h27.54Z"/>
        <path class="cls-2" d="M363.42,80.37c0,4.12-.39,7.55-5.49,7.55-1.76,0-3.63-.2-5.29-.69-1.86-.59-3.04-1.96-3.82-3.63-3.43-7.06-3.43-26.76-3.72-35.18-.1-1.67-.2-10.09-.88-10.98-.29-.29-.59-.69-1.08-.69s-1.08.2-1.57.2c-1.67,0-1.57-3.33-1.57-4.31v-3.53c0-2.25.49-5.68,3.43-5.68.98,0,1.76-.88,2.06-1.76.29-.88.29-1.96.49-2.94,1.86-11.27-1.18-16.37,13.53-16.37,4.21,0,4.31,5.39,4.31,8.43s-.49,5.78-.49,8.72c0,4.31,2.06,2.55,3.53,3.53,1.57.98,1.18,5.59,1.18,6.96,0,1.57.2,6.66-2.16,6.66-.98,0-1.47.1-2.06.88-1.18,1.57-1.08,10.49-1.08,12.84,0,10,.69,19.99.69,29.99ZM376.06,54.3c-1.27,0-2.55-.29-3.63-.78-1.18-.59-1.76-1.67-1.96-2.94-.78-5.88-.78-11.86-.78-17.74,0-7.35,1.96-10.68,9.7-10.68,1.27,0,2.55.2,3.72.2,1.27,0,8.43.1,8.43-1.47,0-1.08-1.67-.98-2.45-.98h-17.74c-3.14,0-5.49-1.67-5.49-5,0-7.15,2.16-7.94,9.02-7.94,2.65,0,5.39.29,8.13.29,2.16,0,5.19-.1,7.06-1.27,2.45-1.57.49-3.92,2.65-5.19,1.18-.69,5.98-.78,7.55-.78,2.25,0,5.1.2,6.96,1.47,2.65,1.86.29,4.9,3.04,5.59,1.08.29,2.16.39,3.23.39l.69-.78c0-1.76-1.27-2.06-1.27-3.72,0-1.27,7.64-1.96,8.72-1.96,5.19,0,4.31,3.14,6.96,6.17,1.76,1.96,3.82.29,5.19,2.16,1.47,2.06,1.47,5.1,1.47,7.45,0,2.65-1.57,3.72-4.12,3.72-5.98,0-12.05-.39-18.03-.39-1.08,0-2.84-.1-3.53.98,0,1.76,9.02,1.37,10.29,1.37,7.64,0,12.94.78,13.33,9.51.2,3.82.2,7.94.2,11.76,0,1.96-.2,9.11-2.25,9.9-.69.29-4.41.1-4.41,1.08,0,1.57,2.65,1.57,3.82,1.57.88,0,1.67-.2,2.55-.2,2.74,0,3.23,1.18,3.23,3.72,0,1.96.1,6.37-2.06,7.35-.88.39-1.96.49-2.94.49-1.37.1-3.23.2-4.61.69-.98.29-1.67,10-2.16,11.66-.29,1.08-.59,2.16-1.08,3.23-.39.88-.98,1.86-1.67,2.55-2.94,2.94-11.47,3.33-15.49,3.33h-8.13c-1.67,0-3.04-.49-3.82-2.06-.69-1.37-.39-4.8-1.08-4.8-1.27,0-3.04,4.7-5.78,4.7s-16.27-9.7-16.27-12.25c0-2.06,2.45-3.23,2.45-4.41,0-1.76-4.61-1.37-5.78-1.67-2.25-.49-2.45-3.92-2.45-5.88,0-1.18.1-2.25.59-3.33,1.18-2.55,5.98-2.65,8.33-2.74,2.94-.1,5.98-.2,8.92-.2,5.1,0,10.29.2,15.39.2,1.18,0,7.94-.2,7.94-1.67,0-.88-3.14-.88-3.72-.88-1.47,0-3.04.2-4.51.2h-22.35ZM384.98,33.32c0,1.37,3.92,1.18,4.8,1.18,1.08,0,2.06-.39,2.06-1.57,0-1.47-2.06-1.47-3.14-1.47h-1.76c-1.08,0-1.96,0-1.96,1.37v.49ZM389.2,44.4c.88,0,2.74-.1,2.74-1.27,0-1.47-1.57-1.76-2.74-1.76h-1.86c-.98,0-2.35-.1-2.35,1.27,0,1.47,1.86,1.76,3.04,1.76h1.18ZM404,75.37c1.86,0,3.72-.39,3.72-2.65v-2.25c0-1.67-2.45-1.67-3.63-1.67-3.92,0-7.94.2-11.86.29-.59,0-3.82,0-3.82.78,0,3.43,10.39,5.49,13.03,5.49h2.55ZM412.43,31.56c-1.18,0-2.45.2-2.45,1.67,0,.78.59.98,1.27,1.08,1.37.2,2.65.29,4.02.29,1.08,0,2.25-.49,2.25-1.67,0-1.08-1.37-1.37-2.16-1.37h-2.94ZM415.17,44.3c.98,0,2.45-.2,2.45-1.37,0-1.37-1.37-1.57-2.45-1.57h-2.65c-.78,0-2.35.29-2.35,1.27,0,1.37,2.55,1.67,3.63,1.67h1.37Z"/>
        <path class="cls-2" d="M510.88,25.8c-1.73.73-3.64,1.18-5.46,1.73-4.91,1.37-9.92,2.37-14.74,4.28-5.1,2-10.19,4.73-13.56,9.1-1.55,2.64-3,5.92-3,9.01,0,10.92,5.82,16.29,17.29,15.93,2.82-.09,5.55-.55,8.37-.55,4.19,0,4.91,5.1,4.91,8.46,0,1.91.27,4.19-.36,6.01-1.18,3.55-12.01,3.73-15.2,3.73-17.75,0-36.13-12.1-36.13-31.31,0-2.82.64-5.55,1.73-8.1,1.91-4.37,4.64-8.74,7.74-12.38.27-.36,1.73-2,1.73-2.46,0-.55-1.27-.64-1.64-.64-6.1,0-12.19.46-18.29.46-2.91,0-7.74-.55-7.74-4.37,0-3.19.73-6.55,3.55-8.46,6.46-4.37,41.86-4.19,50.87-4.19,2.09,0,4.19-.09,6.28-.09,4.37,0,13.74.55,15.74,5.1.82,1.91.82,4.1.82,6.19-.55,1.36-1.73,2.09-2.91,2.55ZM490.5,40.81c0-2.82,5.19-4.82,7.55-4.82,3,0,8.92,9.19,8.92,12.01,0,2.46-5.64,5.1-7.83,5.1-2.37,0-8.65-9.92-8.65-12.29ZM513.34,31.71c2.46.09,8.65,9.83,8.55,12.29-.09,3.09-5.64,4.82-8.19,4.73-2.09-.09-8.55-10.28-8.46-12.38,0-2.82,5.73-4.73,8.1-4.64Z"/>
        <path class="cls-2" d="M581.92,62.14c-2.94,7.64-21.95,25.38-30.48,25.38-6.47,0-13.33-8.13-13.33-14.41,0-5.29,21.07-5.88,21.07-19.31,0-2.94-5.68-3.23-7.84-3.23-4.61,0-9.31.39-13.92.39-5.59,0-15.09-.98-15.09-8.43,0-1.37.1-2.84.49-4.21.39-1.37,1.76-2.25,3.04-2.84,3.92-1.86,19.99-2.16,24.89-2.16,7.55,0,15.09.1,22.64.1,1.37,0,2.65-.1,3.92-.2,2.94-.1,5.88-.2,8.72-.2,6.96,0,18.13,0,24.01,3.63,2.94,1.76,2.65,3.63,2.65,6.66,0,10.19-16.96,5.29-23.82,8.43-2.94,3.14-4.51,7.15-7.06,10.49l.1-.1ZM584.47,6.96c-.1-.2-.49-1.18-.49-1.37,0-1.76,6.08-4.41,7.64-4.41,3.04,0,9.31,9.9,9.31,12.74s-3.23,2.65-4.8,4.02c-1.18,1.08-.49,4.31-2.25,5.88-1.37,1.18-12.25,1.27-14.6,1.27h-32.73c-4.51,0-11.57-.39-11.57-6.47,0-3.23.78-6.96,3.82-8.62h-.1c4.51-2.25,23.52-1.96,28.72-1.96h13.23c.78,0,3.63-.2,3.92-1.08h-.1ZM600.24,5.88c0-2.94,4.12-4.9,6.76-5.19,3.33-.39,10.09,9.7,10.09,12.74,0,2.74-4.8,4.21-7.06,4.21-2.45,0-9.8-9.31-9.8-11.76Z"/>
        <path class="cls-2" d="M621.9,35.48c0-5.39.49-21.17,4.61-24.7,2.74-2.35,6.17-2.35,9.6-2.35,5.59,0,7.94,2.35,7.94,7.94,0,2.55-.39,5-.39,7.55,0,3.04.88,6.37,4.61,6.37,14.5,0,27.93-7.55,42.44-7.55,5.49,0,7.84,6.76,7.84,11.37-2.84,6.17-22.15,9.21-28.42,10.39h.1c-5.88.69-20.68,3.82-25.09,7.35-1.57,1.27-1.67,1.76-1.67,3.63,0,10.19.69,11.27,10.98,11.27,11.07,0,22.15-.69,33.22-.69,6.37,0,8.13.49,8.13,7.35,0,2.35-.29,4.12-1.76,5.98-3.33,4.31-28.62,5-34.6,5-28.13,0-37.54-5.1-37.54-34.69v-14.21ZM674.72,7.25c0-2.65,5.49-5.29,7.74-5.29,2.74,0,9.7,11.08,9.7,13.72s-5.59,5-7.94,5-9.51-10.98-9.51-13.43ZM691.19,5.49c0-3.04,4.61-5,7.16-5,3.14,0,11.17,11.07,11.17,14.11s-5.29,4.61-7.64,4.61c-2.94,0-10.68-10.88-10.68-13.72Z"/>
        <path class="cls-2" d="M747.14,24.5c7.84,0,16.66,1.67,18.52,10.68.49,2.35.59,4.8.59,7.25,0,5.88-.78,11.56-.78,17.45,0,3.82,1.08,6.66,5.39,6.66.98,0,1.96-.2,2.94-.2,3.23,0,4.9.69,4.9,4.21,0,2.45-.29,4.61-1.76,6.57-3.14,4.21-19.01,4.31-24.21,4.51-1.67.1-3.33.1-5,.1-2.16,0-4.21-.1-6.37-.1-2.84,0-18.33-.2-21.17-.2-7.16,0-11.76-.78-10.39-9.51.49-3.04,4.8-5.59,7.74-5.59l16.07.39c3.92,0,8.82-.59,10.88-4.41,1.96-3.53,1.57-10.88,1.57-14.9,0-.78,0-1.67-.1-2.45v.1c-1.08-5.29-8.13-5.88-12.54-5.88-2.84,0-5.78.29-8.62.29s-7.35-.88-7.35-4.61c0-2.94,0-5.19,2.25-7.45,2.74-2.74,16.37-2.94,20.48-2.94h6.96Z"/>
        <path class="cls-2" d="M841.03,35.77c1.76,0,3.63-.1,5.39-.1,3.72,0,7.55.29,11.27.88,4.8.69,11.27,2.74,11.27,8.62,0,9.51-19.01,9.7-25.48,9.7-2.84,0-5.78-.2-8.62-.2h-23.42c-6.66,0-28.72.78-28.72-9.51,0-9.21,16.66-9.51,23.03-9.51,1.76,0,3.53.1,5.29.1h29.99Z"/>
        <path class="cls-2" d="M948.49,60.38c-7.55,12.29-19.93,22.3-34.95,22.3-25.48,0-32.4-14.11-32.4-36.86,0-5.82,0-32.12,4.46-35.58,2.82-2.18,8.19-1.55,10.56-1.55,6.46,0,8.65,1.73,8.65,7.64,0,10.1-1.82,19.02-2.46,30.12-.46,8.55-2.46,18.29,8.92,18.47,6.83.09,12.38-8.92,16.2-14.56,2.18-3.64,4.64-9.37,9.65-9.37,3.09,0,15.83,5.82,15.83,9.74,0,3.09-2.91,7.1-4.46,9.74v-.09Z"/>
        <path class="cls-2" d="M987.53,47h.09c-1.27-1.27-9.46-1-11.56-1-3.55,0-7.1.18-10.56.18-3.82,0-9.28-.73-9.37-4.91v-1.09c0-2.37.18-3.64.55-4.82,1.37-3.91,15.29-3.73,18.93-3.73,3,0,5.92.18,8.92.18,1.18,0,2.82-.09,2.82-1.64l-.73-1.82c-1.64-.55-7.19-.36-9.1-.36-6.1,0-12.1.27-18.11.27-4,0-6.01-1.73-6.01-5.82,0-7.37,7.64-8.65,13.56-8.65,3.82,0,7.73.27,11.65.27,2.46,0,6.92.09,8.74-1.73.36-.36.73-.91.73-1.46s-.09-1.09-.09-1.64c0-2.82,3.82-3,5.92-3,2.28,0,8.19,0,9.74,1.91.82,1,.46,1.55.46,2.64,0,6.55,16.74-1.18,21.39,7.28,1,1.91,1.18,4.46,1.18,6.55,0,3.37-4.91,3.91-7.46,3.91-3.55,0-7.01-.45-10.56-.45-.91,0-3.73.18-3.73,2.27,0,1.55,3.18,1.64,4.28,1.64,1.18,0,2.28-.18,3.46-.18,7.1,0,11.1-.36,11.1,9.28,0,4.1-2.73,4.91-7.01,4.91-1.55,0-3.09-.18-4.73-.18-4.28,0-7.01,1.18-7.01,5.92,0,7.74,12.1,5.1,20.2,14.29,1.91,2.09-4.82,12.74-9.83,13.29-3.91.45-7.83-5.73-10.74-5.73-2.18,0-3.37,1.91-4.73,3.28h.09c-4.46,5.19-11.92,6.28-18.47,6.28-11.92,0-23.84-6.55-23.84-19.75,0-9.19,7.46-12.47,16.47-13.47,4.1-.46,8.19-.27,12.29-.27.91,0,1.64-.46,1.55-1.64l-.46-1ZM979.61,62.02c-2,0-5.01.82-5.01,3.28,0,3.09,3.64,3.46,6.01,3.46s7.19-.27,7.19-3.64v-.91c0-1.73-4.64-2.18-5.92-2.18h-2.27Z"/>
        <path class="cls-2" d="M1102.35,60.38c-7.55,12.29-19.93,22.3-34.95,22.3-25.48,0-32.4-14.11-32.4-36.86,0-5.82,0-32.12,4.46-35.58,2.82-2.18,8.19-1.55,10.56-1.55,6.46,0,8.65,1.73,8.65,7.64,0,10.1-1.82,19.02-2.46,30.12-.46,8.55-2.46,18.29,8.92,18.47,6.83.09,12.38-8.92,16.2-14.56,2.18-3.64,4.64-9.37,9.65-9.37,3.09,0,15.83,5.82,15.83,9.74,0,3.09-2.91,7.1-4.46,9.74v-.09Z"/>
        <path class="cls-2" d="M1158.6,13.88c8.1,0,14.11-.55,14.11,9.65,0,5.37-7.55,5.73-11.38,5.73-3,0-5.92-.27-8.92-.27-2.55,0-11.19-.82-12.92,1.09-6.28,7.01-3.91,35.58-14.2,49.23-.91,1.18-2.46,1.36-3.91,1.36-4.82,0-11.01-3.09-11.01-8.55,0-13.83,8.46-26.12,8.46-39.95,0-2.09-.82-2.82-2.91-2.82-.82,0-1.64.09-2.46.09-3.19,0-3.91-1.73-3.91-4.64,0-3.37.36-8.83,4.55-9.56,1.91-.27,4-.18,5.92-.27,1.09-.09,2-.09,2.91-.64,3.73-2-.18-9.56,7.46-9.56,1.55,0,3.18.09,4.73.09,1.73,0,4.64-.18,6.1.82,1.64,1.09,1.64,3.82,1.64,5.55,0,2.73,6.55,2.82,8.46,2.82,2.46,0,4.82-.18,7.28-.18ZM1146.95,51.46c4.46-1,11.65,1.09,12.1,4.91.18,1.64-3.64,3.19-3.64,6.01,0,3.28,7.37,4,9.74,4,5.46,0,10.38-2.55,15.83-2.55,4.64,0,4.64,5.37,4.64,8.83,0,8.01-13.83,8.65-19.47,8.65-3.64,0-7.19-.09-10.83-.82-5.55-1.09-11.83-3.91-15.47-8.28-1.91-2.27-2.73-5.1-2.73-8.1,0-4.73,4.64-11.47,9.83-12.65ZM1182.9,48.91c-6.28,1.09-14.2-2.55-28.85-.91-7.1.82-8.83-1.91-8.83-8.92,0-6.64,20.66-6.46,25.3-6.46,1.91,0,3.82.09,5.82.09,5.28,0,9.46,1,9.46,7.19,0,2.82-.18,7.92-2.91,9.01Z"/>
        <path class="cls-2" d="M1202.02,20.19c0-8.23,4.41-10.09,11.86-10.09,8.53,0,9.6,5.49,9.6,12.64v7.06c0,4.7-.59,21.76-3.92,24.7-2.16,1.86-5.29,1.96-7.94,1.96-1.67,0-3.53,0-5-.78-4.12-2.16-4.61-20.19-4.61-24.7v-10.78ZM1216.62,64c3.82,0,5.78.98,5.78,5.1v1.67c0,6.08-3.04,8.53-8.92,8.53-9.31,0-10.49-2.16-10.49-11.07,0-2.74,2.16-4.21,4.8-4.21h8.82Z"/>
      </g>
    </g>
  </g>
</svg>