<?xml version="1.0" encoding="UTF-8"?>
<svg id="_レイヤー_2" data-name="レイヤー 2" xmlns="http://www.w3.org/2000/svg" viewBox="0 0 252.93 44.33">
  <defs>
    <style>
      .cls-1 {
        fill: #c8161d;
      }
    </style>
  </defs>
  <g id="_文字" data-name="文字">
    <g>
      <path class="cls-1" d="M34.78,43.25l-1.57-31.59-12.04,27.49h-.38L8.69,11.66,3.78,44.01h-.81L0,1.13h9.94l13.12,21.82L33.1,1.13h8.8l-.81,42.12h-6.32Z"/>
      <path class="cls-1" d="M53.08,43.25l-1.51-42.12h10.15l-1.51,42.12h-7.13Z"/>
      <path class="cls-1" d="M102.92,43.96l-22.46-32.24-4.81,32.24h-.86l-3.46-42.82h8.86l18.47,22.36L104.38.59h1.03l-2.05,43.36h-.43Z"/>
      <path class="cls-1" d="M132.3,44.33c-2.05,0-4.2-.51-6.45-1.54-2.25-1.03-4.37-2.51-6.34-4.46-1.98-1.94-3.58-4.28-4.81-7.02-1.22-2.74-1.84-5.81-1.84-9.23,0-2.66.41-5.14,1.21-7.43.81-2.29,1.9-4.33,3.27-6.13,1.37-1.8,2.9-3.34,4.59-4.62,1.69-1.28,3.43-2.25,5.21-2.92,1.78-.67,3.5-1,5.16-1s3.32.34,5.1,1.03c1.78.68,3.51,1.67,5.18,2.94,1.67,1.28,3.19,2.82,4.56,4.62,1.37,1.8,2.45,3.83,3.24,6.1.79,2.27,1.19,4.73,1.19,7.4,0,3.42-.61,6.5-1.84,9.23-1.22,2.74-2.81,5.08-4.75,7.02-1.94,1.94-4.03,3.43-6.26,4.46-2.23,1.03-4.37,1.54-6.43,1.54ZM134.46,39.69c1.69,0,3.19-.56,4.48-1.67,1.3-1.12,2.31-2.67,3.05-4.67.74-2,1.11-4.31,1.11-6.94,0-3.64-.41-6.81-1.24-9.53-.83-2.72-1.91-4.98-3.24-6.78-1.33-1.8-2.75-3.15-4.24-4.05-1.49-.9-2.91-1.35-4.24-1.35-1.66,0-3.15.55-4.48,1.65-1.33,1.1-2.38,2.62-3.16,4.56-.78,1.94-1.16,4.23-1.16,6.86,0,3.85.42,7.16,1.27,9.94.85,2.77,1.94,5.04,3.29,6.8,1.35,1.76,2.78,3.07,4.29,3.92,1.51.85,2.93,1.27,4.27,1.27Z"/>
      <path class="cls-1" d="M191.7,43.96l-22.25-19.82.05-.76c2.12-.43,4.04-1.2,5.75-2.29,1.71-1.1,3.15-2.36,4.32-3.78,1.17-1.42,1.99-2.83,2.46-4.24.32-.94.49-1.82.49-2.65,0-1.4-.49-2.56-1.46-3.46-.97-.9-2.47-1.35-4.48-1.35-2.48,0-5.09.34-7.83,1.03l-.81,36.61h-6.91l-2-42.12h9.83l-.05,2.97c1.69-.94,3.41-1.66,5.16-2.19,1.75-.52,3.43-.78,5.05-.78,3.02,0,5.43.5,7.24,1.49,1.8.99,3.11,2.23,3.92,3.73.81,1.49,1.21,3.03,1.21,4.62,0,1.08-.16,2.09-.49,3.02-.5,1.55-1.38,2.94-2.62,4.19-1.24,1.24-2.67,2.28-4.27,3.1-1.6.83-3.18,1.44-4.72,1.84l13.12,20.9-.7-.05Z"/>
      <path class="cls-1" d="M200.61,43.25l-1.51-42.12h10.15l-1.51,42.12h-7.13Z"/>
      <path class="cls-1" d="M250.45,43.96l-22.46-32.24-4.81,32.24h-.86l-3.46-42.82h8.86l18.47,22.36,5.72-22.9h1.03l-2.05,43.36h-.43Z"/>
    </g>
  </g>
</svg>